<?xml version="1.0" encoding="utf-8"?>
<svg xmlns="http://www.w3.org/2000/svg" width="100" height="23" viewBox="0 0 100 23" fill="none">
<path d="M52.5913 13.8961C50.0612 13.8961 48.0557 15.8608 48.0557 18.448C48.0557 21.0353 50.1091 23 52.5913 23C55.0735 23 57.1269 20.9872 57.1269 18.448C57.1269 15.9089 55.1214 13.8961 52.5913 13.8961ZM52.5913 15.7167C54.1191 15.7167 55.265 16.8667 55.265 18.448C55.265 20.0294 54.0713 21.1794 52.5913 21.1794C51.1113 21.1794 49.9176 20.0294 49.9176 18.448C49.8697 16.8667 51.0635 15.7167 52.5913 15.7167ZM90.3563 20.0764V15.9078H92.5044V14.0872H90.3563V11.6431L88.4944 12.2176V14.0862H86.9187V15.9068H88.4944V20.0754C88.4944 22.3273 89.6403 23.1421 92.5044 22.7587V21.0812C91.0724 21.1773 90.3563 21.1773 90.3563 20.0754V20.0764ZM100 21.0342H95.7506L100 15.9078V14.1833H93.4109V15.9078H97.6604L93.4109 21.0342V22.8068H100V21.0342ZM62.3786 13.9911V16.0039C61.137 15.9078 59.7049 16.4833 59.7049 18.448V22.8078H57.843V14.1353H59.7049V15.5725C60.2305 14.4225 61.2806 13.9911 62.3786 13.9911ZM66.8664 13.895C64.3363 13.895 62.3307 15.8598 62.3307 18.447C62.3307 21.0342 64.3842 22.999 66.8664 22.999C69.3486 22.999 71.402 20.9862 71.402 18.447C71.4499 15.8598 69.4443 13.895 66.8664 13.895ZM66.8664 15.7156C68.3942 15.7156 69.5401 16.8656 69.5401 18.447C69.5401 20.0284 68.3463 21.1784 66.8664 21.1784C65.3864 21.1784 64.1927 20.0284 64.1927 18.447C64.1927 16.8656 65.3864 15.7156 66.8664 15.7156ZM83.7194 14.1342L80.9978 22.8068H79.1838L77.3697 16.9607L75.5557 22.8068H73.7416L71.02 14.1342H72.9777L74.6492 20.1234L76.4632 14.1342H78.2294L80.0434 20.1234L81.7149 14.1342H83.7204H83.7194ZM86.2016 14.1342H84.3397V22.8068H86.2016V14.1342ZM25.6158 0.575522V4.16862C24.8998 3.64114 23.8975 3.21081 22.9421 3.21081C20.2684 3.21081 18.1203 5.55885 18.4065 8.29023C18.6448 10.398 20.3642 12.1236 22.4644 12.3628C23.6582 12.4589 24.7562 12.1236 25.6158 11.5V12.1706H27.5256V0L25.6158 0.574478V0.575522ZM25.568 7.81081C25.568 9.48828 24.0401 10.7814 22.3218 10.398C21.3196 10.2069 20.5078 9.39219 20.2684 8.33724C19.9343 6.61276 21.2707 5.07943 22.9421 5.07943C24.3742 5.07943 25.568 6.27747 25.568 7.81081ZM7.18711 3.49805V4.07253C6.47107 3.54505 5.51565 3.20976 4.56127 3.20976C1.88756 3.20976 -0.26057 5.55781 0.0256394 8.28919C0.263973 10.397 1.98331 12.1225 4.08356 12.3617C5.27731 12.4578 6.37532 12.1225 7.23498 11.499V12.1695H9.14478V3.497H7.18711V3.49805ZM7.18711 7.81081C7.18711 9.48828 5.65927 10.7814 3.94098 10.398C2.93873 10.2069 2.12693 9.39219 1.88756 8.33724C1.55347 6.61276 2.88981 5.07943 4.56127 5.07943C5.99336 5.07943 7.18711 6.27747 7.18711 7.81081ZM14.3965 3.25886C13.2027 3.25886 12.2962 3.69024 11.7227 4.6V3.45H9.86082V12.1225H11.7227V7.47448C11.7227 5.70195 12.6771 4.98333 13.9187 4.98333C15.1604 4.98333 15.8285 5.65391 15.8285 6.99609V12.1225H17.6905V6.85195C17.7383 4.6 16.3541 3.25886 14.3965 3.25886ZM49.1058 9.58333C48.676 10.2059 47.912 10.6372 46.8619 10.6372C45.4777 10.6372 44.3797 9.96667 44.0925 8.57643H50.9677C51.0156 8.33724 51.0156 8.04896 51.0156 7.80976C51.0156 5.31862 49.2494 3.25781 46.6715 3.25781C43.9499 3.25781 42.1358 5.27057 42.1358 7.80976C42.1358 10.349 43.9977 12.3617 46.8151 12.3617C48.4865 12.3617 49.8229 11.6431 50.5868 10.4931L49.1068 9.58229L49.1058 9.58333ZM46.7183 4.98333C47.8642 4.98333 48.9143 5.60586 49.2005 7.09114H44.0925C44.3787 5.797 45.3341 4.98333 46.7183 4.98333ZM70.4466 10.6853C71.4967 10.6853 72.2606 10.2059 72.6905 9.63138L74.2183 10.5422C73.4065 11.7402 72.118 12.4108 70.4466 12.4108C67.5824 12.4108 65.7673 10.4461 65.7673 7.85886C65.7673 5.27162 67.6292 3.3069 70.303 3.3069C72.9767 3.3069 74.6471 5.36771 74.6471 7.85886C74.6471 7.95495 74.6471 8.09805 74.5992 8.24219C74.5992 8.38633 74.5513 8.48138 74.5513 8.62552H67.6761C67.9623 9.96667 69.0603 10.6863 70.4455 10.6863L70.4466 10.6853ZM72.7383 7.09219C72.5 5.6069 71.402 4.98438 70.2561 4.98438C68.8719 4.98438 67.9165 5.79909 67.6303 7.09219H72.7383ZM86.2016 12.1716H84.3397V10.4941H86.2016V12.1716ZM75.5546 12.1716H77.4165V7.52357C77.4165 5.75104 78.3709 5.03243 79.6125 5.03243C80.7584 5.03243 81.5223 5.75104 81.5223 7.04519V12.1246H83.3843V6.80599C83.3843 4.55404 82.0001 3.2599 80.0903 3.2599C78.8965 3.2599 77.99 3.69128 77.4165 4.60104V3.49909H75.5546V12.1716ZM53.4978 5.89518C53.4978 5.27266 54.0702 4.98438 54.7394 4.98438C55.4086 4.98438 55.9811 5.27162 56.3151 5.84714L57.9387 5.03243C57.3184 3.93047 56.1726 3.2599 54.7394 3.2599C52.9733 3.2599 51.588 4.26576 51.588 5.89518C51.588 7.71576 53.1158 8.14714 54.4522 8.53047H54.5001C54.5479 8.53047 54.5958 8.57852 54.6437 8.57852C55.5512 8.86576 56.2194 9.05795 56.2194 9.68047C56.2194 10.351 55.5991 10.6383 54.7394 10.6383C53.9276 10.6383 53.2595 10.303 52.9254 9.68047L51.2539 10.4952C51.8263 11.6452 53.068 12.3638 54.6916 12.3638C56.5535 12.3638 58.0813 11.406 58.0813 9.68047C58.0813 7.81185 56.4577 7.33243 55.1693 6.99714C54.3096 6.75795 53.4978 6.51771 53.4978 5.89518ZM60.7071 5.89518C60.7071 5.27266 61.2796 4.98438 61.9488 4.98438C62.618 4.98438 63.1904 5.27162 63.5724 5.89518L65.1959 5.08047C64.5757 3.97852 63.3819 3.30795 61.9966 3.30795C60.2305 3.30795 58.8452 4.31381 58.8452 5.94323C58.8452 7.76381 60.3731 8.19519 61.7094 8.57852H61.853C62.7127 8.86576 63.4766 9.10599 63.4766 9.72852C63.4766 10.3991 62.8084 10.6863 61.9966 10.6863C61.137 10.6863 60.5167 10.351 60.1826 9.72852L58.5111 10.5432C59.0836 11.6932 60.2773 12.4119 61.9488 12.4119C63.8586 12.4119 65.3385 11.454 65.3385 9.72852C65.3385 7.8599 63.8107 7.42852 62.4744 7.04519H62.4265C62.3307 7.04519 62.2829 6.99714 62.1881 6.99714C61.3764 6.7099 60.7082 6.51771 60.7082 5.89518H60.7071ZM32.8252 5.36771V3.35495C31.7272 3.35495 30.6771 3.78633 30.1515 4.93633V3.49909H28.2896V12.1716H30.1515V7.81185C30.1515 5.84714 31.5836 5.27266 32.8252 5.36771ZM41.3709 10.4941V15.2372C41.9433 14.3264 42.8508 13.8961 44.0446 13.8961C45.9544 13.8961 47.3386 15.1902 47.3386 17.4422V22.8089H45.4767V17.6824C45.4767 16.3883 44.7127 15.6697 43.5669 15.6697C42.3252 15.6697 41.3709 16.3883 41.3709 18.1608V22.8089H39.5089V12.0285C38.9365 12.2677 38.3152 12.4119 37.5992 12.4119C34.735 12.4119 32.9199 10.4471 32.9199 7.8599C32.9199 5.27266 34.7818 3.30795 37.4555 3.30795C40.1292 3.30795 41.7997 5.36875 41.7997 7.8599C41.7997 7.95599 41.7997 8.09909 41.7518 8.24323C41.7518 8.38738 41.7039 8.48242 41.7039 8.62656H34.8287C35.1149 9.96771 36.2129 10.6874 37.5981 10.6874C38.4099 10.6874 39.0302 10.4001 39.5079 10.0168C39.6515 9.92071 39.7462 9.77761 39.842 9.63347L41.3698 10.4962L41.3709 10.4941ZM39.8909 7.09219C39.6047 5.6069 38.5546 4.98438 37.4087 4.98438C36.0245 4.98438 35.0691 5.79909 34.8307 7.09219H39.8919H39.8909Z" fill="white"/>
</svg>