<?xml version="1.0" encoding="utf-8"?>
<svg xmlns="http://www.w3.org/2000/svg" width="80" height="63" viewBox="0 0 80 63" fill="none">
<path d="M56.9827 15.6463C59.1322 15.2862 61.2603 14.9654 63.2226 13.9566C64.3143 13.3951 65.3774 12.7089 66.2908 11.8801C66.3032 11.8694 66.314 11.8587 66.3264 11.848C66.3264 11.848 65.5826 12.2224 64.6514 12.5966C63.8522 12.9193 62.9157 12.9977 62.0666 13.0975C60.256 13.3096 58.3295 13.4771 56.7383 12.4095C56.8417 12.479 58.0976 11.627 58.1957 11.57C60.0759 10.4899 61.9418 9.32422 62.8818 7.25846C62.8818 7.25846 61.7652 8.00707 60.6467 8.47583C59.53 8.94459 57.2948 9.50604 57.2948 9.50604C57.2948 9.50604 58.9717 7.54009 59.4372 6.60257C59.9046 5.66683 60.834 3.23033 60.6467 3.60462C60.4612 3.97892 59.9956 4.16609 59.2499 4.91646C58.5061 5.66505 56.3637 6.60256 56.4564 6.41541C57.0201 5.27826 57.7729 4.19816 58.1315 2.97011C58.3402 2.25539 58.4811 1.33569 58.6916 0.702956C58.5988 0.984569 57.855 1.63868 57.1093 2.66888C56.3637 3.69909 55.0615 4.7293 55.0615 4.7293V3.51196C55.0615 3.51196 54.9687 2.38728 54.1303 2.01299C53.2919 1.63869 52.268 2.94873 52.268 2.94873C52.268 2.94873 53.4774 3.0432 53.572 3.51017C53.6647 3.97894 52.548 5.00912 52.548 5.00912L52.9209 5.85042C52.9209 5.85042 52.9209 11.3757 48.7324 12.9674C44.5439 14.559 44.6367 15.3094 44.2639 15.8708C43.6681 16.7692 44.4655 18.0435 44.0088 18.9508C43.9428 19.0827 43.8607 19.2074 43.743 19.2965C43.3648 19.5817 42.8707 19.4979 42.4925 19.2448C42.2856 19.0523 42.1465 18.7725 42.0055 18.4553C41.4097 17.1114 40.2895 14.666 40.2895 14.666C40.2895 14.666 41.7808 13.9744 42.4693 13.8586C43.1579 13.7427 43.1579 14.8977 43.1579 14.8977L43.5022 14.0903C43.8465 13.2829 43.5022 12.8212 43.388 12.4754C43.2738 12.1297 42.4711 11.668 39.8328 10.5148C38.9766 10.1405 38.0044 9.90528 37.0714 10.0978C36.7147 10.1726 36.1938 10.3259 35.9637 10.62C36.5149 10.6182 37.034 10.4792 37.5994 10.5487C38.181 10.6218 38.7429 10.8054 39.2548 11.0923H37.1909C35.6997 11.0923 34.6668 13.0547 34.6668 13.0547L35.5855 12.2455C36.3597 11.5647 37.3747 11.7857 38.2238 11.7839C37.7368 11.7839 37.1695 12.586 36.9573 12.9567C36.4364 13.8603 36.4721 14.8834 36.7182 15.8691C36.7396 15.8851 36.7325 15.8477 36.7325 15.8209C36.7325 15.3593 37.3069 14.8977 37.3069 14.8977L37.0768 16.1667C36.8467 17.4358 37.0768 18.9365 37.0768 18.5889C37.0768 18.2414 37.8795 17.5498 37.8795 17.5498V18.3572C37.8795 18.4535 37.8563 18.5872 37.8189 18.744C37.8099 18.7779 37.7992 18.8171 37.7867 18.8581C37.446 19.3678 36.679 19.6993 36.1456 19.2965C36.0297 19.2074 35.9458 19.0827 35.8798 18.9508C35.4232 18.0418 36.2205 16.7692 35.6247 15.8708C35.2519 15.3094 35.3447 14.559 31.1562 12.9674C26.966 11.3757 26.966 5.85042 26.966 5.85042L27.3388 5.00912C27.3388 5.00912 26.2221 3.97894 26.3149 3.51017C26.4076 3.04141 27.6188 2.94873 27.6188 2.94873C27.6188 2.94873 26.5949 1.63691 25.7565 2.0112C24.9181 2.3855 24.8253 3.51017 24.8253 3.51017V4.72752C24.8253 4.72752 23.5231 3.69733 22.7775 2.66712C22.0319 1.63692 21.288 0.981003 21.1952 0.701172C21.4057 1.33391 21.5466 2.2536 21.7554 2.96833C22.1139 4.19459 22.8649 5.27648 23.4304 6.41363C23.5231 6.60077 21.3825 5.66505 20.6369 4.91468C19.8912 4.1643 19.4257 3.97894 19.2401 3.60286C19.0546 3.22856 19.9858 5.66326 20.4496 6.60078C20.9152 7.5383 22.592 9.50426 22.592 9.50426C22.592 9.50426 20.3568 8.94281 19.2384 8.47405C18.1217 8.00528 17.0032 7.2567 17.0032 7.2567C17.9451 9.32246 19.811 10.4881 21.6894 11.5682C21.7875 11.6253 23.0433 12.4772 23.1467 12.4077C21.5538 13.4753 19.629 13.3078 17.8166 13.0957C16.9693 12.9959 16.0328 12.9175 15.2336 12.5949C14.3025 12.2188 13.5586 11.8463 13.5586 11.8463C13.5693 11.857 13.5818 11.8677 13.5943 11.8784C14.5076 12.7071 15.5708 13.3934 16.6625 13.9548C18.6229 14.9636 20.7511 15.2844 22.9006 15.6445C22.9737 15.657 24.2206 15.9475 24.2634 15.8726C23.5089 17.1381 17.4599 19.0399 15.7349 19.1094C17.1477 19.293 18.5534 19.4873 19.9751 19.5924C21.6109 19.7136 23.4054 19.8615 25.0109 19.432C27.8044 18.6834 26.7804 18.9632 26.7804 18.9632C26.6395 19.0024 26.2756 19.8241 26.1846 19.9542C25.7137 20.6298 25.1643 21.2554 24.506 21.7509C22.9862 22.8916 21.3807 23.9645 19.613 24.6757C19.5559 24.6989 19.5095 24.7185 19.4845 24.7702C19.7503 24.9484 20.2944 24.8486 20.5959 24.8361C23.2449 24.7167 25.3926 23.7025 27.6438 22.4032C27.9631 22.2178 28.377 22.0396 28.6428 21.7722L28.9228 21.4906C28.4822 22.3212 28.1593 23.2338 27.915 24.1392C27.4512 25.8521 27.5279 27.5899 27.5939 29.3491C27.6099 29.7715 27.6099 30.1975 27.6153 30.6217C27.6153 30.7393 27.6367 30.8534 27.6367 30.971C27.9738 30.5022 28.1897 29.8535 28.4501 29.3259C28.7213 28.7769 28.9942 28.2297 29.2778 27.6879C29.6917 26.9001 30.093 25.9982 30.6906 25.3298C31.5272 24.3941 32.0874 23.7382 32.0874 23.7382C32.0874 23.7382 32.1801 29.2635 32.7385 31.0423L33.2968 32.8211C33.3414 31.1813 33.3414 29.4293 33.8462 27.8537C34.1334 26.9625 34.6525 26.1141 35.1591 25.328C35.4232 26.0018 35.6658 26.688 35.8763 27.3795C36.2491 28.6058 36.1296 29.6217 35.8317 30.8551C35.6586 31.5717 35.4909 32.3434 35.1609 33.0065C34.7881 33.7551 36.4649 31.9763 36.7432 31.5075C37.0233 31.0387 38.2327 28.6985 38.1399 27.6683C38.0472 26.6381 38.7911 27.5738 38.9766 28.3242C39.1621 29.0728 39.5349 30.3846 38.511 32.3505C37.4871 34.3165 34.0425 38.063 34.0425 38.063L36.5559 36.3769L34.9736 40.9647L37.8599 37.5943L36.4631 42.9324C36.4631 42.9324 38.6751 39.275 38.791 38.8116C38.8713 38.489 39.7151 44.3048 39.9434 45.9018C40.1735 44.3048 41.0155 38.4872 41.0958 38.8116C41.2117 39.275 43.4237 42.9324 43.4237 42.9324L42.0269 37.5943L44.9132 40.9647L43.3309 36.3769L45.8444 38.063C45.8444 38.063 42.3998 34.3165 41.3758 32.3505C40.3519 30.3846 40.7247 29.0728 40.9103 28.3242C41.0958 27.5756 41.8414 26.6381 41.7469 27.6683C41.6523 28.6985 42.8636 31.0387 43.1436 31.5075C43.4237 31.9763 45.0987 33.7551 44.7259 33.0065C44.3959 32.3434 44.2282 31.5717 44.0552 30.8551C43.7573 29.6217 43.636 28.604 44.0088 27.3795C44.2193 26.6862 44.4619 26.0018 44.7259 25.328C45.2307 26.1141 45.7516 26.9589 46.0388 27.8519C46.5454 29.4275 46.5436 31.1778 46.5882 32.8193L47.1466 31.0405C47.7049 29.2617 47.7977 23.7364 47.7977 23.7364C47.7977 23.7364 48.356 24.3923 49.1944 25.328C49.792 25.9964 50.1952 26.8983 50.6072 27.6861C50.8909 28.228 51.1656 28.7769 51.4349 29.3241C51.6936 29.8517 51.9112 30.5005 52.2484 30.9692C52.2484 30.8516 52.268 30.7357 52.2698 30.6199C52.2751 30.1957 52.2751 29.7715 52.2912 29.3473C52.3554 27.5881 52.4321 25.8503 51.9701 24.1374C51.7257 23.232 51.4028 22.3176 50.9622 21.4888L51.2423 21.7705C51.5081 22.0378 51.9201 22.2161 52.2412 22.4014C54.4924 23.7008 56.6402 24.7149 59.2892 24.8343C59.5906 24.8486 60.1347 24.9466 60.4005 24.7684C60.3755 24.7149 60.3274 24.6971 60.2721 24.6739C58.5043 23.9628 56.8988 22.8898 55.379 21.7491C54.7208 21.2536 54.1696 20.6298 53.7004 19.9525C53.6094 19.8206 53.2455 18.9989 53.1046 18.9615C53.1046 18.9615 52.0807 18.6798 54.8742 19.4302C56.4778 19.8598 58.2742 19.7118 59.91 19.5906C61.3317 19.4855 62.7373 19.2894 64.1502 19.1076C62.4252 19.0399 56.3744 17.1363 55.6198 15.8708C55.6662 15.9457 56.9113 15.6534 56.9845 15.6409L56.9827 15.6463Z" fill="white"/>
<path d="M6.71617 53.5854L7.24241 58.4352C7.26381 58.6277 7.27451 58.7988 7.27451 58.9378C7.27451 59.4083 7.13537 59.5688 6.39508 59.5901V59.7719C6.80358 59.7612 7.47787 59.7505 8.17535 59.7505C8.87283 59.7505 9.59172 59.7612 10.0644 59.7719V59.5901C9.22782 59.5581 9.13149 59.2907 9.03517 58.4334L8.55175 54.0648C8.54104 53.9579 8.53033 53.7975 8.53033 53.6905C8.53033 53.0703 8.69088 52.7797 9.55962 52.7797V52.5979C9.05479 52.6086 8.59455 52.6086 8.18605 52.6086C7.53138 52.6086 7.00515 52.5979 6.67336 52.5872L5.17136 56.9451L3.61585 52.5872C3.26265 52.5979 2.73642 52.6086 2.18878 52.6086C1.64114 52.6086 1.07209 52.6086 0.654673 52.5979V52.7797C1.48059 52.7797 1.67325 53.0685 1.67325 53.6905C1.67325 53.8082 1.66254 53.9365 1.65184 54.0648L1.08279 58.4655C0.975763 59.2586 0.772404 59.5794 0 59.6008V59.7719C0.397797 59.7612 0.793812 59.7505 1.24512 59.7505C1.69644 59.7505 2.17807 59.7612 2.73642 59.7719V59.5901C1.77136 59.5581 1.5234 59.4404 1.5234 58.8415C1.5234 58.7132 1.5341 58.5314 1.55551 58.3603L2.08175 53.5533L4.43107 59.7951H4.50599L6.71617 53.5854ZM15.4035 59.3887V59.2818L15.3286 59.2711C15.1145 59.239 15.061 59.1214 15.061 58.8113V56.831C15.061 55.6957 15.0824 55.161 15.1038 54.8081L15.061 54.7867C14.5133 54.9578 13.7409 55.1289 13.0542 55.1823V55.3107L13.1612 55.3428C13.4609 55.4283 13.493 55.5994 13.493 55.7812V59.0358C13.3753 59.0572 13.1826 59.0572 13.1059 59.0572C12.4191 59.0572 12.2586 58.6508 12.2586 57.6545V56.8293C12.2586 55.6939 12.28 55.1592 12.3014 54.8063L12.2586 54.7849C11.7109 54.956 10.9278 55.1271 10.241 55.1806V55.3089L10.3481 55.341C10.6478 55.4265 10.6799 55.5977 10.6799 55.7795V58.478C10.6799 59.2711 11.1098 59.8807 11.8394 59.8807C12.3656 59.8807 13.0524 59.4957 13.4912 59.1303C13.4805 59.4297 13.4591 59.665 13.427 59.8593L13.4698 59.8807C13.9532 59.7203 14.8434 59.5278 15.4017 59.3887H15.4035ZM18.2558 59.6133L18.1916 59.6026C17.8919 59.5491 17.8919 59.4957 17.8919 58.6597V53.6816C17.8919 52.8029 17.9241 52.0757 17.9455 51.8511L17.8919 51.8297C17.4192 52.0115 16.4542 52.311 15.9172 52.4286V52.4821L16.1955 52.8778C16.3239 53.0596 16.3239 53.1986 16.3239 53.3376V58.6597C16.3239 59.4957 16.3239 59.5491 16.0243 59.6026L15.96 59.6133V59.7737C16.1955 59.763 16.6575 59.7523 17.1088 59.7523C17.5602 59.7523 18.0204 59.763 18.2576 59.7737V59.6133H18.2558ZM20.5338 59.8807C21.3597 59.8807 22.0465 59.3139 22.4211 58.6811L22.3783 58.6277C22.0679 58.8095 21.7879 58.8522 21.5096 58.8522C21.069 58.8522 20.6837 58.7881 20.6837 58.3496V55.4907L21.993 55.5121C22.1214 55.4052 22.3141 55.0308 22.3141 54.849L20.6837 54.9025C20.6837 54.5817 20.7265 54.0024 20.7479 53.8206L20.6837 53.7886C20.1681 54.2912 19.278 54.956 18.6875 55.3089V55.3517L19.1281 55.8971C19.1174 56.4211 19.1174 57.4602 19.1174 58.7881C19.1174 59.4404 19.7186 59.8807 20.5338 59.8807ZM24.8543 53.1665C24.8543 52.6639 24.4565 52.2985 23.9963 52.2985C23.536 52.2985 23.1382 52.6621 23.1382 53.1665C23.1382 53.6709 23.536 54.0345 23.9963 54.0345C24.4565 54.0345 24.8543 53.6709 24.8543 53.1665ZM25.0897 59.6115L25.0255 59.6008C24.7258 59.5474 24.7258 59.4939 24.7258 58.658V56.3552C24.7258 55.4765 24.7473 54.9524 24.7687 54.7279L24.7151 54.7065C24.2638 54.9204 23.3416 55.2733 22.8046 55.4355V55.4889L23.0294 55.8739C23.1579 56.0771 23.1578 56.1947 23.1578 56.3338V58.658C23.1578 59.4939 23.1578 59.5474 22.8582 59.6008L22.7939 59.6115V59.7719C23.0294 59.7612 23.4914 59.7505 23.9427 59.7505C24.3941 59.7505 24.8543 59.7612 25.0915 59.7719V59.6115H25.0897ZM25.5964 57.5244C25.5964 58.9378 26.5721 59.8807 27.9243 59.8807C28.8037 59.8807 29.7046 59.2604 30.006 58.3389L29.9525 58.3068C29.6528 58.6811 29.255 58.8309 28.8697 58.8309C27.8083 58.8309 27.1323 58.027 27.1323 56.7437C27.1323 55.8222 27.5943 55.095 28.1936 55.095C28.793 55.095 28.5361 56.1876 29.3192 56.1876C29.6082 56.1876 29.899 55.9416 29.899 55.6315C29.899 55.0219 29.0838 54.7421 28.4291 54.7421C26.9913 54.7421 25.5964 55.8882 25.5964 57.5262V57.5244ZM33.1688 54.7403C31.7417 54.7403 30.4217 55.8115 30.4217 57.3426C30.4217 58.8736 31.7417 59.8807 33.1688 59.8807C34.5958 59.8807 35.9266 58.8095 35.9266 57.2784C35.9266 55.7474 34.6066 54.7403 33.1688 54.7403ZM33.1688 59.6436C32.5141 59.6436 32.1716 58.551 32.1716 57.2125C32.1716 55.8739 32.5141 54.9738 33.1688 54.9738C33.8234 54.9738 34.1766 56.0664 34.1766 57.405C34.1766 58.7435 33.8341 59.6436 33.1688 59.6436ZM38.556 53.1647C38.556 52.6621 38.1582 52.2967 37.6979 52.2967C37.2377 52.2967 36.8399 52.6603 36.8399 53.1647C36.8399 53.6691 37.2377 54.0327 37.6979 54.0327C38.1582 54.0327 38.556 53.6691 38.556 53.1647ZM38.7914 59.6097L38.7272 59.599C38.4275 59.5456 38.4275 59.4921 38.4275 58.6562V56.3534C38.4275 55.4747 38.4489 54.9507 38.4704 54.7261L38.4168 54.7047C37.9655 54.9186 37.0433 55.2715 36.5063 55.4337V55.4871L36.7311 55.8721C36.8595 56.0753 36.8595 56.193 36.8595 56.332V58.6562C36.8595 59.4921 36.8595 59.5456 36.5599 59.599L36.4956 59.6097V59.7702C36.7311 59.7595 37.1931 59.7488 37.6444 59.7488C38.0957 59.7488 38.556 59.7595 38.7932 59.7702V59.6097H38.7914ZM44.5336 59.6097L44.4694 59.599C44.1697 59.5456 44.1697 59.4921 44.1697 58.6562V56.1395C44.1697 55.3249 43.6435 54.7368 42.9567 54.7368C42.3984 54.7368 41.7223 55.2287 41.2728 55.5834C41.2835 55.3267 41.2942 54.9204 41.3156 54.7261L41.2621 54.7047C40.8108 54.9186 39.8885 55.2715 39.3516 55.4337V55.4871L39.5763 55.8721C39.7048 56.0753 39.7048 56.193 39.7048 56.332V58.6562C39.7048 59.4921 39.7048 59.5456 39.4051 59.599L39.3409 59.6097V59.7702C39.5763 59.7595 40.0383 59.7488 40.4897 59.7488C40.941 59.7488 41.4012 59.7595 41.6385 59.7702V59.6097L41.5742 59.599C41.2746 59.5456 41.2746 59.4921 41.2746 58.6562V55.7224C41.4351 55.6582 41.6064 55.6476 41.7152 55.6476C42.3698 55.6476 42.6053 56.2678 42.6053 57.2214V58.6562C42.6053 59.4921 42.6053 59.5456 42.3056 59.599L42.2414 59.6097V59.7702C42.4769 59.7595 42.9389 59.7488 43.3902 59.7488C43.8415 59.7488 44.3017 59.7595 44.539 59.7702V59.6097H44.5336ZM51.8331 58.9253C50.3739 58.9253 49.2376 57.683 49.2376 55.7884C49.2376 53.8937 50.2562 52.8867 51.5334 52.8867C52.1774 52.8867 52.6501 53.154 52.9926 53.5515C53.2923 53.883 53.5617 54.3981 53.7543 54.9221L53.8613 54.858L53.6152 53.0275C52.9177 52.6853 52.2951 52.4928 51.4692 52.4928C49.3126 52.4928 47.3271 53.9597 47.3271 56.3266C47.3271 58.5546 49.1395 59.8824 51.0928 59.8824C52.09 59.8824 53.0568 59.5082 53.7436 58.8326L54.1949 57.5583L54.0772 57.5048C53.5831 58.5118 52.8214 58.9289 51.8349 58.9289L51.8331 58.9253ZM54.6659 58.69C54.6659 59.3852 55.1386 59.8361 55.804 59.8361C56.373 59.8361 56.7476 59.3656 56.9956 59.0537C57.1882 59.5242 57.5646 59.8468 58.1979 59.8468C58.8311 59.8468 59.27 59.2907 59.3253 58.8077L59.2932 58.7863C59.2075 58.8505 59.1005 58.9146 58.94 58.9146C58.6617 58.9146 58.5314 58.7756 58.5314 58.4334C58.5314 57.7811 58.585 56.5815 58.585 55.8311C58.585 55.0059 57.6413 54.7385 57.0295 54.7385C55.936 54.7385 54.7551 55.9702 54.7551 56.6867C54.7551 56.7722 54.7872 56.8043 54.83 56.8043C54.9905 56.8043 55.6345 56.676 55.7843 56.6332C55.7308 56.4407 55.688 56.1734 55.688 55.9381C55.688 55.6387 55.8164 55.4889 56.1286 55.4889C56.7619 55.4889 57.0188 55.8953 57.0188 56.25V57.118L55.581 57.7276C55.0119 57.9735 54.6694 58.134 54.6694 58.6918L54.6659 58.69ZM57.0045 57.298L56.9938 58.936C56.9296 58.9574 56.876 58.9681 56.8011 58.9681C56.4479 58.9681 56.2 58.7435 56.2 58.2837C56.2 57.9628 56.3498 57.7917 56.5532 57.642L57.0045 57.2998V57.298ZM62.3828 62.2334L61.9207 62.2013C61.6318 62.1799 61.6211 62.1264 61.6211 61.2905V59.706C61.9529 59.8236 62.2008 59.8771 62.5433 59.8771C63.8848 59.8771 65.2904 58.8487 65.2904 56.9647C65.2904 55.6369 64.5073 54.7368 63.3585 54.7368C62.5968 54.7368 61.9743 55.3035 61.6211 55.6048C61.6211 55.3802 61.6425 54.931 61.6639 54.7261L61.6104 54.7047C61.159 54.9186 60.2368 55.2822 59.6999 55.4337V55.4871L59.9246 55.8721C60.0531 56.0753 60.0531 56.193 60.0531 56.332V61.2994C60.0531 62.1354 60.0531 62.1888 59.7534 62.2423L59.6892 62.253V62.4134C59.9889 62.4027 60.3759 62.392 60.8915 62.392C61.407 62.392 62.0403 62.4027 62.3828 62.4134V62.2316V62.2334ZM61.6211 58.1215V55.701C61.7816 55.6582 61.9743 55.6476 62.1366 55.6476C63.016 55.6476 63.5958 56.4407 63.5958 57.5743C63.5958 58.8059 63.1445 59.5545 62.4577 59.5545C61.9315 59.5545 61.6211 59.1802 61.6211 58.1197V58.1215ZM67.918 53.1647C67.918 52.6621 67.5202 52.2967 67.06 52.2967C66.5998 52.2967 66.202 52.6603 66.202 53.1647C66.202 53.6691 66.5998 54.0327 67.06 54.0327C67.5202 54.0327 67.918 53.6691 67.918 53.1647ZM68.1535 59.6097L68.0893 59.599C67.7896 59.5456 67.7896 59.4921 67.7896 58.6562V56.3534C67.7896 55.4747 67.811 54.9507 67.8324 54.7261L67.7789 54.7047C67.3276 54.9186 66.4053 55.2715 65.8684 55.4337V55.4871L66.0932 55.8721C66.2216 56.0753 66.2216 56.193 66.2216 56.332V58.6562C66.2216 59.4921 66.2216 59.5456 65.9219 59.599L65.8577 59.6097V59.7702C66.0932 59.7595 66.5552 59.7488 67.0065 59.7488C67.4578 59.7488 67.918 59.7595 68.1553 59.7702V59.6097H68.1535ZM70.4297 59.8771C71.2556 59.8771 71.9424 59.3103 72.3188 58.6776L72.276 58.6241C71.9656 58.8059 71.6855 58.8487 71.4072 58.8487C70.9666 58.8487 70.5813 58.7845 70.5813 58.346V55.4871L71.8906 55.5085C72.0191 55.4016 72.2117 55.0273 72.2117 54.8455L70.5813 54.899C70.5813 54.5781 70.6241 53.9989 70.6455 53.8171L70.5813 53.785C70.0658 54.2876 69.1756 54.9524 68.5852 55.3053V55.3481L69.0258 55.8935C69.0151 56.4175 69.0151 57.4567 69.0151 58.7845C69.0151 59.4369 69.6162 59.8771 70.4315 59.8771H70.4297ZM72.6987 58.6883C72.6987 59.3834 73.1715 59.8343 73.8368 59.8343C74.4059 59.8343 74.7805 59.3638 75.0284 59.0519C75.2211 59.5224 75.5975 59.845 76.2307 59.845C76.864 59.845 77.3028 59.2889 77.3581 58.8059L77.326 58.7845C77.2404 58.8487 77.1334 58.9128 76.9728 58.9128C76.6945 58.9128 76.5643 58.7738 76.5643 58.4316C76.5643 57.7793 76.6178 56.5797 76.6178 55.8293C76.6178 55.0041 75.6742 54.7368 75.0623 54.7368C73.9688 54.7368 72.7879 55.9684 72.7879 56.6849C72.7879 56.7704 72.82 56.8025 72.8628 56.8025C73.0234 56.8025 73.6674 56.6742 73.8172 56.6314C73.7637 56.4389 73.7209 56.1716 73.7209 55.9363C73.7209 55.6369 73.8493 55.4871 74.1615 55.4871C74.7948 55.4871 75.0516 55.8935 75.0516 56.2482V57.1162L73.6138 57.7258C73.0448 57.9717 72.7023 58.1322 72.7023 58.69L72.6987 58.6883ZM75.0373 57.2962L75.0266 58.9342C74.9624 58.9556 74.9089 58.9663 74.834 58.9663C74.4808 58.9663 74.2328 58.7417 74.2328 58.2819C74.2328 57.9611 74.3827 57.79 74.586 57.6402L75.0373 57.298V57.2962ZM79.9982 59.6097L79.934 59.599C79.6343 59.5456 79.6343 59.4921 79.6343 58.6562V53.678C79.6343 52.7993 79.6664 52.0721 79.6878 51.8476L79.6343 51.8262C79.1616 52.008 78.1965 52.3074 77.6596 52.425V52.4785L77.9379 52.8742C78.0663 53.056 78.0663 53.195 78.0663 53.334V58.6562C78.0663 59.4921 78.0663 59.5456 77.7666 59.599L77.7024 59.6097V59.7702C77.9379 59.7595 78.3999 59.7488 78.8512 59.7488C79.3025 59.7488 79.7628 59.7595 80 59.7702V59.6097H79.9982Z" fill="white"/>
</svg>