<?xml version="1.0" encoding="utf-8"?>
<svg xmlns="http://www.w3.org/2000/svg" width="90" height="71" viewBox="0 0 90 71" fill="none">
<g clip-path="url(#clip0_1099_5653)">
<path d="M16.3121 70.5689V65.9378C16.3121 64.1662 15.2312 63.0062 13.3757 63.0062C12.448 63.0062 11.4392 63.3119 10.7456 64.3191C10.2052 63.4738 9.43055 63.0062 8.26862 63.0062C7.494 63.0062 6.71938 63.24 6.10689 64.0853V63.159H4.4856V70.5689H6.10689V66.4773C6.10689 65.1644 6.80045 64.5439 7.88131 64.5439C8.96218 64.5439 9.50261 65.2363 9.50261 66.4773V70.5689H11.1239V66.4773C11.1239 65.1644 11.8985 64.5439 12.8983 64.5439C13.9792 64.5439 14.5196 65.2363 14.5196 66.4773V70.5689H16.3121ZM40.3613 63.159H37.7312V60.9199H36.1099V63.159H34.6417V64.6248H36.1099V68.024C36.1099 69.7236 36.8034 70.7218 38.6589 70.7218C39.3525 70.7218 40.1271 70.488 40.6675 70.1823L40.1992 68.7884C39.7308 69.0942 39.1904 69.1751 38.803 69.1751C38.0284 69.1751 37.7222 68.7075 37.7222 67.9431V64.6248H40.3523V63.159H40.3613ZM54.1243 62.9972C53.1966 62.9972 52.5751 63.4648 52.1878 64.0763V63.15H50.5665V70.56H52.1878V66.3874C52.1878 65.1554 52.7282 64.454 53.737 64.454C54.0432 64.454 54.4305 64.5349 54.7458 64.6068L55.2142 63.0601C54.8899 62.9972 54.4305 62.9972 54.1243 62.9972ZM33.3267 63.7705C32.552 63.231 31.4712 62.9972 30.3093 62.9972C28.4538 62.9972 27.2198 63.9234 27.2198 65.3892C27.2198 66.6212 28.1475 67.3226 29.7688 67.5474L30.5434 67.6284C31.3901 67.7812 31.8585 68.015 31.8585 68.4017C31.8585 68.9413 31.237 69.328 30.1561 69.328C29.0753 69.328 28.2196 68.9413 27.6791 68.5546L26.9045 69.7866C27.7512 70.4071 28.9131 70.7128 30.0751 70.7128C32.2368 70.7128 33.4798 69.7057 33.4798 68.3208C33.4798 67.0079 32.471 66.3154 30.9307 66.0816L30.1561 66.0007C29.4626 65.9198 28.9221 65.7669 28.9221 65.3083C28.9221 64.7687 29.4626 64.463 30.3183 64.463C31.246 64.463 32.1737 64.8496 32.6421 65.0835L33.3267 63.7705ZM76.4622 62.9972C75.5344 62.9972 74.9129 63.4648 74.5256 64.0763V63.15H72.9043V70.56H74.5256V66.3874C74.5256 65.1554 75.066 64.454 76.0749 64.454C76.3811 64.454 76.7684 64.5349 77.0837 64.6068L77.552 63.0781C77.2368 62.9972 76.7774 62.9972 76.4622 62.9972ZM55.7456 66.864C55.7456 69.1032 57.2948 70.7218 59.6908 70.7218C60.7716 70.7218 61.5462 70.488 62.3209 69.8765L61.5462 68.5636C60.9247 69.0312 60.3122 69.256 59.6097 69.256C58.2946 69.256 57.3669 68.3298 57.3669 66.864C57.3669 65.4701 58.2946 64.5439 59.6097 64.472C60.3032 64.472 60.9247 64.7058 61.5462 65.1644L62.3209 63.8515C61.5462 63.231 60.7716 63.0062 59.6908 63.0062C57.2948 62.9972 55.7456 64.6248 55.7456 66.864ZM70.7426 66.864V63.159H69.1213V64.0853C68.5809 63.3928 67.8062 63.0062 66.7974 63.0062C64.7078 63.0062 63.0865 64.6248 63.0865 66.864C63.0865 69.1032 64.7078 70.7218 66.7974 70.7218C67.8783 70.7218 68.6529 70.3351 69.1213 69.6427V70.5689H70.7426V66.864ZM64.7888 66.864C64.7888 65.5511 65.6355 64.472 67.0316 64.472C68.3467 64.472 69.2744 65.4791 69.2744 66.864C69.2744 68.1769 68.3467 69.256 67.0316 69.256C65.6445 69.1751 64.7888 68.1679 64.7888 66.864ZM45.3873 62.9972C43.2256 62.9972 41.6763 64.5439 41.6763 66.855C41.6763 69.1751 43.2256 70.7128 45.4684 70.7128C46.5492 70.7128 47.6301 70.4071 48.4858 69.7057L47.7112 68.5456C47.0897 69.0132 46.3151 69.319 45.5494 69.319C44.5406 69.319 43.5408 68.8514 43.3066 67.5474H48.792C48.792 67.3136 48.792 67.1607 48.792 66.9269C48.8641 64.5439 47.468 62.9972 45.3873 62.9972ZM45.3873 64.391C46.3961 64.391 47.0897 65.0115 47.2428 66.1626H43.3787C43.5318 65.1644 44.2254 64.391 45.3873 64.391ZM85.6675 66.864V60.2274H84.0462V64.0853C83.5058 63.3928 82.7312 63.0062 81.7224 63.0062C79.6327 63.0062 78.0114 64.6248 78.0114 66.864C78.0114 69.1032 79.6327 70.7218 81.7224 70.7218C82.8032 70.7218 83.5779 70.3351 84.0462 69.6427V70.5689H85.6675V66.864ZM79.7138 66.864C79.7138 65.5511 80.5604 64.472 81.9566 64.472C83.2716 64.472 84.1994 65.4791 84.1994 66.864C84.1994 68.1769 83.2716 69.256 81.9566 69.256C80.5604 69.1751 79.7138 68.1679 79.7138 66.864ZM25.4364 66.864V63.159H23.8151V64.0853C23.2746 63.3928 22.5 63.0062 21.4912 63.0062C19.4015 63.0062 17.7802 64.6248 17.7802 66.864C17.7802 69.1032 19.4015 70.7218 21.4912 70.7218C22.5721 70.7218 23.3467 70.3351 23.8151 69.6427V70.5689H25.4364V66.864ZM19.4105 66.864C19.4105 65.5511 20.2572 64.472 21.6533 64.472C22.9684 64.472 23.8961 65.4791 23.8961 66.864C23.8961 68.1769 22.9684 69.256 21.6533 69.256C20.2572 69.1751 19.4105 68.1679 19.4105 66.864Z" fill="white"/>
<path d="M57.1416 6.88174H32.7861V50.5678H57.1416V6.88174Z" fill="#FF5A00"/>
<path d="M34.4075 28.7255C34.4075 19.8498 38.5869 11.9723 45 6.8825C40.2802 3.17754 34.3265 0.938385 27.8323 0.938385C12.448 0.938385 0 13.3662 0 28.7255C0 44.0849 12.448 56.5127 27.8323 56.5127C34.3265 56.5127 40.2802 54.2735 45 50.5686C38.5779 45.5507 34.4075 37.6012 34.4075 28.7255Z" fill="#EB001B"/>
<path d="M90 28.7255C90 44.0849 77.552 56.5127 62.1677 56.5127C55.6735 56.5127 49.7198 54.2735 45 50.5686C51.4942 45.4698 55.5925 37.6012 55.5925 28.7255C55.5925 19.8498 51.4131 11.9723 45 6.8825C49.7108 3.17754 55.6645 0.938385 62.1587 0.938385C77.552 0.938385 90 13.4471 90 28.7255Z" fill="#F79E1B"/>
</g>
<defs>
<clipPath id="clip0_1099_5653">
<rect width="90" height="69.7826" fill="white" transform="translate(0 0.938385)"/>
</clipPath>
</defs>
</svg>