<?xml version="1.0" encoding="utf-8"?>
<svg xmlns="http://www.w3.org/2000/svg" width="190" height="32" viewBox="0 0 190 32" fill="none">
<g clip-path="url(#clip0_1099_5641)">
<path d="M22.9369 8.66869H23.9866L26.9783 5.57188L27.1253 4.25709C25.4114 2.69125 23.3402 1.60351 21.1074 1.09664C18.8745 0.589759 16.5536 0.680472 14.364 1.36021C12.1745 2.03995 10.1884 3.28626 8.59352 4.98143C6.99863 6.6766 5.84756 8.76465 5.24902 11.0483C5.58231 10.9069 5.95151 10.884 6.29875 10.9832L12.2822 9.96175C12.2822 9.96175 12.5866 9.44018 12.7441 9.47278C14.0261 8.01528 15.7979 7.12017 17.6967 6.97069C19.5954 6.82121 21.4776 7.42866 22.9579 8.66869H22.9369Z" fill="#EA4335"/>
<path d="M31.2399 11.0481C30.5522 8.42678 29.1404 6.07028 27.1775 4.26767L22.9786 8.61407C23.8537 9.35423 24.555 10.2904 25.0296 11.352C25.5042 12.4136 25.7397 13.5729 25.7184 14.7425V15.514C26.2091 15.514 26.6951 15.614 27.1485 15.8084C27.6018 16.0028 28.0138 16.2878 28.3608 16.647C28.7078 17.0062 28.9831 17.4326 29.1709 17.902C29.3587 18.3713 29.4554 18.8743 29.4554 19.3823C29.4554 19.8903 29.3587 20.3933 29.1709 20.8626C28.9831 21.332 28.7078 21.7584 28.3608 22.1176C28.0138 22.4768 27.6018 22.7617 27.1485 22.9561C26.6951 23.1505 26.2091 23.2506 25.7184 23.2506H18.2443L17.499 24.0329V28.6727L18.2443 29.4442H25.7184C27.8055 29.461 29.8424 28.782 31.5278 27.5076C33.2131 26.2333 34.4575 24.4312 35.0768 22.368C35.696 20.3048 35.6573 18.09 34.9663 16.0514C34.2753 14.0128 32.9688 12.2585 31.2399 11.0481Z" fill="#4285F4"/>
<path d="M10.7596 29.4028H18.2336V23.2091H10.7596C10.2271 23.209 9.70082 23.0904 9.21646 22.8614L8.16674 23.1983L5.15403 26.2951L4.8916 27.3817C6.58106 28.7022 8.64256 29.4123 10.7596 29.4028Z" fill="#34A853"/>
<path d="M10.76 9.3107C8.73493 9.32322 6.76417 9.99015 5.12301 11.2183C3.48185 12.4465 2.25225 14.1746 1.60595 16.1613C0.959656 18.148 0.928931 20.294 1.51807 22.2996C2.10721 24.3052 3.2868 26.0703 4.89208 27.3483L9.22744 22.8606C8.6765 22.603 8.19418 22.2108 7.82186 21.7178C7.44953 21.2247 7.19832 20.6456 7.08978 20.0299C6.98123 19.4143 7.01859 18.7806 7.19866 18.1832C7.37872 17.5859 7.69611 17.0426 8.12359 16.6001C8.55108 16.1576 9.07589 15.8291 9.65301 15.6427C10.2301 15.4563 10.8423 15.4176 11.437 15.53C12.0318 15.6423 12.5913 15.9024 13.0676 16.2878C13.5439 16.6732 13.9227 17.1724 14.1716 17.7427L18.507 13.2551C17.597 12.0237 16.4242 11.0269 15.0803 10.3426C13.7364 9.65835 12.2577 9.30518 10.76 9.3107Z" fill="#FBBC05"/>
<path d="M55.415 25.0767C54.1282 25.0936 52.8513 24.8416 51.6608 24.3356C50.4704 23.8296 49.3908 23.0801 48.4868 22.132C47.5544 21.2241 46.8144 20.1255 46.3139 18.9059C45.8133 17.6863 45.5631 16.3723 45.5791 15.0473C45.5637 13.7224 45.8142 12.4087 46.3147 11.1892C46.8153 9.96967 47.5549 8.871 48.4868 7.9627C49.3864 7.00475 50.464 6.2452 51.6546 5.72979C52.8453 5.21438 54.1244 4.95378 55.415 4.96368C56.6447 4.94672 57.8654 5.18294 59.0061 5.65861C60.1468 6.13429 61.1848 6.83993 62.0598 7.73452L60.1913 9.70126C58.9117 8.4212 57.1943 7.71794 55.415 7.74538C54.492 7.73365 53.5767 7.92079 52.7274 8.29492C51.878 8.66905 51.1131 9.22199 50.4813 9.91859C49.8247 10.5929 49.3067 11.3978 48.9585 12.2848C48.6103 13.1719 48.4392 14.1226 48.4553 15.0799C48.4476 16.0263 48.6229 16.9647 48.9708 17.8399C49.3188 18.7151 49.8323 19.5094 50.4813 20.1761C51.7812 21.5171 53.5355 22.2799 55.3706 22.3022C57.2056 22.3246 58.9767 21.6046 60.3067 20.2956C61.1301 19.3622 61.6353 18.1752 61.7448 16.9163H55.4465V14.1346H64.3587C64.4462 14.6948 64.4814 15.2625 64.4636 15.8297C64.5191 17.0037 64.3439 18.1771 63.9488 19.279C63.5536 20.3809 62.9467 21.3884 62.1647 22.2406C61.2953 23.1777 60.2448 23.9145 59.0818 24.4032C57.9188 24.8918 56.6694 25.1213 55.415 25.0767ZM76.1366 23.2295C74.9405 24.4162 73.3478 25.0788 71.691 25.0788C70.0342 25.0788 68.4414 24.4162 67.2454 23.2295C66.6501 22.632 66.1812 21.9129 65.8686 21.1179C65.556 20.323 65.4064 19.4694 65.4294 18.6114C65.4071 17.7535 65.5569 16.9001 65.8695 16.1052C66.1821 15.3103 66.6506 14.5912 67.2454 13.9933C68.4427 12.8091 70.0349 12.1482 71.691 12.1482C73.347 12.1482 74.9393 12.8091 76.1366 13.9933C76.7313 14.5912 77.1998 15.3103 77.5124 16.1052C77.825 16.9001 77.9749 17.7535 77.9526 18.6114C77.9742 19.4702 77.8229 20.3242 77.5085 21.1193C77.194 21.9143 76.7233 22.6329 76.1261 23.2295H76.1366ZM69.2084 21.4148C69.5265 21.7665 69.911 22.0468 70.338 22.2385C70.765 22.4302 71.2255 22.529 71.691 22.529C72.1564 22.529 72.6169 22.4302 73.0439 22.2385C73.471 22.0468 73.8554 21.7665 74.1736 21.4148C74.5205 21.0437 74.792 20.6045 74.9723 20.123C75.1526 19.6415 75.2379 19.1276 75.2233 18.6114C75.2388 18.0935 75.1538 17.5777 74.9736 17.0943C74.7933 16.6109 74.5213 16.1699 74.1736 15.7971C73.8512 15.449 73.4642 15.172 73.0357 14.9828C72.6073 14.7936 72.1463 14.6961 71.6805 14.6961C71.2147 14.6961 70.7537 14.7936 70.3252 14.9828C69.8968 15.172 69.5097 15.449 69.1874 15.7971C68.8397 16.1699 68.5677 16.6109 68.3874 17.0943C68.2071 17.5777 68.1222 18.0935 68.1377 18.6114C68.1244 19.1283 68.2114 19.6427 68.3935 20.1243C68.5756 20.6058 68.8491 21.0446 69.1979 21.4148H69.2084ZM89.804 23.2295C88.6079 24.4162 87.0152 25.0788 85.3584 25.0788C83.7016 25.0788 82.1088 24.4162 80.9128 23.2295C80.3175 22.632 79.8487 21.9129 79.536 21.1179C79.2234 20.323 79.0738 19.4694 79.0968 18.6114C79.0745 17.7535 79.2243 16.9001 79.5369 16.1052C79.8495 15.3103 80.318 14.5912 80.9128 13.9933C82.1088 12.8066 83.7016 12.144 85.3584 12.144C87.0152 12.144 88.6079 12.8066 89.804 13.9933C90.3988 14.5912 90.8672 15.3103 91.1798 16.1052C91.4924 16.9001 91.6423 17.7535 91.62 18.6114C91.6429 19.4694 91.4933 20.323 91.1807 21.1179C90.8681 21.9129 90.3993 22.632 89.804 23.2295ZM82.8758 21.4148C83.1939 21.7665 83.5784 22.0468 84.0054 22.2385C84.4324 22.4302 84.8929 22.529 85.3584 22.529C85.8238 22.529 86.2843 22.4302 86.7113 22.2385C87.1384 22.0468 87.5228 21.7665 87.841 21.4148C88.1879 21.0437 88.4594 20.6045 88.6397 20.123C88.82 19.6415 88.9053 19.1276 88.8907 18.6114C88.9062 18.0935 88.8213 17.5777 88.641 17.0943C88.4607 16.6109 88.1887 16.1699 87.841 15.7971C87.5186 15.449 87.1316 15.172 86.7031 14.9828C86.2747 14.7936 85.8137 14.6961 85.3479 14.6961C84.8821 14.6961 84.4211 14.7936 83.9926 14.9828C83.5642 15.172 83.1771 15.449 82.8548 15.7971C82.5071 16.1699 82.2351 16.6109 82.0548 17.0943C81.8745 17.5777 81.7896 18.0935 81.8051 18.6114C81.7918 19.1283 81.8788 19.6427 82.0609 20.1243C82.243 20.6058 82.5165 21.0446 82.8653 21.4148H82.8758ZM98.7896 30.8791C97.5314 30.9205 96.2976 30.514 95.294 29.7273C94.403 29.0339 93.7012 28.1129 93.2575 27.0543L95.6509 26.022C95.9114 26.6546 96.3189 27.2108 96.8371 27.6411C97.3918 28.1039 98.0879 28.3467 98.8001 28.3256C99.2517 28.3541 99.704 28.2814 100.126 28.1127C100.548 27.9439 100.93 27.683 101.246 27.3477C101.878 26.558 102.191 25.5454 102.117 24.5225V23.588H102.023C101.623 24.0798 101.118 24.4684 100.547 24.7231C99.9769 24.9777 99.3572 25.0913 98.7371 25.0549C97.949 25.0574 97.1689 24.8907 96.4462 24.5652C95.7235 24.2398 95.0738 23.7628 94.5382 23.1643C93.9571 22.5705 93.4983 21.8609 93.1898 21.0783C92.8813 20.2957 92.7293 19.4565 92.7432 18.6114C92.7287 17.7613 92.8802 16.917 93.1887 16.1291C93.4971 15.3411 93.9561 14.6258 94.5382 14.0259C95.0725 13.4249 95.7216 12.9455 96.4445 12.6182C97.1674 12.2908 97.9481 12.1226 98.7371 12.1244C99.4048 12.1232 100.065 12.2753 100.669 12.5699C101.191 12.8061 101.657 13.1586 102.033 13.6022H102.128V12.5699H104.731V24.1422C104.8 25.0576 104.687 25.9779 104.4 26.8467C104.113 27.7155 103.658 28.5145 103.062 29.1949C102.495 29.7568 101.824 30.1953 101.09 30.4845C100.357 30.7738 99.5743 30.908 98.7896 30.8791ZM98.9785 22.534C99.4268 22.5442 99.8717 22.4522 100.282 22.2644C100.692 22.0766 101.057 21.7977 101.351 21.4474C101.999 20.6791 102.34 19.6848 102.306 18.6657C102.345 17.6295 102.004 16.6163 101.351 15.8297C101.057 15.4789 100.692 15.1996 100.282 15.0117C99.872 14.8239 99.4269 14.7321 98.9785 14.7431C98.5181 14.7333 98.0608 14.8251 97.6373 15.0125C97.2138 15.1999 96.8336 15.4784 96.5222 15.8297C95.8278 16.588 95.4506 17.5994 95.4725 18.644C95.4618 19.1564 95.549 19.6659 95.7292 20.1433C95.9093 20.6206 96.1788 21.0565 96.5222 21.4257C96.8321 21.7803 97.2115 22.0626 97.635 22.2537C98.0586 22.4448 98.5166 22.5404 98.9785 22.534ZM109.36 5.69171V24.6855H106.621V5.69171H109.36ZM116.876 25.0767C116.056 25.0985 115.24 24.9447 114.479 24.625C113.719 24.3053 113.03 23.8265 112.457 23.2186C111.875 22.6151 111.418 21.8956 111.113 21.1036C110.808 20.3116 110.662 19.4637 110.683 18.6114C110.652 17.757 110.787 16.9049 111.081 16.1059C111.375 15.3069 111.822 14.5773 112.394 13.9607C112.933 13.3723 113.585 12.9069 114.308 12.5945C115.031 12.282 115.81 12.1293 116.593 12.1461C117.313 12.1382 118.028 12.2824 118.692 12.5699C119.291 12.8201 119.837 13.1892 120.298 13.6565C120.695 14.0526 121.047 14.4937 121.348 14.9713C121.592 15.3745 121.799 15.8001 121.967 16.2426L122.251 16.9815L113.853 20.5564C114.107 21.1605 114.532 21.6707 115.072 22.0198C115.611 22.369 116.241 22.5407 116.876 22.5123C117.495 22.514 118.103 22.3498 118.643 22.0356C119.182 21.7214 119.633 21.2679 119.952 20.7194L122.051 22.1863C121.516 22.9798 120.83 23.6525 120.036 24.1639C119.092 24.7815 117.993 25.0989 116.876 25.0767ZM113.37 18.4158L118.955 16.0144C118.783 15.591 118.475 15.2418 118.084 15.0256C117.645 14.7693 117.149 14.6381 116.645 14.6453C115.791 14.6682 114.98 15.0392 114.388 15.6776C114.034 16.0282 113.76 16.4555 113.584 16.9289C113.408 17.4022 113.335 17.9099 113.37 18.4158Z" fill="white"/>
<path d="M136.601 25.0761C135.436 25.0969 134.278 24.8738 133.199 24.4201C132.119 23.9665 131.139 23.2916 130.317 22.4361C129.495 21.5806 128.849 20.5621 128.418 19.4416C127.986 18.3212 127.777 17.122 127.804 15.9161C127.777 14.7101 127.986 13.5109 128.418 12.3905C128.849 11.27 129.495 10.2515 130.317 9.39598C131.139 8.54046 132.119 7.86562 133.199 7.41196C134.278 6.9583 135.436 6.73518 136.601 6.756C137.78 6.71784 138.953 6.95602 140.03 7.45275C141.108 7.94949 142.064 8.69194 142.826 9.62463L141.314 11.1459C140.755 10.4177 140.037 9.8365 139.22 9.44944C138.403 9.06238 137.509 8.88041 136.611 8.91834C135.747 8.89818 134.888 9.05913 134.085 9.39151C133.282 9.72389 132.552 10.2208 131.94 10.8525C131.303 11.5153 130.806 12.3073 130.479 13.1787C130.152 14.0501 130.002 14.9821 130.04 15.9161C130.002 16.8501 130.152 17.782 130.479 18.6534C130.806 19.5248 131.303 20.3168 131.94 20.9796C132.552 21.6113 133.282 22.1082 134.085 22.4406C134.888 22.773 135.747 22.9339 136.611 22.9138C137.614 22.9254 138.607 22.7029 139.516 22.2627C140.425 21.8224 141.226 21.1759 141.86 20.3711L143.371 21.9358C142.58 22.9155 141.586 23.699 140.464 24.2286C139.254 24.8069 137.934 25.0965 136.601 25.0761Z" fill="white"/>
<path d="M147.434 24.6855H145.261V7.1369H147.434V24.6855Z" fill="white"/>
<path d="M150.982 14.1224C152.121 12.9519 153.66 12.295 155.265 12.295C156.87 12.295 158.409 12.9519 159.548 14.1224C160.105 14.7309 160.54 15.4474 160.828 16.2306C161.116 17.0139 161.252 17.8484 161.227 18.6861C161.252 19.5239 161.116 20.3584 160.828 21.1416C160.54 21.9248 160.105 22.6413 159.548 23.2499C158.409 24.4204 156.87 25.0773 155.265 25.0773C153.66 25.0773 152.121 24.4204 150.982 23.2499C150.425 22.6413 149.99 21.9248 149.702 21.1416C149.414 20.3584 149.278 19.5239 149.303 18.6861C149.278 17.8484 149.414 17.0139 149.702 16.2306C149.99 15.4474 150.425 14.7309 150.982 14.1224ZM152.599 21.8373C152.941 22.2118 153.354 22.5101 153.811 22.714C154.269 22.9179 154.762 23.0231 155.26 23.0231C155.758 23.0231 156.251 22.9179 156.708 22.714C157.166 22.5101 157.578 22.2118 157.921 21.8373C158.301 21.4154 158.596 20.9196 158.788 20.3786C158.981 19.8376 159.068 19.2622 159.044 18.6861C159.068 18.11 158.981 17.5347 158.788 16.9937C158.596 16.4527 158.301 15.9568 157.921 15.535C157.578 15.1605 157.166 14.8621 156.708 14.6582C156.251 14.4544 155.758 14.3492 155.26 14.3492C154.762 14.3492 154.269 14.4544 153.811 14.6582C153.354 14.8621 152.941 15.1605 152.599 15.535C152.219 15.9568 151.924 16.4527 151.731 16.9937C151.538 17.5347 151.451 18.11 151.476 18.6861C151.454 19.2612 151.544 19.8349 151.738 20.374C151.933 20.913 152.229 21.4067 152.609 21.8264L152.599 21.8373Z" fill="white"/>
<path d="M173.268 24.6856H171.168V23.0231H171.105C170.732 23.6546 170.203 24.172 169.573 24.5226C168.919 24.9149 168.176 25.1211 167.421 25.1203C166.807 25.1637 166.192 25.0631 165.621 24.8261C165.051 24.589 164.539 24.2216 164.125 23.7511C163.329 22.71 162.93 21.4036 163.001 20.0784V12.6895H165.174V19.6655C165.174 21.9039 166.13 23.0231 168.04 23.0231C168.465 23.0368 168.886 22.9454 169.269 22.7564C169.653 22.5674 169.987 22.2863 170.244 21.9365C170.808 21.1977 171.108 20.2806 171.095 19.3395V12.6895H173.268V24.6856Z" fill="white"/>
<path d="M180.647 25.0767C179.91 25.0792 179.181 24.9164 178.51 24.5994C177.84 24.2824 177.244 23.8187 176.763 23.2403C175.675 21.9961 175.092 20.3653 175.136 18.6875C175.092 17.0096 175.675 15.3789 176.763 14.1346C177.244 13.5562 177.84 13.0926 178.51 12.7756C179.181 12.4586 179.91 12.2957 180.647 12.2983C181.473 12.2848 182.289 12.4865 183.019 12.885C183.661 13.2195 184.205 13.726 184.594 14.3519H184.688L184.594 12.6894V7.1369H186.767V24.6855H184.667V23.023H184.573C184.184 23.6489 183.64 24.1555 182.998 24.4899C182.274 24.8849 181.466 25.0865 180.647 25.0767ZM181.004 23.023C181.495 23.0304 181.982 22.9296 182.433 22.7273C182.883 22.525 183.287 22.2257 183.618 21.8495C184.356 20.9795 184.733 19.8434 184.667 18.6875C184.733 17.5316 184.356 16.3955 183.618 15.5255C183.285 15.1472 182.88 14.8449 182.428 14.6381C181.976 14.4313 181.487 14.3245 180.993 14.3245C180.499 14.3245 180.011 14.4313 179.559 14.6381C179.107 14.8449 178.702 15.1472 178.369 15.5255C178.002 15.9534 177.721 16.452 177.541 16.9927C177.361 17.5335 177.285 18.1057 177.319 18.6766C177.285 19.2475 177.361 19.8197 177.541 20.3605C177.721 20.9012 178.002 21.3998 178.369 21.8278C178.7 22.2107 179.106 22.5157 179.561 22.7219C180.015 22.9281 180.508 23.0308 181.004 23.023Z" fill="white"/>
</g>
<defs>
<clipPath id="clip0_1099_5641">
<rect width="190" height="30.4248" fill="white" transform="translate(0 0.617279)"/>
</clipPath>
</defs>
</svg>