<?xml version="1.0" encoding="utf-8"?>
<svg xmlns="http://www.w3.org/2000/svg" width="101" height="17" viewBox="0 0 101 17" fill="none">
<path d="M11.3906 13.3299C11.5755 13.8813 11.6902 14.2967 11.6902 14.5488C11.6902 14.7779 11.3677 14.9168 10.8832 14.9627L10.2152 15.0329C10.0547 15.1474 10.0762 15.5155 10.2625 15.6058C10.9305 15.5828 11.8063 15.537 12.9129 15.537C13.9507 15.537 14.7578 15.5599 15.7024 15.6072C15.8171 15.5141 15.8644 15.1474 15.7024 15.0314L15.0803 14.9627C14.0884 14.8467 13.7888 14.5029 13.1193 12.5264L9.96005 3.28557C9.6146 2.27441 9.2462 1.21741 8.94661 0.206244C8.89931 0.0458322 8.73733 0 8.60115 0C8.34744 0.297907 7.95467 0.713264 7.40137 0.873675C7.47161 1.24176 7.33113 1.6786 7.0086 2.50501L4.65634 8.71092C3.68877 11.2861 3.04228 12.7785 2.62802 13.8369C2.3055 14.6633 1.79806 14.9168 1.24475 14.9627L0.483599 15.0329C0.344556 15.1474 0.391859 15.5155 0.529469 15.6058C1.15301 15.5828 1.98154 15.537 2.7427 15.537C3.82637 15.5599 4.54166 15.5599 5.14084 15.6072C5.34868 15.5141 5.34869 15.1474 5.18671 15.0314L4.42555 14.9627C3.87225 14.9168 3.75757 14.7794 3.75757 14.5029C3.75757 14.2494 3.91955 13.6293 4.26357 12.5937L5.0706 10.1804C5.23258 9.69774 5.37019 9.629 5.94643 9.629H9.42825C10.1192 9.629 10.2138 9.69918 10.3743 10.2033L11.3878 13.3285L11.3906 13.3299ZM7.26519 4.15925C7.51891 3.46891 7.74969 2.91749 7.8185 2.80291H7.86437C8.00341 3.0779 8.20982 3.6995 8.39474 4.25091L9.63896 7.9991C9.84681 8.61926 9.79951 8.71092 9.13152 8.71092H6.29332C5.64684 8.71092 5.62534 8.68801 5.80882 8.15951L7.26089 4.16068H7.26232L7.26519 4.15925ZM24.0765 1.83757C24.0765 1.1014 24.0995 1.00974 25.3208 1.00974C27.7189 1.00974 29.0319 2.45774 29.0319 4.68775C29.0319 6.68716 28.1332 8.08933 25.6447 8.54908C25.5057 8.59491 25.5057 8.94008 25.6662 9.00883C26.6123 9.00883 27.8336 8.80116 28.8485 8.31849C29.8404 7.83582 31.1534 6.77739 31.1534 4.66483C31.1534 3.0779 30.3693 1.88341 29.31 1.21598C28.2263 0.54999 26.7958 0.29791 24.8836 0.29791C22.9714 0.29791 21.5408 0.32083 20.3181 0.481241C20.1346 0.572905 20.1117 0.918069 20.2722 1.05556L21.1022 1.14723C22.14 1.26324 22.1858 1.65282 22.1858 3.6064V12.0882C22.1858 14.5015 22.14 14.7779 20.8026 14.9612L20.3181 15.0314C20.1805 15.1689 20.2263 15.537 20.3654 15.6043C21.3028 15.5585 22.2403 15.5356 23.1778 15.5356C24.0995 15.5356 24.8606 15.5585 26.1751 15.6058C26.3127 15.5356 26.36 15.146 26.221 15.03L25.5989 14.9612C24.1224 14.8008 24.0765 14.5015 24.0765 12.0882V1.83757ZM42.231 16.4107C46.6804 16.4107 50.2325 13.0306 50.2325 8.38867C50.2325 4.34257 47.5577 0.505587 42.231 0.505587C37.482 0.505587 34.0232 4.02176 34.0232 8.61927C34.0232 12.7556 37.1137 16.4107 42.231 16.4107ZM42.5306 15.6974C37.9881 15.6974 36.3281 11.2832 36.3281 7.88309C36.3281 2.84874 39.4401 1.21598 41.8397 1.21598C46.2432 1.21598 47.9261 5.30791 47.9261 9.1005C47.9261 13.6293 45.2971 15.6974 42.5306 15.6974ZM56.1741 12.0882C56.1741 14.5015 56.1282 14.8223 54.7908 14.9612L54.0999 15.0314C53.9608 15.1689 54.0081 15.537 54.1458 15.6043C55.4373 15.5585 56.1741 15.5356 57.1431 15.5356H59.2646C61.6398 15.5356 63.8301 15.5585 65.0055 15.6058C65.328 14.9842 65.9745 12.641 65.9745 12.3875C65.9745 12.2271 65.5373 12.1354 65.3982 12.25C64.9367 13.4216 64.3375 14.2494 63.8759 14.5258C63.5075 14.7321 63.023 14.8237 61.065 14.8237C59.2431 14.8237 58.8044 14.5488 58.5507 14.2952C58.135 13.8584 58.0662 13.2597 58.0662 11.8117V3.81264C58.0662 1.3993 58.1135 1.03122 59.4724 0.916641L60.0257 0.870808C60.1633 0.777712 60.1175 0.363792 59.9784 0.296476C58.8259 0.342308 58.0418 0.36523 57.1431 0.36523C56.2443 0.36523 55.4373 0.342307 54.1458 0.295042C54.0067 0.365222 53.9623 0.777712 54.0999 0.870808L54.6761 0.916641C56.1282 1.03122 56.1741 1.3993 56.1741 3.81264V12.0882ZM72.0222 12.0882C72.0222 14.5015 71.9748 14.8223 70.6389 14.9612L69.948 15.0314C69.8089 15.1689 69.8562 15.537 69.9938 15.6043C71.2854 15.5585 72.0236 15.5356 72.9912 15.5356H75.1126C77.4878 15.5356 79.6781 15.5585 80.855 15.6058C81.1775 14.9842 81.8226 12.641 81.8226 12.3875C81.8226 12.2271 81.3854 12.1354 81.2463 12.25C80.7848 13.4216 80.187 14.2494 79.7254 14.5258C79.3556 14.7321 78.8711 14.8237 76.9116 14.8237C75.0897 14.8237 74.6525 14.5488 74.3974 14.2952C73.9831 13.8584 73.9143 13.2597 73.9143 11.8117V3.81264C73.9143 1.3993 73.9602 1.03122 75.3205 0.916641L75.8738 0.870808C76.0128 0.777712 75.9655 0.363792 75.8279 0.296476C74.6754 0.342308 73.8913 0.36523 72.9912 0.36523C72.091 0.36523 71.2854 0.342307 69.9938 0.295042C69.8562 0.365222 69.8104 0.777712 69.948 0.870808L70.5242 0.916641C71.9763 1.03122 72.0236 1.3993 72.0236 3.81264V12.0882H72.0222ZM92.3999 16.4092C96.8507 16.4092 100.4 13.0291 100.4 8.38723C100.4 4.34114 97.7265 0.504153 92.3999 0.504153C87.6509 0.504153 84.192 4.02032 84.192 8.61783C84.192 12.7542 87.2825 16.4092 92.3999 16.4092ZM92.6995 15.696C88.1569 15.696 86.497 11.2818 86.497 7.88166C86.497 2.84731 89.609 1.21455 92.0071 1.21455C96.4107 1.21455 98.0935 5.30648 98.0935 9.09906C98.0935 13.6278 95.466 15.696 92.6981 15.696H92.6995Z" fill="white"/>
</svg>