<?xml version="1.0" encoding="utf-8"?>
<svg xmlns="http://www.w3.org/2000/svg" width="192" height="218" viewBox="0 0 192 218" fill="none">
<path d="M1.01392 105.17V112.28L29.0439 108.74" stroke="white" stroke-width="0.5" stroke-linejoin="round"/>
<path d="M96.0638 141.54V112.28L60.7639 187.71V216.97L96.0638 141.54Z" stroke="white" stroke-width="0.5" stroke-linejoin="round"/>
<path d="M29.7839 197.72L60.7639 216.97V187.71L45.3038 178.1" stroke="white" stroke-width="0.5" stroke-linejoin="round"/>
<path d="M56.6339 134.52L29.7839 168.46L45.3038 178.1" stroke="white" stroke-width="0.5" stroke-linejoin="round"/>
<path d="M45.3038 178.1L29.7839 168.46V197.72" stroke="white" stroke-width="0.5" stroke-linejoin="round"/>
<path d="M81.4138 103.19V102.12L80.8638 102.19V103.88L81.4138 103.19Z" stroke="white" stroke-width="0.5" stroke-linejoin="round"/>
<path d="M29.0439 108.74L1.01392 112.28V141.54L56.6339 134.52L72.6339 114.28" stroke="white" stroke-width="0.5" stroke-linejoin="round"/>
<path d="M72.6338 114.28L56.6338 134.52" stroke="white" stroke-width="0.5" stroke-linejoin="round"/>
<path d="M56.3539 82.95L1.01392 75.91V105.17" stroke="white" stroke-width="0.5" stroke-linejoin="round"/>
<path d="M29.0439 108.74L72.2639 103.28" stroke="white" stroke-width="0.5" stroke-linejoin="round"/>
<path d="M72.2639 103.28L29.0439 108.74" stroke="white" stroke-width="0.5" stroke-linejoin="round"/>
<path d="M72.6338 114.28L76.7738 109.05" stroke="white" stroke-width="0.5" stroke-linejoin="round"/>
<path d="M76.7738 109.05L72.6338 114.28" stroke="white" stroke-width="0.5" stroke-linejoin="round"/>
<path d="M56.3539 82.95L80.8639 86.06V85L45.6639 40.02L29.7839 48.99L56.3539 82.95Z" stroke="white" stroke-width="0.5" stroke-linejoin="round"/>
<path d="M80.864 86.06L56.354 82.95" stroke="white" stroke-width="0.5" stroke-linejoin="round"/>
<path d="M72.2639 103.28L80.8639 102.19" stroke="white" stroke-width="0.5" stroke-linejoin="round"/>
<path d="M76.7739 109.05L80.8639 103.88V102.19L72.2639 103.28" stroke="white" stroke-width="0.5" stroke-linejoin="round"/>
<path d="M62.9238 1L29.7839 19.73L45.6639 40.02" stroke="white" stroke-width="0.5" stroke-linejoin="round"/>
<path d="M29.7839 48.99L45.6639 40.02L29.7839 19.73V48.99Z" stroke="white" stroke-width="0.5" stroke-linejoin="round"/>
<path d="M191.114 105.17V112.28L163.074 108.74" stroke="white" stroke-width="0.5" stroke-linejoin="round"/>
<path d="M96.0537 141.54V112.28L131.354 187.71V216.97L96.0537 141.54Z" stroke="white" stroke-width="0.5" stroke-linejoin="round"/>
<path d="M162.334 197.72L131.354 216.97V187.71L146.814 178.1" stroke="white" stroke-width="0.5" stroke-linejoin="round"/>
<path d="M135.484 134.52L162.334 168.46L146.814 178.1" stroke="white" stroke-width="0.5" stroke-linejoin="round"/>
<path d="M146.814 178.1L162.334 168.46V197.72" stroke="white" stroke-width="0.5" stroke-linejoin="round"/>
<path d="M110.704 103.19V102.12L111.254 102.19V103.88L110.704 103.19Z" stroke="white" stroke-width="0.5" stroke-linejoin="round"/>
<path d="M163.074 108.74L191.114 112.28V141.54L135.484 134.52L119.484 114.28" stroke="white" stroke-width="0.5" stroke-linejoin="round"/>
<path d="M119.484 114.28L135.484 134.52" stroke="white" stroke-width="0.5" stroke-linejoin="round"/>
<path d="M135.764 82.95L191.114 75.91V105.17" stroke="white" stroke-width="0.5" stroke-linejoin="round"/>
<path d="M163.074 108.74L119.854 103.28" stroke="white" stroke-width="0.5" stroke-linejoin="round"/>
<path d="M119.854 103.28L163.074 108.74" stroke="white" stroke-width="0.5" stroke-linejoin="round"/>
<path d="M119.484 114.28L115.344 109.05" stroke="white" stroke-width="0.5" stroke-linejoin="round"/>
<path d="M115.344 109.05L119.484 114.28" stroke="white" stroke-width="0.5" stroke-linejoin="round"/>
<path d="M135.764 82.95L111.254 86.06V85L146.454 40.02L162.334 48.99L135.764 82.95Z" stroke="white" stroke-width="0.5" stroke-linejoin="round"/>
<path d="M111.254 86.06L135.764 82.95" stroke="white" stroke-width="0.5" stroke-linejoin="round"/>
<path d="M119.854 103.28L111.254 102.19" stroke="white" stroke-width="0.5" stroke-linejoin="round"/>
<path d="M115.344 109.05L111.254 103.88V102.19L119.854 103.28" stroke="white" stroke-width="0.5" stroke-linejoin="round"/>
<path d="M129.194 1L162.334 19.73L146.454 40.02" stroke="white" stroke-width="0.5" stroke-linejoin="round"/>
<path d="M162.334 48.99L146.454 40.02L162.334 19.73V48.99Z" stroke="white" stroke-width="0.5" stroke-linejoin="round"/>
<path d="M129.194 1L96.0638 75.37L62.9238 1" stroke="white" stroke-width="0.5" stroke-linejoin="round"/>
</svg>