<?xml version="1.0" encoding="utf-8"?>
<svg xmlns="http://www.w3.org/2000/svg" width="215" height="226" viewBox="0 0 215 226" fill="none">
<path d="M128.364 139.48H137.544L213.034 139.45C211.274 148.66 208.314 157.45 204.274 165.65L125.304 165.67H116.124H96.384C94.184 165.67 80.1939 152.66 78.4739 152.66C76.4539 152.66 61.854 165.68 60.134 165.68L11.3539 165.71C7.31394 157.51 4.35398 148.73 2.58398 139.52L72.024 139.49C75.264 139.49 89.844 126.47 91.564 126.47C93.284 126.47 107.274 139.48 109.484 139.48H128.354H128.364Z" stroke="white" stroke-width="0.5" stroke-linejoin="round"/>
<path d="M128.364 139.48H137.544L213.034 139.45C211.274 148.66 208.314 157.45 204.274 165.65L125.304 165.67H116.124H96.384C94.184 165.67 80.1939 152.66 78.4739 152.66C76.4539 152.66 61.854 165.68 60.134 165.68L11.3539 165.71C7.31394 157.51 4.35398 148.73 2.58398 139.52L72.024 139.49C75.264 139.49 89.844 126.47 91.564 126.47C93.284 126.47 107.274 139.48 109.484 139.48H128.354H128.364Z" stroke="white" stroke-width="0.5" stroke-linejoin="round"/>
<path d="M128.364 125.58H137.544L213.034 125.55C211.274 134.76 208.314 143.55 204.274 151.75L125.304 151.77H116.124H96.384C94.184 151.77 80.1939 138.76 78.4739 138.76C76.4539 138.76 61.854 151.78 60.134 151.78L11.3539 151.81C7.31394 143.61 4.35398 134.83 2.58398 125.62L72.024 125.59C75.264 125.59 89.844 112.57 91.564 112.57C93.284 112.57 107.274 125.58 109.484 125.58H128.354H128.364Z" stroke="white" stroke-width="0.5" stroke-linejoin="round"/>
<path d="M128.364 125.58H137.544L213.034 125.55C211.274 134.76 208.314 143.55 204.274 151.75L125.304 151.77H116.124H96.384C94.184 151.77 80.1939 138.76 78.4739 138.76C76.4539 138.76 61.854 151.78 60.134 151.78L11.3539 151.81C7.31394 143.61 4.35398 134.83 2.58398 125.62L72.024 125.59C75.264 125.59 89.844 112.57 91.564 112.57C93.284 112.57 107.274 125.58 109.484 125.58H128.354H128.364Z" stroke="white" stroke-width="0.5" stroke-linejoin="round"/>
<path d="M137.544 139.48H128.364" stroke="white" stroke-width="0.5" stroke-linejoin="round"/>
<path d="M128.364 125.58H137.544" stroke="white" stroke-width="0.5" stroke-linejoin="round"/>
<path d="M137.544 139.48H128.364" stroke="white" stroke-width="0.5" stroke-linejoin="round"/>
<path d="M128.364 125.58H137.544" stroke="white" stroke-width="0.5" stroke-linejoin="round"/>
<path d="M137.544 125.58L213.034 125.56V139.45L137.544 139.48" stroke="white" stroke-width="0.5" stroke-linejoin="round"/>
<path d="M137.544 125.58L213.034 125.56V139.45L137.544 139.48" stroke="white" stroke-width="0.5" stroke-linejoin="round"/>
<path d="M213.034 125.56V139.45C211.274 148.66 208.314 157.45 204.274 165.65V151.76C208.314 143.56 211.274 134.77 213.034 125.56Z" stroke="white" stroke-width="0.5" stroke-linejoin="round"/>
<path d="M213.034 125.56V139.45C211.274 148.66 208.314 157.45 204.274 165.65V151.76C208.314 143.56 211.274 134.77 213.034 125.56Z" stroke="white" stroke-width="0.5" stroke-linejoin="round"/>
<path d="M210.884 134.62V148.51" stroke="white" stroke-width="0.5" stroke-linejoin="round"/>
<path d="M207.954 143.37V157.26" stroke="white" stroke-width="0.5" stroke-linejoin="round"/>
<path d="M213.034 125.56V139.45C211.274 148.66 208.314 157.45 204.274 165.65V151.76C208.314 143.56 211.274 134.77 213.034 125.56Z" stroke="white" stroke-width="0.5" stroke-linejoin="round"/>
<path d="M125.314 151.77L204.274 151.76V165.65L125.314 165.67" stroke="white" stroke-width="0.5" stroke-linejoin="round"/>
<path d="M125.314 151.77L204.274 151.76V165.65L125.314 165.67" stroke="white" stroke-width="0.5" stroke-linejoin="round"/>
<path d="M116.134 151.78L125.314 151.77" stroke="white" stroke-width="0.5" stroke-linejoin="round"/>
<path d="M125.314 165.67L116.134 165.68" stroke="white" stroke-width="0.5" stroke-linejoin="round"/>
<path d="M116.134 151.78L125.314 151.77" stroke="white" stroke-width="0.5" stroke-linejoin="round"/>
<path d="M125.314 165.67L116.134 165.68" stroke="white" stroke-width="0.5" stroke-linejoin="round"/>
<path d="M116.134 165.68H96.394V151.78H116.134" stroke="white" stroke-width="0.5" stroke-linejoin="round"/>
<path d="M116.134 165.68H96.394V151.78H116.134" stroke="white" stroke-width="0.5" stroke-linejoin="round"/>
<path d="M96.3939 151.78V165.67C94.1939 165.67 80.2039 152.66 78.4839 152.66V138.77C80.2039 138.77 94.1939 151.78 96.3939 151.78Z" stroke="white" stroke-width="0.5" stroke-linejoin="round"/>
<path d="M96.3939 151.78V165.67C94.1939 165.67 80.2039 152.66 78.4839 152.66V138.77C80.2039 138.77 94.1939 151.78 96.3939 151.78Z" stroke="white" stroke-width="0.5" stroke-linejoin="round"/>
<path d="M91.1538 148.41V162.3" stroke="white" stroke-width="0.5" stroke-linejoin="round"/>
<path d="M83.4038 142.15V156.04" stroke="white" stroke-width="0.5" stroke-linejoin="round"/>
<path d="M96.3939 151.78V165.67C94.1939 165.67 80.2039 152.66 78.4839 152.66V138.77C80.2039 138.77 94.1939 151.78 96.3939 151.78Z" stroke="white" stroke-width="0.5" stroke-linejoin="round"/>
<path d="M78.484 138.77V152.66C76.464 152.66 61.864 165.68 60.144 165.68V151.79C61.864 151.79 76.474 138.77 78.484 138.77Z" stroke="white" stroke-width="0.5" stroke-linejoin="round"/>
<path d="M78.484 138.77V152.66C76.464 152.66 61.864 165.68 60.144 165.68V151.79C61.864 151.79 76.474 138.77 78.484 138.77Z" stroke="white" stroke-width="0.5" stroke-linejoin="round"/>
<path d="M73.2141 142.15V156.04" stroke="white" stroke-width="0.5" stroke-linejoin="round"/>
<path d="M65.2141 148.42V162.31" stroke="white" stroke-width="0.5" stroke-linejoin="round"/>
<path d="M78.484 138.77V152.66C76.464 152.66 61.864 165.68 60.144 165.68V151.79C61.864 151.79 76.474 138.77 78.484 138.77Z" stroke="white" stroke-width="0.5" stroke-linejoin="round"/>
<path d="M60.1438 151.81H11.3638V165.7H60.1438V151.81Z" stroke="white" stroke-width="0.5" stroke-linejoin="round"/>
<path d="M60.1438 151.81H11.3638V165.7H60.1438V151.81Z" stroke="white" stroke-width="0.5" stroke-linejoin="round"/>
<path d="M11.364 151.82V165.71C7.32395 157.51 4.36399 148.73 2.59399 139.52V125.63C4.36399 134.84 7.32395 143.62 11.364 151.82Z" stroke="white" stroke-width="0.5" stroke-linejoin="round"/>
<path d="M11.364 151.82V165.71C7.32395 157.51 4.36399 148.73 2.59399 139.52V125.63C4.36399 134.84 7.32395 143.62 11.364 151.82Z" stroke="white" stroke-width="0.5" stroke-linejoin="round"/>
<path d="M7.68408 143.43V157.32" stroke="white" stroke-width="0.5" stroke-linejoin="round"/>
<path d="M4.75391 134.69V148.58" stroke="white" stroke-width="0.5" stroke-linejoin="round"/>
<path d="M11.364 151.82V165.71C7.32395 157.51 4.36399 148.73 2.59399 139.52V125.63C4.36399 134.84 7.32395 143.62 11.364 151.82Z" stroke="white" stroke-width="0.5" stroke-linejoin="round"/>
<path d="M72.024 125.61H2.58398V139.5H72.024V125.61Z" stroke="white" stroke-width="0.5" stroke-linejoin="round"/>
<path d="M72.024 125.61H2.58398V139.5H72.024V125.61Z" stroke="white" stroke-width="0.5" stroke-linejoin="round"/>
<path d="M72.0339 125.6C75.2739 125.6 89.8539 112.58 91.5739 112.58C93.2939 112.58 107.284 125.59 109.494 125.59V139.48C107.294 139.48 93.3039 126.47 91.5739 126.47C89.8439 126.47 75.2739 139.49 72.0339 139.49V125.6Z" stroke="white" stroke-width="0.5" stroke-linejoin="round"/>
<path d="M72.0339 125.6V139.49C75.2739 139.49 89.8539 126.47 91.5739 126.47V112.58C89.8539 112.58 75.2739 125.6 72.0339 125.6Z" stroke="white" stroke-width="0.5" stroke-linejoin="round"/>
<path d="M78.1538 122.23V136.12" stroke="white" stroke-width="0.5" stroke-linejoin="round"/>
<path d="M86.4639 115.96V129.85" stroke="white" stroke-width="0.5" stroke-linejoin="round"/>
<path d="M91.574 112.58V126.47C93.304 126.47 107.284 139.48 109.494 139.48V125.59C107.294 125.59 93.304 112.58 91.574 112.58Z" stroke="white" stroke-width="0.5" stroke-linejoin="round"/>
<path d="M96.4939 115.95V129.85" stroke="white" stroke-width="0.5" stroke-linejoin="round"/>
<path d="M104.244 122.22V136.11" stroke="white" stroke-width="0.5" stroke-linejoin="round"/>
<path d="M72.0339 125.6C75.2739 125.6 89.8539 112.58 91.5739 112.58C93.2939 112.58 107.284 125.59 109.494 125.59V139.48C107.294 139.48 93.3039 126.47 91.5739 126.47C89.8439 126.47 75.2739 139.49 72.0339 139.49V125.6Z" stroke="white" stroke-width="0.5" stroke-linejoin="round"/>
<path d="M128.364 139.48H109.484V125.59L128.364 125.58" stroke="white" stroke-width="0.5" stroke-linejoin="round"/>
<path d="M128.364 139.48H109.484V125.59L128.364 125.58" stroke="white" stroke-width="0.5" stroke-linejoin="round"/>
<path d="M86.2939 191.64H95.4639L186.094 191.61C166.554 212.16 138.724 225.03 107.824 225.04C76.8939 225.04 49.0739 212.19 29.5239 191.65H29.9639C33.2039 191.65 47.7839 178.63 49.5139 178.63C51.2439 178.63 65.2139 191.64 67.4239 191.64H86.2939Z" stroke="white" stroke-width="0.5" stroke-linejoin="round"/>
<path d="M86.2939 191.64H95.4639L186.094 191.61C166.554 212.16 138.724 225.03 107.824 225.04C76.8939 225.04 49.0739 212.19 29.5239 191.65H29.9639C33.2039 191.65 47.7839 178.63 49.5139 178.63C51.2439 178.63 65.2139 191.64 67.4239 191.64H86.2939Z" stroke="white" stroke-width="0.5" stroke-linejoin="round"/>
<path d="M86.2939 177.74H95.4639L186.094 177.71C166.554 198.26 138.724 211.13 107.824 211.14C76.8939 211.14 49.0739 198.29 29.5239 177.75H29.9639C33.2039 177.75 47.7839 164.73 49.5139 164.73C51.2439 164.73 65.2139 177.74 67.4239 177.74H86.2939Z" stroke="white" stroke-width="0.5" stroke-linejoin="round"/>
<path d="M86.2939 177.74H95.4639L186.094 177.71C166.554 198.26 138.724 211.13 107.824 211.14C76.8939 211.14 49.0739 198.29 29.5239 177.75H29.9639C33.2039 177.75 47.7839 164.73 49.5139 164.73C51.2439 164.73 65.2139 177.74 67.4239 177.74H86.2939Z" stroke="white" stroke-width="0.5" stroke-linejoin="round"/>
<path d="M95.464 191.64H86.2939" stroke="white" stroke-width="0.5" stroke-linejoin="round"/>
<path d="M86.2939 177.74H95.464" stroke="white" stroke-width="0.5" stroke-linejoin="round"/>
<path d="M95.464 191.64H86.2939" stroke="white" stroke-width="0.5" stroke-linejoin="round"/>
<path d="M86.2939 177.74H95.464" stroke="white" stroke-width="0.5" stroke-linejoin="round"/>
<path d="M95.4639 177.74L186.094 177.72V191.61L95.4639 191.64" stroke="white" stroke-width="0.5" stroke-linejoin="round"/>
<path d="M95.4639 177.74L186.094 177.72V191.61L95.4639 191.64" stroke="white" stroke-width="0.5" stroke-linejoin="round"/>
<path d="M186.094 177.72V191.61C166.554 212.16 138.724 225.03 107.824 225.04C76.8939 225.04 49.0739 212.19 29.5239 191.65V177.76C49.0739 198.3 76.8939 211.15 107.824 211.15C138.734 211.15 166.554 198.27 186.094 177.72Z" stroke="white" stroke-width="0.5" stroke-linejoin="round"/>
<path d="M186.094 177.72V191.61C166.554 212.16 138.724 225.03 107.824 225.04V211.15C138.734 211.15 166.554 198.27 186.094 177.72Z" stroke="white" stroke-width="0.5" stroke-linejoin="round"/>
<path d="M163.984 195.52V209.41" stroke="white" stroke-width="0.5" stroke-linejoin="round"/>
<path d="M137.514 207.05V220.94" stroke="white" stroke-width="0.5" stroke-linejoin="round"/>
<path d="M107.824 211.15V225.04C76.8939 225.04 49.0739 212.19 29.5239 191.65V177.76C49.0739 198.3 76.8939 211.15 107.824 211.15Z" stroke="white" stroke-width="0.5" stroke-linejoin="round"/>
<path d="M78.124 207.06V220.95" stroke="white" stroke-width="0.5" stroke-linejoin="round"/>
<path d="M51.6338 195.55V209.44" stroke="white" stroke-width="0.5" stroke-linejoin="round"/>
<path d="M186.094 177.72V191.61C166.554 212.16 138.724 225.03 107.824 225.04C76.8939 225.04 49.0739 212.19 29.5239 191.65V177.76C49.0739 198.3 76.8939 211.15 107.824 211.15C138.734 211.15 166.554 198.27 186.094 177.72Z" stroke="white" stroke-width="0.5" stroke-linejoin="round"/>
<path d="M29.9639 177.76H29.5239V191.65H29.9639V177.76Z" stroke="white" stroke-width="0.5" stroke-linejoin="round"/>
<path d="M29.9639 177.76H29.5239V191.65H29.9639V177.76Z" stroke="white" stroke-width="0.5" stroke-linejoin="round"/>
<path d="M29.9639 177.76C33.2039 177.76 47.7839 164.74 49.5139 164.74C51.2439 164.74 65.2138 177.75 67.4238 177.75V191.64C65.2238 191.64 51.2339 178.63 49.5139 178.63C47.7939 178.63 33.2039 191.65 29.9639 191.65V177.76Z" stroke="white" stroke-width="0.5" stroke-linejoin="round"/>
<path d="M29.9639 177.76V191.65C33.2039 191.65 47.7839 178.63 49.5139 178.63V164.74C47.7839 164.74 33.2039 177.76 29.9639 177.76Z" stroke="white" stroke-width="0.5" stroke-linejoin="round"/>
<path d="M36.084 174.39V188.28" stroke="white" stroke-width="0.5" stroke-linejoin="round"/>
<path d="M44.3938 168.12V182.01" stroke="white" stroke-width="0.5" stroke-linejoin="round"/>
<path d="M49.5139 164.74V178.63C51.2339 178.63 65.2139 191.64 67.4239 191.64V177.75C65.2239 177.75 51.2339 164.74 49.5139 164.74Z" stroke="white" stroke-width="0.5" stroke-linejoin="round"/>
<path d="M54.4338 168.11V182.01" stroke="white" stroke-width="0.5" stroke-linejoin="round"/>
<path d="M62.1838 174.38V188.27" stroke="white" stroke-width="0.5" stroke-linejoin="round"/>
<path d="M29.9639 177.76C33.2039 177.76 47.7839 164.74 49.5139 164.74C51.2439 164.74 65.2138 177.75 67.4238 177.75V191.64C65.2238 191.64 51.2339 178.63 49.5139 178.63C47.7939 178.63 33.2039 191.65 29.9639 191.65V177.76Z" stroke="white" stroke-width="0.5" stroke-linejoin="round"/>
<path d="M86.2938 191.64H67.4238V177.75L86.2938 177.74" stroke="white" stroke-width="0.5" stroke-linejoin="round"/>
<path d="M86.2938 191.64H67.4238V177.75L86.2938 177.74" stroke="white" stroke-width="0.5" stroke-linejoin="round"/>
<path d="M116.954 98.11C114.944 98.11 100.334 111.12 98.624 111.12L1.09399 111.16C1.86399 102.14 3.76399 93.44 6.71399 85.22L110.024 85.19C113.264 85.19 127.854 72.16 129.574 72.16C131.294 72.16 145.284 85.17 147.484 85.17H208.854C211.794 93.39 213.714 102.08 214.484 111.09L163.794 111.11H134.864C132.664 111.11 118.684 98.11 116.954 98.11Z" stroke="white" stroke-width="0.5" stroke-linejoin="round"/>
<path d="M116.954 98.11C114.944 98.11 100.334 111.12 98.624 111.12L1.09399 111.16C1.86399 102.14 3.76399 93.44 6.71399 85.22L110.024 85.19C113.264 85.19 127.854 72.16 129.574 72.16C131.294 72.16 145.284 85.17 147.484 85.17H208.854C211.794 93.39 213.714 102.08 214.484 111.09L163.794 111.11H134.864C132.664 111.11 118.684 98.11 116.954 98.11Z" stroke="white" stroke-width="0.5" stroke-linejoin="round"/>
<path d="M116.954 84.22C114.944 84.22 100.334 97.23 98.624 97.23L1.09399 97.27C1.86399 88.25 3.76399 79.55 6.71399 71.33L110.024 71.3C113.264 71.3 127.854 58.27 129.574 58.27C131.294 58.27 145.284 71.28 147.484 71.28H208.854C211.794 79.5 213.714 88.19 214.484 97.2L163.794 97.22H134.864C132.664 97.22 118.684 84.22 116.954 84.22Z" stroke="white" stroke-width="0.5" stroke-linejoin="round"/>
<path d="M116.954 84.22C114.944 84.22 100.334 97.23 98.624 97.23L1.09399 97.27C1.86399 88.25 3.76399 79.55 6.71399 71.33L110.024 71.3C113.264 71.3 127.854 58.27 129.574 58.27C131.294 58.27 145.284 71.28 147.484 71.28H208.854C211.794 79.5 213.714 88.19 214.484 97.2L163.794 97.22H134.864C132.664 97.22 118.684 84.22 116.954 84.22Z" stroke="white" stroke-width="0.5" stroke-linejoin="round"/>
<path d="M116.954 84.22V98.11C114.944 98.11 100.334 111.12 98.624 111.12V97.23C100.334 97.23 114.954 84.22 116.954 84.22Z" stroke="white" stroke-width="0.5" stroke-linejoin="round"/>
<path d="M116.954 84.22V98.11C114.944 98.11 100.334 111.12 98.624 111.12V97.23C100.334 97.23 114.954 84.22 116.954 84.22Z" stroke="white" stroke-width="0.5" stroke-linejoin="round"/>
<path d="M111.694 87.59V101.48" stroke="white" stroke-width="0.5" stroke-linejoin="round"/>
<path d="M103.694 93.86V107.75" stroke="white" stroke-width="0.5" stroke-linejoin="round"/>
<path d="M116.954 84.22V98.11C114.944 98.11 100.334 111.12 98.624 111.12V97.23C100.334 97.23 114.954 84.22 116.954 84.22Z" stroke="white" stroke-width="0.5" stroke-linejoin="round"/>
<path d="M98.624 97.25H1.09399V111.14H98.624V97.25Z" stroke="white" stroke-width="0.5" stroke-linejoin="round"/>
<path d="M98.624 97.25H1.09399V111.14H98.624V97.25Z" stroke="white" stroke-width="0.5" stroke-linejoin="round"/>
<path d="M1.09392 97.27C1.86392 88.25 3.76391 79.55 6.71391 71.33V85.22C3.77391 93.45 1.86392 102.14 1.09392 111.16C1.09392 106.99 0.913916 101.43 1.09392 97.27Z" stroke="white" stroke-width="0.5" stroke-linejoin="round"/>
<path d="M1.09399 97.27V111.16C1.86399 102.14 3.76399 93.44 6.71399 85.22V71.33C3.77399 79.56 1.86399 88.25 1.09399 97.27Z" stroke="white" stroke-width="0.5" stroke-linejoin="round"/>
<path d="M2.23389 88.36V102.25" stroke="white" stroke-width="0.5" stroke-linejoin="round"/>
<path d="M4.11401 79.7V93.59" stroke="white" stroke-width="0.5" stroke-linejoin="round"/>
<path d="M1.09392 97.27C1.86392 88.25 3.76391 79.55 6.71391 71.33V85.22C3.77391 93.45 1.86392 102.14 1.09392 111.16C1.09392 106.99 0.913916 101.43 1.09392 97.27Z" stroke="white" stroke-width="0.5" stroke-linejoin="round"/>
<path d="M110.014 71.3101H6.70386V85.2001H110.014V71.3101Z" stroke="white" stroke-width="0.5" stroke-linejoin="round"/>
<path d="M110.014 71.3101H6.70386V85.2001H110.014V71.3101Z" stroke="white" stroke-width="0.5" stroke-linejoin="round"/>
<path d="M110.014 71.3C113.254 71.3 127.844 58.27 129.564 58.27C131.284 58.27 145.274 71.28 147.474 71.28V85.17C145.274 85.17 131.294 72.16 129.564 72.16C127.834 72.16 113.254 85.19 110.014 85.19V71.3Z" stroke="white" stroke-width="0.5" stroke-linejoin="round"/>
<path d="M110.014 71.3V85.19C113.254 85.19 127.844 72.16 129.564 72.16V58.27C127.844 58.27 113.254 71.3 110.014 71.3Z" stroke="white" stroke-width="0.5" stroke-linejoin="round"/>
<path d="M116.144 67.92V81.81" stroke="white" stroke-width="0.5" stroke-linejoin="round"/>
<path d="M124.454 61.64V75.54" stroke="white" stroke-width="0.5" stroke-linejoin="round"/>
<path d="M129.564 58.27V72.16C131.294 72.16 145.274 85.17 147.474 85.17V71.28C145.274 71.28 131.294 58.27 129.564 58.27Z" stroke="white" stroke-width="0.5" stroke-linejoin="round"/>
<path d="M134.494 61.64V75.53" stroke="white" stroke-width="0.5" stroke-linejoin="round"/>
<path d="M142.244 67.91V81.8" stroke="white" stroke-width="0.5" stroke-linejoin="round"/>
<path d="M110.014 71.3C113.254 71.3 127.844 58.27 129.564 58.27C131.284 58.27 145.274 71.28 147.474 71.28V85.17C145.274 85.17 131.294 72.16 129.564 72.16C127.834 72.16 113.254 85.19 110.014 85.19V71.3Z" stroke="white" stroke-width="0.5" stroke-linejoin="round"/>
<path d="M166.354 85.17H147.474V71.28H166.354" stroke="white" stroke-width="0.5" stroke-linejoin="round"/>
<path d="M166.354 85.17H147.474V71.28H166.354" stroke="white" stroke-width="0.5" stroke-linejoin="round"/>
<path d="M175.534 85.17H166.354" stroke="white" stroke-width="0.5" stroke-linejoin="round"/>
<path d="M166.354 71.28H175.534" stroke="white" stroke-width="0.5" stroke-linejoin="round"/>
<path d="M175.534 85.17H166.354" stroke="white" stroke-width="0.5" stroke-linejoin="round"/>
<path d="M166.354 71.28H175.534" stroke="white" stroke-width="0.5" stroke-linejoin="round"/>
<path d="M175.534 71.28H208.844V85.17H175.534" stroke="white" stroke-width="0.5" stroke-linejoin="round"/>
<path d="M208.844 71.28C211.784 79.5 213.704 88.19 214.474 97.2V111.09C213.704 102.08 211.784 93.39 208.844 85.17C208.844 81 208.844 75.45 208.844 71.28Z" stroke="white" stroke-width="0.5" stroke-linejoin="round"/>
<path d="M208.844 71.28V85.17C211.784 93.39 213.704 102.08 214.474 111.09V97.2C213.704 88.19 211.784 79.5 208.844 71.28Z" stroke="white" stroke-width="0.5" stroke-linejoin="round"/>
<path d="M211.444 79.65V93.54" stroke="white" stroke-width="0.5" stroke-linejoin="round"/>
<path d="M213.334 88.3V102.2" stroke="white" stroke-width="0.5" stroke-linejoin="round"/>
<path d="M208.844 71.28C211.784 79.5 213.704 88.19 214.474 97.2V111.09C213.704 102.08 211.784 93.39 208.844 85.17C208.844 81 208.844 75.45 208.844 71.28Z" stroke="white" stroke-width="0.5" stroke-linejoin="round"/>
<path d="M163.794 97.22L214.484 97.2V111.1L163.794 111.11" stroke="white" stroke-width="0.5" stroke-linejoin="round"/>
<path d="M163.794 97.22L214.484 97.2V111.1L163.794 111.11" stroke="white" stroke-width="0.5" stroke-linejoin="round"/>
<path d="M154.604 97.22H163.794" stroke="white" stroke-width="0.5" stroke-linejoin="round"/>
<path d="M163.794 111.11H154.604" stroke="white" stroke-width="0.5" stroke-linejoin="round"/>
<path d="M154.604 97.22H163.794" stroke="white" stroke-width="0.5" stroke-linejoin="round"/>
<path d="M163.794 111.11H154.604" stroke="white" stroke-width="0.5" stroke-linejoin="round"/>
<path d="M154.604 111.11L134.864 111.12V97.23L154.604 97.22" stroke="white" stroke-width="0.5" stroke-linejoin="round"/>
<path d="M154.604 111.11L134.864 111.12V97.23L154.604 97.22" stroke="white" stroke-width="0.5" stroke-linejoin="round"/>
<path d="M134.864 97.23V111.12C132.664 111.12 118.684 98.11 116.954 98.11V84.22C118.684 84.22 132.664 97.23 134.864 97.23Z" stroke="white" stroke-width="0.5" stroke-linejoin="round"/>
<path d="M134.864 97.23V111.12C132.664 111.12 118.684 98.11 116.954 98.11V84.22C118.684 84.22 132.664 97.23 134.864 97.23Z" stroke="white" stroke-width="0.5" stroke-linejoin="round"/>
<path d="M129.634 93.86V107.75" stroke="white" stroke-width="0.5" stroke-linejoin="round"/>
<path d="M121.884 87.59V101.48" stroke="white" stroke-width="0.5" stroke-linejoin="round"/>
<path d="M134.864 97.23V111.12C132.664 111.12 118.684 98.11 116.954 98.11V84.22C118.684 84.22 132.664 97.23 134.864 97.23Z" stroke="white" stroke-width="0.5" stroke-linejoin="round"/>
<path d="M136.644 56.84L22.1638 56.88C41.7138 31.39 72.7839 14.89 107.784 14.89C142.804 14.89 173.874 31.36 193.424 56.83H172.904C170.704 56.83 156.714 43.82 154.994 43.82C152.974 43.82 138.374 56.84 136.654 56.84H136.644Z" stroke="white" stroke-width="0.5" stroke-linejoin="round"/>
<path d="M136.644 56.84L22.1638 56.88C41.7138 31.39 72.7839 14.89 107.784 14.89C142.804 14.89 173.874 31.36 193.424 56.83H172.904C170.704 56.83 156.714 43.82 154.994 43.82C152.974 43.82 138.374 56.84 136.654 56.84H136.644Z" stroke="white" stroke-width="0.5" stroke-linejoin="round"/>
<path d="M136.644 42.95L22.1638 42.99C41.7138 17.5 72.7839 1 107.784 1C142.804 1 173.874 17.47 193.424 42.94H172.904C170.704 42.94 156.714 29.93 154.994 29.93C152.974 29.93 138.374 42.95 136.654 42.95H136.644Z" stroke="white" stroke-width="0.5" stroke-linejoin="round"/>
<path d="M136.644 42.95L22.1638 42.99C41.7138 17.5 72.7839 1 107.784 1C142.804 1 173.874 17.47 193.424 42.94H172.904C170.704 42.94 156.714 29.93 154.994 29.93C152.974 29.93 138.374 42.95 136.654 42.95H136.644Z" stroke="white" stroke-width="0.5" stroke-linejoin="round"/>
<path d="M136.644 42.97H22.1638V56.86H136.644V42.97Z" stroke="white" stroke-width="0.5" stroke-linejoin="round"/>
<path d="M136.644 42.97H22.1638V56.86H136.644V42.97Z" stroke="white" stroke-width="0.5" stroke-linejoin="round"/>
<path d="M22.1639 43C41.7139 17.51 72.784 1.01001 107.784 1.01001C142.804 1.01001 173.874 17.48 193.424 42.95V56.84C173.884 31.37 142.804 14.9 107.784 14.9C72.784 14.9 41.7139 31.4 22.1639 56.89C22.1639 52.72 20.8239 46.94 22.1639 43Z" stroke="white" stroke-width="0.5" stroke-linejoin="round"/>
<path d="M22.1638 43V56.89C41.7138 31.4 72.7839 14.9 107.784 14.9V1.01001C72.7839 1.01001 41.7138 17.51 22.1638 43Z" stroke="white" stroke-width="0.5" stroke-linejoin="round"/>
<path d="M45.2639 20.78V34.67" stroke="white" stroke-width="0.5" stroke-linejoin="round"/>
<path d="M74.3638 6.22998V20.12" stroke="white" stroke-width="0.5" stroke-linejoin="round"/>
<path d="M107.774 1V14.89C142.794 14.89 173.864 31.36 193.414 56.83V42.94C173.874 17.47 142.794 1 107.774 1Z" stroke="white" stroke-width="0.5" stroke-linejoin="round"/>
<path d="M141.204 6.20996V20.11" stroke="white" stroke-width="0.5" stroke-linejoin="round"/>
<path d="M170.304 20.75V34.64" stroke="white" stroke-width="0.5" stroke-linejoin="round"/>
<path d="M22.1639 43C41.7139 17.51 72.784 1.01001 107.784 1.01001C142.804 1.01001 173.874 17.48 193.424 42.95V56.84C173.884 31.37 142.804 14.9 107.784 14.9C72.784 14.9 41.7139 31.4 22.1639 56.89C22.1639 52.72 20.8239 46.94 22.1639 43Z" stroke="white" stroke-width="0.5" stroke-linejoin="round"/>
<path d="M193.414 42.9399H192.634V56.8299H193.414V42.9399Z" stroke="white" stroke-width="0.5" stroke-linejoin="round"/>
<path d="M193.414 42.9399H192.634V56.8299H193.414V42.9399Z" stroke="white" stroke-width="0.5" stroke-linejoin="round"/>
<path d="M192.634 42.9399H172.894V56.8299H192.634V42.9399Z" stroke="white" stroke-width="0.5" stroke-linejoin="round"/>
<path d="M192.634 42.9399H172.894V56.8299H192.634V42.9399Z" stroke="white" stroke-width="0.5" stroke-linejoin="round"/>
<path d="M172.894 42.9401V56.8301C170.694 56.8301 156.704 43.8201 154.984 43.8201V29.9301C156.704 29.9301 170.694 42.9401 172.894 42.9401Z" stroke="white" stroke-width="0.5" stroke-linejoin="round"/>
<path d="M172.894 42.9401V56.8301C170.694 56.8301 156.704 43.8201 154.984 43.8201V29.9301C156.704 29.9301 170.694 42.9401 172.894 42.9401Z" stroke="white" stroke-width="0.5" stroke-linejoin="round"/>
<path d="M167.654 39.5701V53.4601" stroke="white" stroke-width="0.5" stroke-linejoin="round"/>
<path d="M159.904 33.3V47.2" stroke="white" stroke-width="0.5" stroke-linejoin="round"/>
<path d="M172.894 42.9401V56.8301C170.694 56.8301 156.704 43.8201 154.984 43.8201V29.9301C156.704 29.9301 170.694 42.9401 172.894 42.9401Z" stroke="white" stroke-width="0.5" stroke-linejoin="round"/>
<path d="M154.984 29.9301V43.8201C152.964 43.8201 138.364 56.8401 136.644 56.8401V42.9501C138.364 42.9501 152.974 29.9301 154.984 29.9301Z" stroke="white" stroke-width="0.5" stroke-linejoin="round"/>
<path d="M154.984 29.9301V43.8201C152.964 43.8201 138.364 56.8401 136.644 56.8401V42.9501C138.364 42.9501 152.974 29.9301 154.984 29.9301Z" stroke="white" stroke-width="0.5" stroke-linejoin="round"/>
<path d="M149.714 33.3101V47.2001" stroke="white" stroke-width="0.5" stroke-linejoin="round"/>
<path d="M141.714 39.5801V53.4701" stroke="white" stroke-width="0.5" stroke-linejoin="round"/>
<path d="M154.984 29.9301V43.8201C152.964 43.8201 138.364 56.8401 136.644 56.8401V42.9501C138.364 42.9501 152.974 29.9301 154.984 29.9301Z" stroke="white" stroke-width="0.5" stroke-linejoin="round"/>
</svg>