<?xml version="1.0" encoding="utf-8"?>
<svg xmlns="http://www.w3.org/2000/svg" width="228" height="201" viewBox="0 0 228 201" fill="none">
<g clip-path="url(#clip0_1906_5570)">
<mask id="mask0_1906_5570" style="mask-type:luminance" maskUnits="userSpaceOnUse" x="0" y="0" width="214" height="183">
<path d="M77.5232 0.814142C78.1526 0.723045 78.5833 0.838986 78.9311 1.3276C79.3783 1.94871 79.8752 2.52842 80.3472 3.12469C124.281 59.0996 168.214 115.083 212.148 171.058C212.504 171.513 212.835 171.985 213.382 172.739L211.618 172.987C208.984 173.36 206.351 173.733 203.717 174.097C202.401 174.279 201.084 174.47 199.767 174.652C197.995 174.909 198.111 174.809 197.216 173.666C191.229 166.064 185.266 158.445 179.287 150.826C143.13 104.772 106.981 58.7186 70.8318 12.665C70.2935 11.9859 69.8545 11.2075 69.0595 10.6609C68.9022 10.9093 68.7531 11.1081 68.6537 11.3151C67.5191 13.7665 66.426 16.2426 65.2583 18.6774C64.9187 19.3896 64.9933 19.87 65.457 20.4497C68.6703 24.4911 71.8421 28.5656 75.0305 32.6235C112.19 79.9773 149.349 127.323 186.508 174.677C186.864 175.124 187.32 175.521 187.477 176.093C187.353 176.366 187.154 176.441 186.939 176.474C184.819 176.755 183.113 176.996 181.407 177.236C180.388 177.376 179.37 177.517 178.343 177.666C176.811 177.882 175.278 178.097 173.755 178.329C172.844 178.461 172.305 178.246 171.775 177.567C167.867 172.507 163.9 167.497 159.949 162.461C126.624 120.01 93.2913 77.5508 59.9664 35.0997C59.5772 34.6028 59.1714 34.1142 58.8153 33.6753C58.2521 33.7498 58.219 34.0893 58.1196 34.3047C56.72 37.3191 55.3701 40.3502 53.954 43.3481C53.5565 44.1845 53.6393 44.7642 54.1776 45.4433C57.3246 49.3936 60.4301 53.3688 63.5357 57.3356C95.2706 97.7578 126.989 138.188 158.724 178.61C158.972 178.933 159.237 179.248 159.477 179.588C159.759 179.985 159.643 180.267 159.171 180.333C157.597 180.565 156.016 180.788 154.434 181.012C152.852 181.236 151.237 181.443 149.639 181.675C148.438 181.84 147.245 182.022 146.045 182.213C145.026 182.362 144.455 182.13 143.908 181.401C141.407 178.138 138.848 174.925 136.322 171.704C129.622 163.165 122.923 154.627 116.223 146.089C116.041 145.857 115.825 145.65 115.685 145.393C115.287 144.698 114.625 144.524 113.854 144.507C108.819 144.341 103.792 144.192 98.7571 144.01C93.0014 143.803 87.2458 143.555 81.4984 143.339C77.0678 143.182 72.6454 143.058 68.2231 142.892C63.1299 142.71 58.0451 142.503 52.9519 142.312C50.5337 142.221 48.1072 142.147 45.6145 142.064C45.8629 141.567 46.2853 141.476 46.658 141.36C54.6993 138.743 62.749 136.151 70.7904 133.517C78.2437 131.083 85.6888 128.607 93.1339 126.155C94.724 125.633 96.314 125.153 97.9041 124.648C98.1939 124.557 98.4921 124.449 98.7819 124.077C98.6743 123.563 98.2188 123.174 97.8793 122.735C90.8234 113.733 83.751 104.731 76.6951 95.7371C67.3121 83.7868 57.9374 71.8366 48.5461 59.8863C48.1652 59.3894 47.8339 58.8429 47.2708 58.4453C46.7076 58.9174 46.5586 59.5302 46.3101 60.0768C41.5234 70.5198 36.745 80.9628 31.9582 91.4059C23.6436 109.559 15.3372 127.72 7.02253 145.874C6.31032 147.43 6.37657 147.538 5.29169 147.687C5.07637 147.72 4.81136 147.753 4.48838 147.795C3.271 147.969 2.06189 148.118 0.844507 148.259C0.687158 147.29 0.919041 146.784 1.15092 146.279C13.3248 119.696 25.4904 93.1036 37.6725 66.5116C47.1631 45.7912 56.6372 25.0542 66.1444 4.34208C66.9974 2.48701 66.8483 2.30482 67.809 2.17231C70.0367 1.8659 70.7572 1.75824 71.4777 1.65886C72.1982 1.55948 72.927 1.4601 73.6475 1.35244C74.2934 1.26134 74.9311 1.17025 75.5771 1.07915C76.223 0.988054 76.8607 0.896957 77.5067 0.797579L77.5232 0.814142Z" fill="white"/>
</mask>
<g mask="url(#mask0_1906_5570)">
<path d="M77.5232 0.814142C78.1526 0.723045 78.5833 0.838986 78.9311 1.3276C79.3783 1.94871 79.8752 2.52842 80.3472 3.12469C124.281 59.0996 168.214 115.083 212.148 171.058C212.504 171.513 212.835 171.985 213.382 172.739L211.618 172.987C208.984 173.36 206.351 173.733 203.717 174.097C202.401 174.279 201.084 174.47 199.767 174.652C197.995 174.909 198.111 174.809 197.216 173.666C191.229 166.064 185.266 158.445 179.287 150.826C143.13 104.772 106.981 58.7186 70.8318 12.665C70.2935 11.9859 69.8545 11.2075 69.0595 10.6609C68.9022 10.9093 68.7531 11.1081 68.6537 11.3151C67.5191 13.7665 66.426 16.2426 65.2583 18.6774C64.9187 19.3896 64.9933 19.87 65.457 20.4497C68.6703 24.4911 71.8421 28.5656 75.0305 32.6235C112.19 79.9773 149.349 127.323 186.508 174.677C186.864 175.124 187.32 175.521 187.477 176.093C187.353 176.366 187.154 176.441 186.939 176.474C184.819 176.755 183.113 176.996 181.407 177.236C180.388 177.376 179.37 177.517 178.343 177.666C176.811 177.882 175.278 178.097 173.755 178.329C172.844 178.461 172.305 178.246 171.775 177.567C167.867 172.507 163.9 167.497 159.949 162.461C126.624 120.01 93.2913 77.5508 59.9664 35.0997C59.5772 34.6028 59.1714 34.1142 58.8153 33.6753C58.2521 33.7498 58.219 34.0893 58.1196 34.3047C56.72 37.3191 55.3701 40.3502 53.954 43.3481C53.5565 44.1845 53.6393 44.7642 54.1776 45.4433C57.3246 49.3936 60.4301 53.3688 63.5357 57.3356C95.2706 97.7578 126.989 138.188 158.724 178.61C158.972 178.933 159.237 179.248 159.477 179.588C159.759 179.985 159.643 180.267 159.171 180.333C157.597 180.565 156.016 180.788 154.434 181.012C152.852 181.236 151.237 181.443 149.639 181.675C148.438 181.84 147.245 182.022 146.045 182.213C145.026 182.362 144.455 182.13 143.908 181.401C141.407 178.138 138.848 174.925 136.322 171.704C129.622 163.165 122.923 154.627 116.223 146.089C116.041 145.857 115.825 145.65 115.685 145.393C115.287 144.698 114.625 144.524 113.854 144.507C108.819 144.341 103.792 144.192 98.7571 144.01C93.0014 143.803 87.2458 143.555 81.4984 143.339C77.0678 143.182 72.6454 143.058 68.2231 142.892C63.1299 142.71 58.0451 142.503 52.9519 142.312C50.5337 142.221 48.1072 142.147 45.6145 142.064C45.8629 141.567 46.2853 141.476 46.658 141.36C54.6993 138.743 62.749 136.151 70.7904 133.517C78.2437 131.083 85.6888 128.607 93.1339 126.155C94.724 125.633 96.314 125.153 97.9041 124.648C98.1939 124.557 98.4921 124.449 98.7819 124.077C98.6743 123.563 98.2188 123.174 97.8793 122.735C90.8234 113.733 83.751 104.731 76.6951 95.7371C67.3121 83.7868 57.9374 71.8366 48.5461 59.8863C48.1652 59.3894 47.8339 58.8429 47.2708 58.4453C46.7076 58.9174 46.5586 59.5302 46.3101 60.0768C41.5234 70.5198 36.745 80.9628 31.9582 91.4059C23.6436 109.559 15.3372 127.72 7.02253 145.874C6.31032 147.43 6.37657 147.538 5.29169 147.687C5.07637 147.72 4.81136 147.753 4.48838 147.795C3.271 147.969 2.06189 148.118 0.844507 148.259C0.687158 147.29 0.919041 146.784 1.15092 146.279C13.3248 119.696 25.4904 93.1036 37.6725 66.5116C47.1631 45.7912 56.6372 25.0542 66.1444 4.34208C66.9974 2.48701 66.8483 2.30482 67.809 2.17231C70.0367 1.8659 70.7572 1.75824 71.4777 1.65886C72.1982 1.55948 72.927 1.4601 73.6475 1.35244C74.2934 1.26134 74.9311 1.17025 75.5771 1.07915C76.223 0.988054 76.8607 0.896957 77.5067 0.797579L77.5232 0.814142Z" stroke="white" stroke-width="0.25" stroke-miterlimit="10"/>
</g>
<mask id="mask1_1906_5570" style="mask-type:luminance" maskUnits="userSpaceOnUse" x="14" y="18" width="213" height="182">
<path d="M91.1126 18.4621C91.742 18.371 92.1726 18.4869 92.5205 18.9755C92.9677 19.5967 93.4646 20.1764 93.9366 20.7726C137.87 76.7475 181.804 132.731 225.737 188.706C226.093 189.161 226.425 189.633 226.971 190.387L225.207 190.635C222.574 191.008 219.94 191.381 217.307 191.745C215.99 191.927 214.673 192.118 213.356 192.3C211.584 192.557 211.7 192.457 210.806 191.314C204.818 183.712 198.855 176.093 192.876 168.474C156.727 122.42 120.578 76.3583 84.4294 30.313C83.8911 29.6339 83.4522 28.8554 82.6572 28.3088C82.4998 28.5573 82.3507 28.756 82.2514 28.9631C81.1168 31.4144 80.0236 33.8906 78.8559 36.3254C78.5164 37.0376 78.5909 37.5179 79.0547 38.0976C82.2679 42.139 85.4398 46.2135 88.6282 50.2715C125.787 97.6253 162.947 144.971 200.106 192.325C200.462 192.772 200.917 193.169 201.075 193.741C200.951 194.014 200.752 194.089 200.537 194.122C198.416 194.403 196.71 194.643 195.004 194.884C193.986 195.024 192.967 195.165 191.94 195.314C190.408 195.53 188.876 195.745 187.352 195.977C186.441 196.109 185.903 195.894 185.373 195.215C181.464 190.155 177.497 185.145 173.547 180.109C140.222 137.658 106.889 95.1988 73.564 52.7476C73.1748 52.2508 72.769 51.7621 72.4129 51.3232C71.8498 51.3978 71.8166 51.7373 71.7173 51.9526C70.3177 54.9671 68.9678 57.9981 67.5516 60.9961C67.1541 61.8325 67.2369 62.4122 67.7752 63.0913C70.9222 67.0416 74.0278 71.0167 77.1334 74.9836C108.868 115.406 140.587 155.836 172.321 196.258C172.57 196.581 172.835 196.896 173.075 197.236C173.357 197.633 173.241 197.915 172.769 197.981C171.195 198.213 169.613 198.436 168.032 198.66C166.45 198.884 164.835 199.091 163.237 199.323C162.036 199.488 160.843 199.67 159.642 199.861C158.624 200.01 158.052 199.778 157.506 199.049C155.005 195.786 152.446 192.573 149.92 189.352C143.22 180.813 136.52 172.275 129.821 163.737C129.638 163.505 129.423 163.298 129.282 163.041C128.885 162.345 128.222 162.172 127.452 162.155C122.417 161.989 117.39 161.84 112.355 161.658C106.599 161.451 100.843 161.203 95.096 160.987C90.6654 160.83 86.2431 160.706 81.8207 160.54C76.7276 160.358 71.6427 160.151 66.5496 159.96C64.1314 159.869 61.7049 159.795 59.2121 159.712C59.4606 159.215 59.8829 159.124 60.2556 159.008C68.297 156.391 76.3466 153.799 84.388 151.165C91.8414 148.731 99.2865 146.254 106.732 143.803C108.322 143.281 109.912 142.801 111.502 142.296C111.792 142.205 112.09 142.097 112.38 141.724C112.272 141.211 111.816 140.822 111.477 140.383C104.421 131.381 97.3486 122.379 90.2927 113.385C80.9098 101.435 71.5351 89.4845 62.1438 77.5343C61.7629 77.0374 61.4316 76.4908 60.8684 76.0933C60.3053 76.5653 60.1562 77.1782 59.9078 77.7248C55.1211 88.1678 50.3426 98.6108 45.5559 109.054C37.2412 127.207 28.9349 145.368 20.6202 163.521C19.908 165.078 19.9742 165.186 18.8893 165.335C18.674 165.368 18.409 165.401 18.086 165.443C16.8687 165.617 15.6595 165.766 14.4422 165.907C14.2848 164.938 14.5167 164.432 14.7486 163.927C26.9224 137.344 39.088 110.752 51.2702 84.1595C60.7608 63.4391 70.2349 42.7021 79.7421 21.99C80.5951 20.135 80.446 19.9528 81.4067 19.8203C83.6344 19.5138 84.3549 19.4062 85.0754 19.3068C85.7959 19.2074 86.5246 19.1081 87.2451 19.0004C87.8911 18.9093 88.5288 18.8182 89.1747 18.7271C89.8207 18.636 90.4584 18.5449 91.1043 18.4455L91.1126 18.4621Z" fill="white"/>
</mask>
<g mask="url(#mask1_1906_5570)">
<path d="M91.1126 18.4621C91.742 18.371 92.1726 18.4869 92.5205 18.9755C92.9677 19.5967 93.4646 20.1764 93.9366 20.7726C137.87 76.7475 181.804 132.731 225.737 188.706C226.093 189.161 226.425 189.633 226.971 190.387L225.207 190.635C222.574 191.008 219.94 191.381 217.307 191.745C215.99 191.927 214.673 192.118 213.356 192.3C211.584 192.557 211.7 192.457 210.806 191.314C204.818 183.712 198.855 176.093 192.876 168.474C156.727 122.42 120.578 76.3583 84.4294 30.313C83.8911 29.6339 83.4522 28.8554 82.6572 28.3088C82.4998 28.5573 82.3507 28.756 82.2514 28.9631C81.1168 31.4144 80.0236 33.8906 78.8559 36.3254C78.5164 37.0376 78.5909 37.5179 79.0547 38.0976C82.2679 42.139 85.4398 46.2135 88.6282 50.2715C125.787 97.6253 162.947 144.971 200.106 192.325C200.462 192.772 200.917 193.169 201.075 193.741C200.951 194.014 200.752 194.089 200.537 194.122C198.416 194.403 196.71 194.643 195.004 194.884C193.986 195.024 192.967 195.165 191.94 195.314C190.408 195.53 188.876 195.745 187.352 195.977C186.441 196.109 185.903 195.894 185.373 195.215C181.464 190.155 177.497 185.145 173.547 180.109C140.222 137.658 106.889 95.1988 73.564 52.7476C73.1748 52.2508 72.769 51.7621 72.4129 51.3232C71.8498 51.3978 71.8166 51.7373 71.7173 51.9526C70.3177 54.9671 68.9678 57.9981 67.5516 60.9961C67.1541 61.8325 67.2369 62.4122 67.7752 63.0913C70.9222 67.0416 74.0278 71.0167 77.1334 74.9836C108.868 115.406 140.587 155.836 172.321 196.258C172.57 196.581 172.835 196.896 173.075 197.236C173.357 197.633 173.241 197.915 172.769 197.981C171.195 198.213 169.613 198.436 168.032 198.66C166.45 198.884 164.835 199.091 163.237 199.323C162.036 199.488 160.843 199.67 159.642 199.861C158.624 200.01 158.052 199.778 157.506 199.049C155.005 195.786 152.446 192.573 149.92 189.352C143.22 180.813 136.52 172.275 129.821 163.737C129.638 163.505 129.423 163.298 129.282 163.041C128.885 162.345 128.222 162.172 127.452 162.155C122.417 161.989 117.39 161.84 112.355 161.658C106.599 161.451 100.843 161.203 95.096 160.987C90.6654 160.83 86.2431 160.706 81.8207 160.54C76.7276 160.358 71.6427 160.151 66.5496 159.96C64.1314 159.869 61.7049 159.795 59.2121 159.712C59.4606 159.215 59.8829 159.124 60.2556 159.008C68.297 156.391 76.3466 153.799 84.388 151.165C91.8414 148.731 99.2865 146.254 106.732 143.803C108.322 143.281 109.912 142.801 111.502 142.296C111.792 142.205 112.09 142.097 112.38 141.724C112.272 141.211 111.816 140.822 111.477 140.383C104.421 131.381 97.3486 122.379 90.2927 113.385C80.9098 101.435 71.5351 89.4845 62.1438 77.5343C61.7629 77.0374 61.4316 76.4908 60.8684 76.0933C60.3053 76.5653 60.1562 77.1782 59.9078 77.7248C55.1211 88.1678 50.3426 98.6108 45.5559 109.054C37.2412 127.207 28.9349 145.368 20.6202 163.521C19.908 165.078 19.9742 165.186 18.8893 165.335C18.674 165.368 18.409 165.401 18.086 165.443C16.8687 165.617 15.6595 165.766 14.4422 165.907C14.2848 164.938 14.5167 164.432 14.7486 163.927C26.9224 137.344 39.088 110.752 51.2702 84.1595C60.7608 63.4391 70.2349 42.7021 79.7421 21.99C80.5951 20.135 80.446 19.9528 81.4067 19.8203C83.6344 19.5138 84.3549 19.4062 85.0754 19.3068C85.7959 19.2074 86.5246 19.1081 87.2451 19.0004C87.8911 18.9093 88.5288 18.8182 89.1747 18.7271C89.8207 18.636 90.4584 18.5449 91.1043 18.4455L91.1126 18.4621Z" stroke="white" stroke-width="0.25" stroke-miterlimit="10"/>
</g>
<mask id="mask2_1906_5570" style="mask-type:luminance" maskUnits="userSpaceOnUse" x="78" y="1" width="15" height="19">
<path d="M92.4791 18.9175C92.4791 18.9175 92.504 18.9589 92.5205 18.9755C92.6282 19.1245 92.7359 19.2653 92.8435 19.4061L79.2452 1.75814C79.1376 1.61736 79.0299 1.47657 78.9223 1.3275C78.9057 1.31094 78.8974 1.28609 78.8809 1.26953C82.9554 6.56143 88.3963 13.6256 92.4709 18.9175H92.4791Z" fill="white"/>
</mask>
<g mask="url(#mask2_1906_5570)">
<path d="M91.1134 18.4621L77.5234 0.814142C78.1528 0.723045 78.5835 0.838986 78.9313 1.3276L92.5213 18.9755C92.1735 18.4869 91.7428 18.371 91.1134 18.4621Z" stroke="white" stroke-width="0.25" stroke-miterlimit="10"/>
<path d="M92.5216 18.9756L78.9316 1.32764C79.3788 1.94875 79.8757 2.52846 80.3478 3.12473L93.9378 20.7727C93.4657 20.1764 92.9688 19.5967 92.5216 18.9756Z" stroke="white" stroke-width="0.25" stroke-miterlimit="10"/>
<path d="M92.4791 18.9175C92.4791 18.9175 92.504 18.9589 92.5205 18.9755C92.6282 19.1245 92.7359 19.2653 92.8435 19.4061L79.2452 1.75814C79.1376 1.61736 79.0299 1.47657 78.9223 1.3275C78.9057 1.31094 78.8974 1.28609 78.8809 1.26953C82.9554 6.56143 88.3963 13.6256 92.4709 18.9175H92.4791Z" stroke="white" stroke-width="0.25" stroke-miterlimit="10"/>
</g>
<mask id="mask3_1906_5570" style="mask-type:luminance" maskUnits="userSpaceOnUse" x="77" y="0" width="16" height="19">
<path d="M78.8899 1.2697L92.4799 18.9176C92.1404 18.4787 91.718 18.3711 91.1134 18.4622L77.5234 0.814211C78.128 0.731396 78.5503 0.830774 78.8899 1.2697Z" fill="white"/>
</mask>
<g mask="url(#mask3_1906_5570)">
<path d="M92.1408 18.6113L78.5508 0.955078" stroke="white" stroke-width="0.25" stroke-miterlimit="10"/>
</g>
<mask id="mask4_1906_5570" style="mask-type:luminance" maskUnits="userSpaceOnUse" x="79" y="1" width="147" height="188">
<path d="M92.8361 19.4063L79.2461 1.7583C79.6022 2.22207 79.9749 2.66927 80.3393 3.12475C124.273 59.0996 168.206 115.083 212.14 171.058C212.165 171.091 212.198 171.132 212.223 171.165L225.813 188.813C225.813 188.813 225.755 188.739 225.73 188.706C181.805 132.731 137.871 76.7476 93.9293 20.7727C93.5649 20.3172 93.1922 19.87 92.8361 19.4063Z" fill="white"/>
</mask>
<g mask="url(#mask4_1906_5570)">
<path d="M92.5216 18.9756L78.9316 1.32764C79.3788 1.94875 79.8757 2.52846 80.3478 3.12473L93.9378 20.7727C93.4657 20.1764 92.9688 19.5967 92.5216 18.9756Z" stroke="white" stroke-width="0.25" stroke-miterlimit="10"/>
<path d="M92.9767 19.5884L79.3867 1.94043" stroke="white" stroke-width="0.25" stroke-miterlimit="10"/>
<path d="M93.4572 20.1846L79.8672 2.52832" stroke="white" stroke-width="0.25" stroke-miterlimit="10"/>
<path d="M93.9298 20.7725L80.3398 3.12451C124.273 59.0994 168.207 115.083 212.14 171.057L225.73 188.705C181.805 132.731 137.872 76.7474 93.9298 20.7725Z" stroke="white" stroke-width="0.25" stroke-miterlimit="10"/>
<path d="M137.872 76.7476L124.273 59.0996" stroke="white" stroke-width="0.25" stroke-miterlimit="10"/>
<path d="M181.805 132.73L168.215 115.074" stroke="white" stroke-width="0.25" stroke-miterlimit="10"/>
<path d="M225.738 188.706L212.148 171.058C212.505 171.513 212.836 171.985 213.382 172.739L226.972 190.387C226.418 189.633 226.095 189.161 225.738 188.706Z" stroke="white" stroke-width="0.25" stroke-miterlimit="10"/>
<path d="M92.8361 19.4063L79.2461 1.7583C79.6022 2.22207 79.9749 2.66927 80.3393 3.12475C124.273 59.0996 168.206 115.083 212.14 171.058C212.165 171.091 212.198 171.132 212.223 171.165L225.813 188.813C225.813 188.813 225.755 188.739 225.73 188.706C181.805 132.731 137.871 76.7476 93.9293 20.7727C93.5649 20.3172 93.1922 19.87 92.8361 19.4063Z" stroke="white" stroke-width="0.25" stroke-miterlimit="10"/>
</g>
<mask id="mask5_1906_5570" style="mask-type:luminance" maskUnits="userSpaceOnUse" x="212" y="171" width="15" height="20">
<path d="M225.82 188.813C226.143 189.236 226.466 189.691 226.972 190.387L213.382 172.739C212.876 172.043 212.553 171.588 212.23 171.166C216.305 176.457 221.746 183.522 225.82 188.813Z" fill="white"/>
</mask>
<g mask="url(#mask5_1906_5570)">
<path d="M225.738 188.706L212.148 171.058C212.505 171.514 212.836 171.986 213.382 172.739L226.972 190.387C226.418 189.634 226.095 189.162 225.738 188.706Z" stroke="white" stroke-width="0.25" stroke-miterlimit="10"/>
<path d="M226.094 189.178L212.504 171.53" stroke="white" stroke-width="0.25" stroke-miterlimit="10"/>
<path d="M226.485 189.716L212.895 172.068" stroke="white" stroke-width="0.25" stroke-miterlimit="10"/>
<path d="M225.82 188.813C226.143 189.236 226.466 189.691 226.972 190.387L213.382 172.739C212.876 172.043 212.553 171.588 212.23 171.166C216.305 176.457 221.746 183.522 225.82 188.813Z" stroke="white" stroke-width="0.25" stroke-miterlimit="10"/>
</g>
<mask id="mask6_1906_5570" style="mask-type:luminance" maskUnits="userSpaceOnUse" x="197" y="173" width="15" height="19">
<path d="M211.104 191.704L197.514 174.056C197.456 173.981 197.398 173.907 197.332 173.815L210.922 191.463C210.988 191.546 211.046 191.629 211.104 191.704Z" fill="white"/>
</mask>
<g mask="url(#mask6_1906_5570)">
<path d="M213.358 192.308L199.768 174.66C197.995 174.917 198.111 174.818 197.217 173.675L210.807 191.323C211.701 192.466 211.585 192.565 213.358 192.308Z" stroke="white" stroke-width="0.25" stroke-miterlimit="10"/>
<path d="M211.104 191.704L197.514 174.056C197.456 173.981 197.398 173.907 197.332 173.815L210.922 191.463C210.988 191.546 211.046 191.629 211.104 191.704Z" stroke="white" stroke-width="0.25" stroke-miterlimit="10"/>
</g>
<mask id="mask7_1906_5570" style="mask-type:luminance" maskUnits="userSpaceOnUse" x="197" y="172" width="30" height="21">
<path d="M197.514 174.056C198.11 174.834 198.226 174.884 199.766 174.66C201.083 174.478 202.4 174.296 203.717 174.105C206.35 173.733 208.984 173.36 211.617 172.996L213.381 172.747L226.971 190.395C226.159 190.511 225.687 190.577 225.207 190.643C222.574 191.016 219.94 191.389 217.307 191.753C215.99 191.935 214.673 192.126 213.356 192.308C211.816 192.532 211.7 192.482 211.104 191.704C207.029 186.412 201.588 179.347 197.514 174.056Z" fill="white"/>
</mask>
<g mask="url(#mask7_1906_5570)">
<path d="M225.207 190.635L226.971 190.387L213.381 172.739L211.617 172.987" stroke="white" stroke-width="0.25" stroke-miterlimit="10"/>
<path d="M211.608 172.987C208.974 173.36 206.341 173.733 203.707 174.097" stroke="white" stroke-width="0.25" stroke-miterlimit="10"/>
<path d="M217.305 191.753C219.938 191.381 222.572 191.008 225.205 190.644" stroke="white" stroke-width="0.25" stroke-miterlimit="10"/>
<path d="M213.355 192.308C214.672 192.126 215.989 191.944 217.306 191.753" stroke="white" stroke-width="0.25" stroke-miterlimit="10"/>
<path d="M203.716 174.105C202.399 174.288 201.082 174.478 199.766 174.66" stroke="white" stroke-width="0.25" stroke-miterlimit="10"/>
<path d="M199.766 174.652C197.993 174.909 198.109 174.809 197.215 173.667L210.805 191.314C211.699 192.457 211.583 192.557 213.356 192.3" stroke="white" stroke-width="0.25" stroke-miterlimit="10"/>
<path d="M211.467 192.134L197.877 174.486" stroke="white" stroke-width="0.25" stroke-miterlimit="10"/>
<path d="M197.514 174.056C198.11 174.834 198.226 174.884 199.766 174.66C201.083 174.478 202.4 174.296 203.717 174.105C206.35 173.733 208.984 173.36 211.617 172.996L213.381 172.747L226.971 190.395C226.159 190.511 225.687 190.577 225.207 190.643C222.574 191.016 219.94 191.389 217.307 191.753C215.99 191.935 214.673 192.126 213.356 192.308C211.816 192.532 211.7 192.482 211.104 191.704C207.029 186.412 201.588 179.347 197.514 174.056Z" stroke="white" stroke-width="0.25" stroke-miterlimit="10"/>
</g>
<mask id="mask8_1906_5570" style="mask-type:luminance" maskUnits="userSpaceOnUse" x="70" y="12" width="141" height="180">
<path d="M210.922 191.463C210.889 191.413 210.847 191.364 210.806 191.314C204.818 183.712 198.856 176.093 192.876 168.474C156.727 122.42 120.579 76.3581 84.4297 30.3128C84.4048 30.2797 84.38 30.2548 84.3634 30.2217L70.7734 12.5737C70.7734 12.5737 70.8231 12.6317 70.8397 12.6648C106.989 58.7184 143.137 104.78 179.286 150.826C185.266 158.445 191.237 166.064 197.216 173.666C197.257 173.716 197.299 173.766 197.332 173.815C201.406 179.107 206.847 186.171 210.922 191.463Z" fill="white"/>
</mask>
<g mask="url(#mask8_1906_5570)">
<path d="M213.356 192.308L199.766 174.66C197.993 174.917 198.109 174.817 197.215 173.674L210.805 191.322C211.699 192.465 211.583 192.564 213.356 192.308Z" stroke="white" stroke-width="0.25" stroke-miterlimit="10"/>
<path d="M210.805 191.314L197.215 173.666C191.227 166.064 185.264 158.445 179.285 150.826L192.875 168.474C198.854 176.093 204.825 183.712 210.805 191.314Z" stroke="white" stroke-width="0.25" stroke-miterlimit="10"/>
<path d="M204.826 183.712L191.236 166.056" stroke="white" stroke-width="0.25" stroke-miterlimit="10"/>
<path d="M198.846 176.093L185.256 158.445" stroke="white" stroke-width="0.25" stroke-miterlimit="10"/>
<path d="M192.875 168.482L179.285 150.834C143.128 104.772 106.979 58.7182 70.8301 12.6646L84.4201 30.3125C120.569 76.3661 156.718 122.428 192.867 168.473L192.875 168.482Z" stroke="white" stroke-width="0.25" stroke-miterlimit="10"/>
<path d="M156.717 122.428L143.127 104.772" stroke="white" stroke-width="0.25" stroke-miterlimit="10"/>
<path d="M120.569 76.3662L106.979 58.7183" stroke="white" stroke-width="0.25" stroke-miterlimit="10"/>
<path d="M84.4208 30.3127L70.8308 12.6648C70.2925 11.9857 69.8536 11.2072 69.0586 10.6606L82.6486 28.3086C83.4353 28.8552 83.8825 29.6336 84.4208 30.3127Z" stroke="white" stroke-width="0.25" stroke-miterlimit="10"/>
<path d="M210.922 191.463C210.889 191.413 210.847 191.364 210.806 191.314C204.818 183.712 198.856 176.093 192.876 168.474C156.727 122.42 120.579 76.3581 84.4297 30.3128C84.4048 30.2797 84.38 30.2548 84.3634 30.2217L70.7734 12.5737C70.7734 12.5737 70.8231 12.6317 70.8397 12.6648C106.989 58.7184 143.137 104.78 179.286 150.826C185.266 158.445 191.237 166.064 197.216 173.666C197.257 173.716 197.299 173.766 197.332 173.815C201.406 179.107 206.847 186.171 210.922 191.463Z" stroke="white" stroke-width="0.25" stroke-miterlimit="10"/>
</g>
<mask id="mask9_1906_5570" style="mask-type:luminance" maskUnits="userSpaceOnUse" x="70" y="11" width="15" height="20">
<path d="M84.3561 30.23L70.7661 12.582C70.5508 12.3087 70.352 12.0106 70.1367 11.729L83.7267 29.377C83.942 29.6585 84.1491 29.9484 84.3561 30.23Z" fill="white"/>
</mask>
<g mask="url(#mask9_1906_5570)">
<path d="M84.4228 30.3127L70.8328 12.6648C70.2945 11.9857 69.8556 11.2072 69.0605 10.6606L82.6505 28.3086C83.4373 28.8552 83.8845 29.6336 84.4228 30.3127Z" stroke="white" stroke-width="0.25" stroke-miterlimit="10"/>
<path d="M83.9005 29.6172L70.3105 11.9609" stroke="white" stroke-width="0.25" stroke-miterlimit="10"/>
<path d="M84.3561 30.23L70.7661 12.582C70.5508 12.3087 70.352 12.0106 70.1367 11.729L83.7267 29.377C83.942 29.6585 84.1491 29.9484 84.3561 30.23Z" stroke="white" stroke-width="0.25" stroke-miterlimit="10"/>
</g>
<mask id="mask10_1906_5570" style="mask-type:luminance" maskUnits="userSpaceOnUse" x="65" y="20" width="136" height="174">
<path d="M79.0138 38.0479L65.4238 20.3999C65.4238 20.3999 65.4487 20.433 65.4652 20.4496C68.6785 24.491 71.8503 28.5655 75.0387 32.6234C112.198 79.9773 149.357 127.323 186.516 174.677C186.699 174.909 186.914 175.132 187.096 175.364L200.686 193.012C200.504 192.772 200.289 192.556 200.106 192.325C162.947 144.971 125.788 97.6252 88.6287 50.2714C85.4403 46.2134 82.2685 42.1389 79.0552 38.0975C79.0387 38.081 79.0304 38.0644 79.0138 38.0479Z" fill="white"/>
</mask>
<g mask="url(#mask10_1906_5570)">
<path d="M78.8572 36.3335L65.2672 18.6855C64.9277 19.3978 65.0022 19.8781 65.466 20.4578L79.056 38.1057C78.5922 37.526 78.5177 37.0457 78.8572 36.3335Z" stroke="white" stroke-width="0.25" stroke-miterlimit="10"/>
<path d="M79.0568 38.106L65.4668 20.458C68.68 24.4994 71.8519 28.5739 75.0402 32.6319L88.6303 50.2798C85.4419 46.2219 82.27 42.1473 79.0568 38.106Z" stroke="white" stroke-width="0.25" stroke-miterlimit="10"/>
<path d="M82.2541 42.1557L68.6641 24.4995" stroke="white" stroke-width="0.25" stroke-miterlimit="10"/>
<path d="M85.4416 46.2134L71.8516 28.5654" stroke="white" stroke-width="0.25" stroke-miterlimit="10"/>
<path d="M88.6291 50.2715L75.0391 32.6235C112.198 79.9774 149.358 127.323 186.517 174.677L200.107 192.325C162.948 144.971 125.788 97.6253 88.6291 50.2715Z" stroke="white" stroke-width="0.25" stroke-miterlimit="10"/>
<path d="M125.789 97.6255L112.199 79.9692" stroke="white" stroke-width="0.25" stroke-miterlimit="10"/>
<path d="M162.947 144.971L149.357 127.323" stroke="white" stroke-width="0.25" stroke-miterlimit="10"/>
<path d="M200.108 192.325L186.518 174.677C186.874 175.124 187.329 175.521 187.487 176.093L201.077 193.741C200.919 193.169 200.464 192.772 200.108 192.325Z" stroke="white" stroke-width="0.25" stroke-miterlimit="10"/>
<path d="M200.481 192.764L186.891 175.107" stroke="white" stroke-width="0.25" stroke-miterlimit="10"/>
<path d="M79.0138 38.0479L65.4238 20.3999C65.4238 20.3999 65.4487 20.433 65.4652 20.4496C68.6785 24.491 71.8503 28.5655 75.0387 32.6234C112.198 79.9773 149.357 127.323 186.516 174.677C186.699 174.909 186.914 175.132 187.096 175.364L200.686 193.012C200.504 192.772 200.289 192.556 200.106 192.325C162.947 144.971 125.788 97.6252 88.6287 50.2714C85.4403 46.2134 82.2685 42.1389 79.0552 38.0975C79.0387 38.081 79.0304 38.0644 79.0138 38.0479Z" stroke="white" stroke-width="0.25" stroke-miterlimit="10"/>
</g>
<mask id="mask11_1906_5570" style="mask-type:luminance" maskUnits="userSpaceOnUse" x="65" y="10" width="18" height="29">
<path d="M65.4248 20.3997C64.9941 19.8449 64.9362 19.3645 65.2674 18.6772C66.4351 16.2424 67.5283 13.7662 68.6629 11.3149C68.7622 11.1078 68.9113 10.9091 69.0686 10.6606L82.6586 28.3086C82.5013 28.557 82.3522 28.7558 82.2529 28.9628C81.1183 31.4142 80.0251 33.8904 78.8574 36.3251C78.5262 37.0125 78.5924 37.4928 79.0148 38.0477C74.9403 32.7558 69.4993 25.6916 65.4248 20.3997Z" fill="white"/>
</mask>
<g mask="url(#mask11_1906_5570)">
<path d="M82.2443 28.9628C82.3437 28.7558 82.4927 28.557 82.6501 28.3086L69.0601 10.6606C68.9027 10.9091 68.7537 11.1078 68.6543 11.3149" stroke="white" stroke-width="0.25" stroke-miterlimit="10"/>
<path d="M78.8574 36.3335C80.0251 33.8987 81.1183 31.4225 82.2529 28.9712" stroke="white" stroke-width="0.25" stroke-miterlimit="10"/>
<path d="M68.6552 11.3149C67.5206 13.7663 66.4275 16.2425 65.2598 18.6772" stroke="white" stroke-width="0.25" stroke-miterlimit="10"/>
<path d="M65.2672 18.6772C64.9277 19.3895 65.0022 19.8698 65.466 20.4495L79.056 38.0974C78.5922 37.5177 78.5177 37.0374 78.8572 36.3252" stroke="white" stroke-width="0.25" stroke-miterlimit="10"/>
<path d="M78.717 37.5425L65.127 19.8945" stroke="white" stroke-width="0.25" stroke-miterlimit="10"/>
<path d="M65.4248 20.3997C64.9941 19.8449 64.9362 19.3645 65.2674 18.6772C66.4351 16.2424 67.5283 13.7662 68.6629 11.3149C68.7622 11.1078 68.9113 10.9091 69.0686 10.6606L82.6586 28.3086C82.5013 28.557 82.3522 28.7558 82.2529 28.9628C81.1183 31.4142 80.0251 33.8904 78.8574 36.3251C78.5262 37.0125 78.5924 37.4928 79.0148 38.0477C74.9403 32.7558 69.4993 25.6916 65.4248 20.3997Z" stroke="white" stroke-width="0.25" stroke-miterlimit="10"/>
</g>
<mask id="mask12_1906_5570" style="mask-type:luminance" maskUnits="userSpaceOnUse" x="187" y="175" width="15" height="19">
<path d="M200.686 193.012C200.851 193.228 201 193.468 201.075 193.741L187.485 176.093C187.41 175.82 187.261 175.58 187.096 175.364C191.17 180.656 196.611 187.72 200.686 193.012Z" fill="white"/>
</mask>
<g mask="url(#mask12_1906_5570)">
<path d="M200.106 192.325L186.516 174.677C186.872 175.124 187.327 175.521 187.485 176.093L201.075 193.741C200.917 193.169 200.462 192.772 200.106 192.325Z" stroke="white" stroke-width="0.25" stroke-miterlimit="10"/>
<path d="M200.834 193.219L187.244 175.571" stroke="white" stroke-width="0.25" stroke-miterlimit="10"/>
<path d="M200.686 193.012C200.851 193.228 201 193.468 201.075 193.741L187.485 176.093C187.41 175.82 187.261 175.58 187.096 175.364C191.17 180.656 196.611 187.72 200.686 193.012Z" stroke="white" stroke-width="0.25" stroke-miterlimit="10"/>
</g>
<mask id="mask13_1906_5570" style="mask-type:luminance" maskUnits="userSpaceOnUse" x="58" y="33" width="144" height="164">
<path d="M201.076 193.741C200.952 194.014 200.753 194.089 200.538 194.122C198.418 194.403 196.712 194.643 195.006 194.884C193.987 195.024 192.969 195.165 191.942 195.314C190.41 195.53 188.877 195.745 187.354 195.977C186.443 196.109 185.904 195.894 185.374 195.215C181.465 190.155 177.499 185.145 173.548 180.109C140.223 137.658 106.89 95.1988 73.5653 52.7477C73.1761 52.2508 72.7703 51.7622 72.4142 51.3232L58.8242 33.6753C59.1803 34.1059 59.5861 34.5945 59.9754 35.0997C93.3003 77.5509 126.633 120.01 159.958 162.461C163.909 167.488 167.867 172.507 171.784 177.567C172.306 178.246 172.853 178.453 173.764 178.329C175.296 178.097 176.82 177.882 178.352 177.666C179.37 177.526 180.389 177.385 181.416 177.236C183.114 176.996 184.828 176.755 186.948 176.474C187.155 176.441 187.354 176.366 187.486 176.093C191.561 181.385 197.002 188.449 201.076 193.741Z" fill="white"/>
</mask>
<g mask="url(#mask13_1906_5570)">
<path d="M200.537 194.122C200.744 194.089 200.943 194.014 201.076 193.741L187.486 176.093C187.361 176.366 187.163 176.441 186.947 176.474" stroke="white" stroke-width="0.25" stroke-miterlimit="10"/>
<path d="M200.926 193.956L187.336 176.3" stroke="white" stroke-width="0.25" stroke-miterlimit="10"/>
<path d="M186.948 176.474C184.828 176.755 183.122 176.995 181.416 177.236" stroke="white" stroke-width="0.25" stroke-miterlimit="10"/>
<path d="M195.014 194.883C196.711 194.643 198.426 194.403 200.546 194.122" stroke="white" stroke-width="0.25" stroke-miterlimit="10"/>
<path d="M191.949 195.314C192.968 195.174 193.986 195.033 195.013 194.884" stroke="white" stroke-width="0.25" stroke-miterlimit="10"/>
<path d="M181.424 177.236C180.405 177.377 179.386 177.517 178.359 177.666" stroke="white" stroke-width="0.25" stroke-miterlimit="10"/>
<path d="M187.361 195.969C188.893 195.737 190.417 195.521 191.949 195.306" stroke="white" stroke-width="0.25" stroke-miterlimit="10"/>
<path d="M178.359 177.658C176.827 177.874 175.295 178.089 173.771 178.321" stroke="white" stroke-width="0.25" stroke-miterlimit="10"/>
<path d="M173.762 178.32C172.852 178.453 172.313 178.238 171.783 177.559L185.373 195.207C185.895 195.886 186.442 196.093 187.352 195.968" stroke="white" stroke-width="0.25" stroke-miterlimit="10"/>
<path d="M185.92 195.736L172.33 178.088" stroke="white" stroke-width="0.25" stroke-miterlimit="10"/>
<path d="M185.383 195.215L171.793 177.567C167.884 172.507 163.917 167.497 159.967 162.461L173.557 180.109C177.507 185.136 181.466 190.155 185.383 195.215Z" stroke="white" stroke-width="0.25" stroke-miterlimit="10"/>
<path d="M181.449 190.171L167.859 172.515" stroke="white" stroke-width="0.25" stroke-miterlimit="10"/>
<path d="M177.508 185.136L163.918 167.488" stroke="white" stroke-width="0.25" stroke-miterlimit="10"/>
<path d="M173.555 180.109L159.965 162.461C126.64 120.01 93.3073 77.5508 59.9824 35.0996L73.5724 52.7476C106.897 95.1987 140.231 137.658 173.555 180.109Z" stroke="white" stroke-width="0.25" stroke-miterlimit="10"/>
<path d="M140.223 137.658L126.633 120.01" stroke="white" stroke-width="0.25" stroke-miterlimit="10"/>
<path d="M106.897 95.207L93.3066 77.5508" stroke="white" stroke-width="0.25" stroke-miterlimit="10"/>
<path d="M73.5732 52.7477L59.9832 35.0997C59.5939 34.6028 59.1881 34.1142 58.832 33.6753L72.422 51.3232C72.7781 51.7539 73.1839 52.2425 73.5732 52.7477Z" stroke="white" stroke-width="0.25" stroke-miterlimit="10"/>
<path d="M73.1759 52.2593L59.5859 34.603" stroke="white" stroke-width="0.25" stroke-miterlimit="10"/>
<path d="M72.7873 51.7788L59.1973 34.1309" stroke="white" stroke-width="0.25" stroke-miterlimit="10"/>
<path d="M201.076 193.741C200.952 194.014 200.753 194.089 200.538 194.122C198.418 194.403 196.712 194.643 195.006 194.884C193.987 195.024 192.969 195.165 191.942 195.314C190.41 195.53 188.877 195.745 187.354 195.977C186.443 196.109 185.904 195.894 185.374 195.215C181.465 190.155 177.499 185.145 173.548 180.109C140.223 137.658 106.89 95.1988 73.5653 52.7477C73.1761 52.2508 72.7703 51.7622 72.4142 51.3232L58.8242 33.6753C59.1803 34.1059 59.5861 34.5945 59.9754 35.0997C93.3003 77.5509 126.633 120.01 159.958 162.461C163.909 167.488 167.867 172.507 171.784 177.567C172.306 178.246 172.853 178.453 173.764 178.329C175.296 178.097 176.82 177.882 178.352 177.666C179.37 177.526 180.389 177.385 181.416 177.236C183.114 176.996 184.828 176.755 186.948 176.474C187.155 176.441 187.354 176.366 187.486 176.093C191.561 181.385 197.002 188.449 201.076 193.741Z" stroke="white" stroke-width="0.25" stroke-miterlimit="10"/>
</g>
<mask id="mask14_1906_5570" style="mask-type:luminance" maskUnits="userSpaceOnUse" x="54" y="45" width="119" height="152">
<path d="M67.7345 63.0415L54.1445 45.3936C54.1445 45.3936 54.1694 45.4267 54.1859 45.4515C57.3329 49.4018 60.4385 53.377 63.5441 57.3438C95.2789 97.766 126.997 138.196 158.732 178.619L172.322 196.267C140.587 155.844 108.869 115.414 77.1341 74.9918C74.0202 71.0249 70.9229 67.0498 67.7759 63.0995C67.7594 63.0829 67.7428 63.0664 67.7345 63.0415Z" fill="white"/>
</mask>
<g mask="url(#mask14_1906_5570)">
<path d="M67.5514 61.0044L53.9614 43.3564C53.5639 44.1929 53.6467 44.7726 54.185 45.4517L67.775 63.0996C67.2284 62.4205 67.1539 61.8325 67.5514 61.0044Z" stroke="white" stroke-width="0.25" stroke-miterlimit="10"/>
<path d="M67.7834 63.0996L54.1934 45.4517C57.3403 49.402 60.4459 53.3771 63.5515 57.3439L77.1415 74.9919C74.0276 71.025 70.9303 67.0499 67.7834 63.0996Z" stroke="white" stroke-width="0.25" stroke-miterlimit="10"/>
<path d="M70.9142 67.0581L57.3242 49.4102" stroke="white" stroke-width="0.25" stroke-miterlimit="10"/>
<path d="M74.0275 71.0249L60.4375 53.377" stroke="white" stroke-width="0.25" stroke-miterlimit="10"/>
<path d="M77.1408 74.9917L63.5508 57.3438C95.2856 97.7659 127.004 138.196 158.739 178.619L172.329 196.266C140.594 155.844 108.876 115.414 77.1408 74.9917Z" stroke="white" stroke-width="0.25" stroke-miterlimit="10"/>
<path d="M108.867 115.422L95.2773 97.7661" stroke="white" stroke-width="0.25" stroke-miterlimit="10"/>
<path d="M140.602 155.844L127.004 138.196" stroke="white" stroke-width="0.25" stroke-miterlimit="10"/>
<path d="M67.7345 63.0415L54.1445 45.3936C54.1445 45.3936 54.1694 45.4267 54.1859 45.4515C57.3329 49.4018 60.4385 53.377 63.5441 57.3438C95.2789 97.766 126.997 138.196 158.732 178.619L172.322 196.267C140.587 155.844 108.869 115.414 77.1341 74.9918C74.0202 71.0249 70.9229 67.0498 67.7759 63.0995C67.7594 63.0829 67.7428 63.0664 67.7345 63.0415Z" stroke="white" stroke-width="0.25" stroke-miterlimit="10"/>
</g>
<mask id="mask15_1906_5570" style="mask-type:luminance" maskUnits="userSpaceOnUse" x="53" y="33" width="20" height="31">
<path d="M54.1439 45.3937C53.6387 44.7394 53.5725 44.1597 53.9617 43.3481C55.3778 40.3502 56.7277 37.3192 58.1273 34.3047C58.2267 34.0894 58.2598 33.7498 58.823 33.6753L72.413 51.3232C71.8498 51.3978 71.8167 51.7373 71.7173 51.9526C70.3177 54.9671 68.9678 57.9982 67.5517 60.9961C67.1625 61.8077 67.2287 62.3874 67.7339 63.0416C63.6594 57.7497 58.2184 50.6856 54.1439 45.3937Z" fill="white"/>
</mask>
<g mask="url(#mask15_1906_5570)">
<path d="M71.7189 51.9609C71.8183 51.7456 71.8514 51.4061 72.4146 51.3315L58.8246 33.6836C58.2614 33.7581 58.2283 34.0977 58.1289 34.313" stroke="white" stroke-width="0.25" stroke-miterlimit="10"/>
<path d="M67.3952 62.437L53.7969 44.7891" stroke="white" stroke-width="0.25" stroke-miterlimit="10"/>
</g>
<mask id="mask16_1906_5570" style="mask-type:luminance" maskUnits="userSpaceOnUse" x="158" y="178" width="15" height="19">
<path d="M172.356 196.3L158.766 178.652C158.94 178.875 159.122 179.099 159.296 179.331L172.886 196.979C172.712 196.747 172.53 196.523 172.356 196.3Z" fill="white"/>
</mask>
<g mask="url(#mask16_1906_5570)">
<path d="M172.33 196.267L158.74 178.619C158.989 178.942 159.254 179.256 159.494 179.596L173.084 197.244C172.844 196.913 172.579 196.598 172.33 196.267Z" stroke="white" stroke-width="0.25" stroke-miterlimit="10"/>
<path d="M172.578 196.589L158.988 178.941" stroke="white" stroke-width="0.25" stroke-miterlimit="10"/>
<path d="M172.836 196.913L159.246 179.265" stroke="white" stroke-width="0.25" stroke-miterlimit="10"/>
<path d="M172.356 196.3L158.766 178.652C158.94 178.875 159.122 179.099 159.296 179.331L172.886 196.979C172.712 196.747 172.53 196.523 172.356 196.3Z" stroke="white" stroke-width="0.25" stroke-miterlimit="10"/>
</g>
<mask id="mask17_1906_5570" style="mask-type:luminance" maskUnits="userSpaceOnUse" x="158" y="178" width="15" height="19">
<path d="M158.765 178.652C158.765 178.652 158.749 178.635 158.74 178.619L172.33 196.267C172.33 196.267 172.347 196.283 172.355 196.3C168.281 191.008 162.84 183.944 158.765 178.652Z" fill="white"/>
</mask>
<g mask="url(#mask17_1906_5570)">
<path d="M172.33 196.267L158.74 178.619C158.989 178.942 159.254 179.256 159.494 179.596L173.084 197.244C172.844 196.913 172.579 196.598 172.33 196.267Z" stroke="white" stroke-width="0.25" stroke-miterlimit="10"/>
<path d="M158.765 178.652C158.765 178.652 158.749 178.635 158.74 178.619L172.33 196.267C172.33 196.267 172.347 196.283 172.355 196.3C168.281 191.008 162.84 183.944 158.765 178.652Z" stroke="white" stroke-width="0.25" stroke-miterlimit="10"/>
</g>
<mask id="mask18_1906_5570" style="mask-type:luminance" maskUnits="userSpaceOnUse" x="146" y="179" width="28" height="21">
<path d="M146.061 182.221C147.261 182.023 148.454 181.849 149.655 181.683C151.253 181.459 152.851 181.244 154.45 181.02C156.048 180.797 157.613 180.573 159.187 180.341C159.667 180.275 159.783 179.994 159.493 179.596C159.427 179.505 159.361 179.414 159.294 179.331C163.369 184.623 168.81 191.687 172.884 196.979C172.951 197.07 173.017 197.153 173.083 197.244C173.365 197.642 173.249 197.923 172.777 197.989C171.203 198.221 169.622 198.445 168.04 198.668C166.458 198.892 164.843 199.099 163.245 199.331C162.044 199.497 160.851 199.679 159.651 199.869" fill="white"/>
</mask>
<g mask="url(#mask18_1906_5570)">
<path d="M172.33 196.267L158.74 178.619C158.989 178.942 159.254 179.256 159.494 179.596L173.084 197.244C172.844 196.913 172.579 196.598 172.33 196.267Z" stroke="white" stroke-width="0.25" stroke-miterlimit="10"/>
<path d="M172.778 197.989C173.258 197.923 173.374 197.641 173.084 197.244L159.494 179.596C159.775 179.993 159.66 180.275 159.188 180.341" stroke="white" stroke-width="0.25" stroke-miterlimit="10"/>
<path d="M173.233 197.6L159.643 179.952" stroke="white" stroke-width="0.25" stroke-miterlimit="10"/>
<path d="M173.133 197.856L159.543 180.208" stroke="white" stroke-width="0.25" stroke-miterlimit="10"/>
<path d="M168.031 198.677C169.613 198.453 171.195 198.229 172.768 197.998" stroke="white" stroke-width="0.25" stroke-miterlimit="10"/>
<path d="M159.178 180.341C157.605 180.573 156.023 180.797 154.441 181.02" stroke="white" stroke-width="0.25" stroke-miterlimit="10"/>
<path d="M163.244 199.331C164.842 199.107 166.441 198.892 168.039 198.668" stroke="white" stroke-width="0.25" stroke-miterlimit="10"/>
<path d="M154.442 181.021C152.843 181.244 151.245 181.451 149.646 181.683" stroke="white" stroke-width="0.25" stroke-miterlimit="10"/>
<path d="M159.65 199.877C160.851 199.678 162.044 199.504 163.245 199.339" stroke="white" stroke-width="0.25" stroke-miterlimit="10"/>
<path d="M149.655 181.683C148.454 181.848 147.261 182.03 146.061 182.221" stroke="white" stroke-width="0.25" stroke-miterlimit="10"/>
<path d="M146.061 182.221C147.261 182.023 148.454 181.849 149.655 181.683C151.253 181.459 152.851 181.244 154.45 181.02C156.048 180.797 157.613 180.573 159.187 180.341C159.667 180.275 159.783 179.994 159.493 179.596C159.427 179.505 159.361 179.414 159.294 179.331C163.369 184.623 168.81 191.687 172.884 196.979C172.951 197.07 173.017 197.153 173.083 197.244C173.365 197.642 173.249 197.923 172.777 197.989C171.203 198.221 169.622 198.445 168.04 198.668C166.458 198.892 164.843 199.099 163.245 199.331C162.044 199.497 160.851 199.679 159.651 199.869" stroke="white" stroke-width="0.25" stroke-miterlimit="10"/>
</g>
<mask id="mask19_1906_5570" style="mask-type:luminance" maskUnits="userSpaceOnUse" x="115" y="145" width="42" height="54">
<path d="M156.959 198.345C154.64 195.331 152.264 192.349 149.92 189.36C143.22 180.822 136.52 172.283 129.821 163.745C129.696 163.588 129.556 163.439 129.44 163.29L115.85 145.642C115.966 145.799 116.106 145.94 116.231 146.097C122.93 154.635 129.63 163.174 136.33 171.712C138.674 174.702 141.042 177.683 143.369 180.697C147.444 185.989 152.885 193.053 156.959 198.345Z" fill="white"/>
</mask>
<g mask="url(#mask19_1906_5570)">
<path d="M157.514 199.066L143.924 181.418C141.423 178.155 138.864 174.942 136.338 171.72L149.928 189.368C152.462 192.598 155.021 195.811 157.514 199.066Z" stroke="white" stroke-width="0.25" stroke-miterlimit="10"/>
<path d="M154.996 195.819L141.406 178.171" stroke="white" stroke-width="0.25" stroke-miterlimit="10"/>
<path d="M152.461 192.59L138.871 174.942" stroke="white" stroke-width="0.25" stroke-miterlimit="10"/>
<path d="M149.92 189.368L136.33 171.72C129.63 163.182 122.93 154.644 116.23 146.105L129.82 163.753C136.52 172.292 143.22 180.83 149.92 189.368Z" stroke="white" stroke-width="0.25" stroke-miterlimit="10"/>
<path d="M143.221 180.83L129.631 163.174" stroke="white" stroke-width="0.25" stroke-miterlimit="10"/>
<path d="M136.52 172.291L122.93 154.635" stroke="white" stroke-width="0.25" stroke-miterlimit="10"/>
<path d="M129.82 163.753L116.23 146.105C116.048 145.873 115.832 145.666 115.691 145.41L129.281 163.058C129.422 163.314 129.638 163.521 129.82 163.753Z" stroke="white" stroke-width="0.25" stroke-miterlimit="10"/>
<path d="M129.629 163.521L116.039 145.874" stroke="white" stroke-width="0.25" stroke-miterlimit="10"/>
<path d="M129.44 163.298L115.85 145.65" stroke="white" stroke-width="0.25" stroke-miterlimit="10"/>
<path d="M156.959 198.345C154.64 195.331 152.264 192.349 149.92 189.36C143.22 180.822 136.52 172.283 129.821 163.745C129.696 163.588 129.556 163.439 129.44 163.29L115.85 145.642C115.966 145.799 116.106 145.94 116.231 146.097C122.93 154.635 129.63 163.174 136.33 171.712C138.674 174.702 141.042 177.683 143.369 180.697C147.444 185.989 152.885 193.053 156.959 198.345Z" stroke="white" stroke-width="0.25" stroke-miterlimit="10"/>
</g>
<mask id="mask20_1906_5570" style="mask-type:luminance" maskUnits="userSpaceOnUse" x="143" y="180" width="15" height="20">
<path d="M143.369 180.697L156.959 198.345C157.141 198.585 157.324 198.826 157.514 199.066L143.924 181.418C143.742 181.178 143.56 180.937 143.369 180.697Z" fill="white"/>
</mask>
<g mask="url(#mask20_1906_5570)">
<path d="M157.514 199.066L143.924 181.418C141.423 178.155 138.864 174.942 136.338 171.72L149.928 189.368C152.462 192.598 155.021 195.811 157.514 199.066Z" stroke="white" stroke-width="0.25" stroke-miterlimit="10"/>
<path d="M143.369 180.697L156.959 198.345C157.141 198.585 157.324 198.826 157.514 199.066L143.924 181.418C143.742 181.178 143.56 180.937 143.369 180.697Z" stroke="white" stroke-width="0.25" stroke-miterlimit="10"/>
</g>
<mask id="mask21_1906_5570" style="mask-type:luminance" maskUnits="userSpaceOnUse" x="115" y="145" width="15" height="19">
<path d="M129.441 163.29L115.851 145.642C115.793 145.567 115.743 145.492 115.694 145.41C115.652 145.335 115.602 145.269 115.553 145.203L129.143 162.851C129.192 162.917 129.234 162.983 129.284 163.058C129.325 163.14 129.383 163.215 129.441 163.29Z" fill="white"/>
</mask>
<g mask="url(#mask21_1906_5570)">
<path d="M129.822 163.753L116.232 146.105C116.049 145.873 115.834 145.666 115.693 145.41L129.283 163.058C129.424 163.314 129.639 163.521 129.822 163.753Z" stroke="white" stroke-width="0.25" stroke-miterlimit="10"/>
<path d="M129.283 163.058L115.693 145.41C115.296 144.714 114.633 144.54 113.863 144.523L127.453 162.171C128.223 162.196 128.886 162.362 129.283 163.058Z" stroke="white" stroke-width="0.25" stroke-miterlimit="10"/>
<path d="M129.441 163.29L115.851 145.642C115.793 145.567 115.743 145.492 115.694 145.41C115.652 145.335 115.602 145.269 115.553 145.203L129.143 162.851C129.192 162.917 129.234 162.983 129.284 163.058C129.325 163.14 129.383 163.215 129.441 163.29Z" stroke="white" stroke-width="0.25" stroke-miterlimit="10"/>
</g>
<mask id="mask22_1906_5570" style="mask-type:luminance" maskUnits="userSpaceOnUse" x="45" y="142" width="85" height="21">
<path d="M129.142 162.851C128.737 162.321 128.14 162.188 127.453 162.172C122.418 162.006 117.391 161.857 112.356 161.675C106.6 161.468 100.844 161.219 95.0969 161.004C90.6663 160.847 86.244 160.722 81.8216 160.557C76.7285 160.374 71.6436 160.167 66.5505 159.977C64.1323 159.886 61.7058 159.811 59.213 159.729L45.623 142.081C48.1158 142.163 50.534 142.238 52.9605 142.329C58.0536 142.519 63.1385 142.727 68.2316 142.909C72.654 143.074 77.0763 143.199 81.5069 143.356C87.2543 143.571 93.01 143.82 98.7657 144.027C103.801 144.209 108.828 144.358 113.863 144.524C114.55 144.54 115.147 144.681 115.552 145.203C119.627 150.495 125.068 157.559 129.142 162.851Z" fill="white"/>
</mask>
<g mask="url(#mask22_1906_5570)">
<path d="M127.453 162.171C128.223 162.196 128.886 162.362 129.283 163.058L115.693 145.41C115.296 144.714 114.633 144.54 113.863 144.523" stroke="white" stroke-width="0.25" stroke-miterlimit="10"/>
<path d="M128.803 162.519L115.213 144.871" stroke="white" stroke-width="0.25" stroke-miterlimit="10"/>
<path d="M113.863 144.515C108.828 144.349 103.801 144.2 98.7656 144.018" stroke="white" stroke-width="0.25" stroke-miterlimit="10"/>
<path d="M112.355 161.674C117.391 161.857 122.418 162.006 127.453 162.171" stroke="white" stroke-width="0.25" stroke-miterlimit="10"/>
<path d="M95.0977 161.004C100.845 161.219 106.601 161.468 112.356 161.675" stroke="white" stroke-width="0.25" stroke-miterlimit="10"/>
<path d="M98.7665 144.018C93.0109 143.811 87.2552 143.563 81.5078 143.348" stroke="white" stroke-width="0.25" stroke-miterlimit="10"/>
<path d="M81.8223 160.557C86.2446 160.722 90.6669 160.846 95.0976 161.004" stroke="white" stroke-width="0.25" stroke-miterlimit="10"/>
<path d="M81.5077 143.348C77.0771 143.19 72.6548 143.066 68.2324 142.9" stroke="white" stroke-width="0.25" stroke-miterlimit="10"/>
<path d="M66.5508 159.977C71.6439 160.167 76.7288 160.374 81.8219 160.556" stroke="white" stroke-width="0.25" stroke-miterlimit="10"/>
<path d="M68.2321 142.908C63.1389 142.726 58.0541 142.519 52.9609 142.329" stroke="white" stroke-width="0.25" stroke-miterlimit="10"/>
<path d="M52.9605 142.321C50.5423 142.23 48.1158 142.155 45.623 142.072L59.213 159.72C61.7058 159.803 64.124 159.878 66.5505 159.969" stroke="white" stroke-width="0.25" stroke-miterlimit="10"/>
<path d="M129.142 162.851C128.737 162.321 128.14 162.188 127.453 162.172C122.418 162.006 117.391 161.857 112.356 161.675C106.6 161.468 100.844 161.219 95.0969 161.004C90.6663 160.847 86.244 160.722 81.8216 160.557C76.7285 160.374 71.6436 160.167 66.5505 159.977C64.1323 159.886 61.7058 159.811 59.213 159.729L45.623 142.081C48.1158 142.163 50.534 142.238 52.9605 142.329C58.0536 142.519 63.1385 142.727 68.2316 142.909C72.654 143.074 77.0763 143.199 81.5069 143.356C87.2543 143.571 93.01 143.82 98.7657 144.027C103.801 144.209 108.828 144.358 113.863 144.524C114.55 144.54 115.147 144.681 115.552 145.203C119.627 150.495 125.068 157.559 129.142 162.851Z" stroke="white" stroke-width="0.25" stroke-miterlimit="10"/>
</g>
<mask id="mask23_1906_5570" style="mask-type:luminance" maskUnits="userSpaceOnUse" x="143" y="181" width="17" height="19">
<path d="M159.65 199.878C158.632 200.027 158.06 199.795 157.514 199.066L143.924 181.418C144.47 182.138 145.042 182.37 146.06 182.23" fill="white"/>
</mask>
<g mask="url(#mask23_1906_5570)">
<path d="M146.06 182.221C145.042 182.37 144.47 182.138 143.924 181.41L157.514 199.058C158.06 199.778 158.632 200.01 159.65 199.869" stroke="white" stroke-width="0.25" stroke-miterlimit="10"/>
<path d="M158.086 199.629L144.496 181.981" stroke="white" stroke-width="0.25" stroke-miterlimit="10"/>
<path d="M159.65 199.878C158.632 200.027 158.06 199.795 157.514 199.066L143.924 181.418C144.47 182.138 145.042 182.37 146.06 182.23" stroke="white" stroke-width="0.25" stroke-miterlimit="10"/>
</g>
<mask id="mask24_1906_5570" style="mask-type:luminance" maskUnits="userSpaceOnUse" x="45" y="124" width="68" height="36">
<path d="M59.213 159.729L45.623 142.081C45.8715 141.584 46.2938 141.493 46.6665 141.377C54.7079 138.76 62.7575 136.168 70.7989 133.534C78.2523 131.099 85.6974 128.623 93.1425 126.172C94.7325 125.65 96.3226 125.17 97.9127 124.665C98.2025 124.574 98.5006 124.466 98.7905 124.093L112.38 141.741C112.091 142.114 111.793 142.222 111.503 142.313C109.913 142.818 108.323 143.298 106.732 143.82C99.2874 146.271 91.8423 148.739 84.3889 151.182C76.3475 153.807 68.2979 156.4 60.2565 159.025C59.8838 159.141 59.4698 159.24 59.213 159.729Z" fill="white"/>
</mask>
<g mask="url(#mask24_1906_5570)">
<path d="M60.2565 159.017C59.8838 159.133 59.4698 159.232 59.213 159.721L45.623 142.073C45.8715 141.576 46.2938 141.485 46.6665 141.369" stroke="white" stroke-width="0.25" stroke-miterlimit="10"/>
<path d="M46.666 141.368C54.7074 138.752 62.757 136.159 70.7984 133.526" stroke="white" stroke-width="0.25" stroke-miterlimit="10"/>
<path d="M84.3961 151.174C76.3547 153.799 68.305 156.391 60.2637 159.016" stroke="white" stroke-width="0.25" stroke-miterlimit="10"/>
<path d="M106.74 143.82C99.295 146.271 91.8499 148.739 84.3965 151.182" stroke="white" stroke-width="0.25" stroke-miterlimit="10"/>
<path d="M70.8066 133.526C78.26 131.091 85.7051 128.615 93.1502 126.164" stroke="white" stroke-width="0.25" stroke-miterlimit="10"/>
<path d="M111.51 142.312C109.92 142.818 108.33 143.298 106.74 143.82" stroke="white" stroke-width="0.25" stroke-miterlimit="10"/>
<path d="M93.1504 126.163C94.7404 125.642 96.3305 125.161 97.9206 124.656" stroke="white" stroke-width="0.25" stroke-miterlimit="10"/>
<path d="M97.9219 124.665C98.2117 124.574 98.5099 124.466 98.7997 124.093L112.39 141.741C112.1 142.114 111.802 142.222 111.512 142.313" stroke="white" stroke-width="0.25" stroke-miterlimit="10"/>
<path d="M59.213 159.729L45.623 142.081C45.8715 141.584 46.2938 141.493 46.6665 141.377C54.7079 138.76 62.7575 136.168 70.7989 133.534C78.2523 131.099 85.6974 128.623 93.1425 126.172C94.7325 125.65 96.3226 125.17 97.9127 124.665C98.2025 124.574 98.5006 124.466 98.7905 124.093L112.38 141.741C112.091 142.114 111.793 142.222 111.503 142.313C109.913 142.818 108.323 143.298 106.732 143.82C99.2874 146.271 91.8423 148.739 84.3889 151.182C76.3475 153.807 68.2979 156.4 60.2565 159.025C59.8838 159.141 59.4698 159.24 59.213 159.729Z" stroke="white" stroke-width="0.25" stroke-miterlimit="10"/>
</g>
<mask id="mask25_1906_5570" style="mask-type:luminance" maskUnits="userSpaceOnUse" x="48" y="59" width="65" height="83">
<path d="M112.04 141.07C111.867 140.847 111.66 140.631 111.486 140.408C104.43 131.406 97.3573 122.404 90.3014 113.41C80.9185 101.46 71.5438 89.5093 62.1525 77.5591L48.5625 59.9111C57.9538 71.8614 67.3285 83.8116 76.7114 95.7619C83.7673 104.764 90.8397 113.758 97.8956 122.76C98.0695 122.983 98.2766 123.199 98.4505 123.422C102.525 128.714 107.966 135.778 112.04 141.07Z" fill="white"/>
</mask>
<g mask="url(#mask25_1906_5570)">
<path d="M112.389 141.741L98.7992 124.093C98.6915 123.58 98.236 123.19 97.8965 122.751L111.486 140.399C111.826 140.83 112.282 141.228 112.389 141.741Z" stroke="white" stroke-width="0.25" stroke-miterlimit="10"/>
<path d="M111.842 140.83L98.252 123.174" stroke="white" stroke-width="0.25" stroke-miterlimit="10"/>
<path d="M111.485 140.399L97.8951 122.751C90.8392 113.749 83.7668 104.747 76.7109 95.7534L90.3009 113.401C97.3568 122.403 104.429 131.397 111.485 140.399Z" stroke="white" stroke-width="0.25" stroke-miterlimit="10"/>
<path d="M104.42 131.397L90.8301 113.749" stroke="white" stroke-width="0.25" stroke-miterlimit="10"/>
<path d="M97.3576 122.395L83.7676 104.747" stroke="white" stroke-width="0.25" stroke-miterlimit="10"/>
<path d="M90.2936 113.402L76.7036 95.7536C67.3206 83.8033 57.9459 71.8531 48.5547 59.9028L62.1447 77.5508C71.5359 89.501 80.9106 101.451 90.2936 113.402Z" stroke="white" stroke-width="0.25" stroke-miterlimit="10"/>
<path d="M80.9181 101.451L67.3281 83.7949" stroke="white" stroke-width="0.25" stroke-miterlimit="10"/>
<path d="M71.5353 89.501L57.9453 71.8447" stroke="white" stroke-width="0.25" stroke-miterlimit="10"/>
<path d="M112.04 141.07C111.867 140.847 111.66 140.631 111.486 140.408C104.43 131.406 97.3573 122.404 90.3014 113.41C80.9185 101.46 71.5438 89.5093 62.1525 77.5591L48.5625 59.9111C57.9538 71.8614 67.3285 83.8116 76.7114 95.7619C83.7673 104.764 90.8397 113.758 97.8956 122.76C98.0695 122.983 98.2766 123.199 98.4505 123.422C102.525 128.714 107.966 135.778 112.04 141.07Z" stroke="white" stroke-width="0.25" stroke-miterlimit="10"/>
</g>
<mask id="mask26_1906_5570" style="mask-type:luminance" maskUnits="userSpaceOnUse" x="98" y="123" width="15" height="19">
<path d="M98.4512 123.414L112.041 141.062C112.199 141.269 112.331 141.493 112.389 141.741L98.799 124.093C98.7493 123.845 98.6168 123.629 98.4512 123.414Z" fill="white"/>
</mask>
<g mask="url(#mask26_1906_5570)">
<path d="M112.389 141.741L98.7992 124.093C98.6915 123.58 98.236 123.19 97.8965 122.751L111.486 140.399C111.826 140.83 112.282 141.228 112.389 141.741Z" stroke="white" stroke-width="0.25" stroke-miterlimit="10"/>
<path d="M112.182 141.261L98.5918 123.613" stroke="white" stroke-width="0.25" stroke-miterlimit="10"/>
<path d="M98.4512 123.414L112.041 141.062C112.199 141.269 112.331 141.493 112.389 141.741L98.799 124.093C98.7493 123.845 98.6168 123.629 98.4512 123.414Z" stroke="white" stroke-width="0.25" stroke-miterlimit="10"/>
</g>
<mask id="mask27_1906_5570" style="mask-type:luminance" maskUnits="userSpaceOnUse" x="47" y="58" width="15" height="19">
<path d="M61.6643 76.8966C61.4407 76.6067 61.1923 76.3252 60.8693 76.1016L47.2793 58.4536C47.6023 58.6772 47.8507 58.9588 48.0743 59.2486C52.1488 64.5405 57.5898 71.6047 61.6643 76.8966Z" fill="white"/>
</mask>
<g mask="url(#mask27_1906_5570)">
<path d="M62.1446 77.5425L48.5547 59.8946C48.1737 59.3977 47.8424 58.8511 47.2793 58.4536L60.8693 76.1016C61.4324 76.4991 61.7637 77.0457 62.1446 77.5425Z" stroke="white" stroke-width="0.25" stroke-miterlimit="10"/>
<path d="M61.3737 76.5488L47.7754 58.8926" stroke="white" stroke-width="0.25" stroke-miterlimit="10"/>
<path d="M61.6643 76.8966C61.4407 76.6067 61.1923 76.3252 60.8693 76.1016L47.2793 58.4536C47.6023 58.6772 47.8507 58.9588 48.0743 59.2486C52.1488 64.5405 57.5898 71.6047 61.6643 76.8966Z" stroke="white" stroke-width="0.25" stroke-miterlimit="10"/>
</g>
<mask id="mask28_1906_5570" style="mask-type:luminance" maskUnits="userSpaceOnUse" x="48" y="59" width="15" height="19">
<path d="M48.0742 59.2485L61.6642 76.8965C61.8299 77.1118 61.9789 77.3354 62.1445 77.5424L48.5545 59.8945C48.3889 59.6875 48.2398 59.4639 48.0742 59.2485Z" fill="white"/>
</mask>
<g mask="url(#mask28_1906_5570)">
<path d="M62.1446 77.5425L48.5547 59.8946C48.1737 59.3977 47.8424 58.8511 47.2793 58.4536L60.8693 76.1016C61.4324 76.4991 61.7637 77.0457 62.1446 77.5425Z" stroke="white" stroke-width="0.25" stroke-miterlimit="10"/>
<path d="M61.7716 77.0376L48.1816 59.3896" stroke="white" stroke-width="0.25" stroke-miterlimit="10"/>
<path d="M48.0742 59.2485L61.6642 76.8965C61.8299 77.1118 61.9789 77.3354 62.1445 77.5424L48.5545 59.8945C48.3889 59.6875 48.2398 59.4639 48.0742 59.2485Z" stroke="white" stroke-width="0.25" stroke-miterlimit="10"/>
</g>
<mask id="mask29_1906_5570" style="mask-type:luminance" maskUnits="userSpaceOnUse" x="0" y="58" width="61" height="108">
<path d="M60.8781 76.1016C60.3149 76.5736 60.1659 77.1865 59.9174 77.733C55.1307 88.1761 50.3523 98.6191 45.5655 109.062C37.2509 127.215 28.9445 145.377 20.6298 163.53C19.9176 165.087 19.9839 165.194 18.899 165.343C18.6837 165.377 18.4187 165.41 18.0957 165.451C16.8783 165.625 15.6692 165.774 14.4518 165.915L0.853516 148.275C2.0709 148.143 3.28829 147.985 4.49739 147.811C4.82037 147.77 5.08538 147.737 5.3007 147.704C6.39386 147.555 6.31933 147.439 7.03154 145.89C15.3545 127.745 23.6526 109.584 31.9672 91.4224C36.7457 80.9794 41.5241 70.5281 46.3191 60.0934C46.5676 59.5468 46.7167 58.934 47.2798 58.4619C51.3543 63.7538 56.7953 70.818 60.8698 76.1099L60.8781 76.1016Z" fill="white"/>
</mask>
<g mask="url(#mask29_1906_5570)">
<path d="M59.9162 77.7413C60.1646 77.1948 60.3137 76.5819 60.8768 76.1099L47.2868 58.4619C46.7237 58.934 46.5746 59.5468 46.3262 60.0934" stroke="white" stroke-width="0.25" stroke-miterlimit="10"/>
<path d="M46.3187 60.085C41.532 70.528 36.7535 80.971 31.9668 91.414" stroke="white" stroke-width="0.25" stroke-miterlimit="10"/>
<path d="M45.5645 109.07C50.3429 98.6272 55.1213 88.1759 59.9164 77.7412" stroke="white" stroke-width="0.25" stroke-miterlimit="10"/>
<path d="M19.6681 165.161L6.07812 147.505" stroke="white" stroke-width="0.25" stroke-miterlimit="10"/>
<path d="M4.5052 147.812C3.28782 147.985 2.07871 148.135 0.861328 148.275L14.4513 165.923C15.6687 165.791 16.8861 165.633 18.0952 165.459" stroke="white" stroke-width="0.25" stroke-miterlimit="10"/>
<path d="M60.8781 76.1016C60.3149 76.5736 60.1659 77.1865 59.9174 77.733C55.1307 88.1761 50.3523 98.6191 45.5655 109.062C37.2509 127.215 28.9445 145.377 20.6298 163.53C19.9176 165.087 19.9839 165.194 18.899 165.343C18.6837 165.377 18.4187 165.41 18.0957 165.451C16.8783 165.625 15.6692 165.774 14.4518 165.915L0.853516 148.275C2.0709 148.143 3.28829 147.985 4.49739 147.811C4.82037 147.77 5.08538 147.737 5.3007 147.704C6.39386 147.555 6.31933 147.439 7.03154 145.89C15.3545 127.745 23.6526 109.584 31.9672 91.4224C36.7457 80.9794 41.5241 70.5281 46.3191 60.0934C46.5676 59.5468 46.7167 58.934 47.2798 58.4619C51.3543 63.7538 56.7953 70.818 60.8698 76.1099L60.8781 76.1016Z" stroke="white" stroke-width="0.25" stroke-miterlimit="10"/>
</g>
<mask id="mask30_1906_5570" style="mask-type:luminance" maskUnits="userSpaceOnUse" x="0" y="0" width="92" height="166">
<path d="M91.1128 18.4619C90.4668 18.5613 89.8291 18.6524 89.1832 18.7435C88.5372 18.8346 87.8995 18.9257 87.2536 19.0168C86.5331 19.1162 85.8043 19.2155 85.0838 19.3232C84.3633 19.4309 83.6345 19.5302 81.4151 19.8366C80.4544 19.9692 80.6035 20.1513 79.7505 22.0064C70.2516 42.7268 60.7692 63.4555 51.2786 84.1759C39.0964 110.76 26.9309 137.36 14.757 163.944C14.5251 164.449 14.2933 164.954 14.4506 165.923L0.85232 148.275C0.694971 147.306 0.926854 146.801 1.15874 146.296C13.3326 119.712 25.4982 93.12 37.6803 66.5279C47.1709 45.8075 56.645 25.0706 66.1522 4.35846C67.0052 2.5034 66.8561 2.3212 67.8168 2.1887C70.0445 1.88228 70.765 1.77462 71.4855 1.67524C72.206 1.57587 72.9348 1.47649 73.6553 1.36883C74.3012 1.27773 74.9389 1.18663 75.5849 1.09554C76.2308 1.00444 76.8685 0.913343 77.5145 0.813965" fill="white"/>
</mask>
<g mask="url(#mask30_1906_5570)">
<path d="M14.757 163.943C14.5251 164.449 14.2933 164.954 14.4506 165.923L0.85232 148.275C0.694971 147.306 0.926854 146.801 1.15874 146.295" stroke="white" stroke-width="0.25" stroke-miterlimit="10"/>
<path d="M1.1582 146.296C13.3321 119.712 25.4976 93.1198 37.6798 66.5278" stroke="white" stroke-width="0.25" stroke-miterlimit="10"/>
<path d="M51.2774 84.1758C39.0953 110.76 26.9297 137.36 14.7559 163.944" stroke="white" stroke-width="0.25" stroke-miterlimit="10"/>
<path d="M79.7414 22.0063C70.2425 42.7267 60.7602 63.4554 51.2695 84.1758" stroke="white" stroke-width="0.25" stroke-miterlimit="10"/>
<path d="M37.6797 66.5279C47.1703 45.8075 56.6444 25.0705 66.1516 4.3584" stroke="white" stroke-width="0.25" stroke-miterlimit="10"/>
<path d="M81.4146 19.8281C80.4539 19.9606 80.603 20.1428 79.75 21.9979" stroke="white" stroke-width="0.25" stroke-miterlimit="10"/>
<path d="M66.1523 4.34994C67.0053 2.49487 66.8563 2.31268 67.8169 2.18018" stroke="white" stroke-width="0.25" stroke-miterlimit="10"/>
<path d="M80.7443 20.0434L67.1543 2.38721" stroke="white" stroke-width="0.25" stroke-miterlimit="10"/>
</g>
</g>
<defs>
<clipPath id="clip0_1906_5570">
<rect width="226.5" height="199.337" fill="white" transform="translate(0.662109 0.681641)"/>
</clipPath>
</defs>
</svg>