<?xml version="1.0" encoding="utf-8"?>
<svg xmlns="http://www.w3.org/2000/svg" width="29" height="30" viewBox="0 0 29 30" fill="none">
<g clip-path="url(#clip0_1843_729)">
<path fill-rule="evenodd" clip-rule="evenodd" d="M23.2947 0.924805H5.70469C2.78969 0.924805 0.429688 3.2898 0.429688 6.2048V23.7948C0.429688 26.7098 2.78969 29.0748 5.70469 29.0748H23.2947C26.2097 29.0748 28.5747 26.7098 28.5747 23.7948V6.2048C28.5747 3.2898 26.2097 0.924805 23.2947 0.924805ZM24.4247 7.4548L22.8397 8.9698C22.7729 9.02131 22.721 9.08968 22.6893 9.16789C22.6577 9.2461 22.6475 9.33133 22.6597 9.4148V20.5798C22.6347 20.7498 22.6997 20.9198 22.8397 21.0248L24.3897 22.5448V22.8748H16.5997V22.5448L18.2047 20.9898C18.3647 20.8348 18.3647 20.7898 18.3647 20.5448V11.5198L13.9097 22.8448H13.3047L8.11469 11.5198V19.1148C8.06969 19.4298 8.17969 19.7498 8.39969 19.9848L10.4897 22.5098V22.8448H4.57469V22.5098L6.65969 19.9748C6.88469 19.7498 6.98469 19.4248 6.93469 19.1048V10.3348C6.95469 10.0948 6.86469 9.8498 6.67969 9.6848L4.82469 7.4548V7.1248H10.5847L15.0247 16.8798L18.9447 7.1248H24.4247V7.4548Z" fill="#878787"/>
</g>
<defs>
<clipPath id="clip0_1843_729">
<rect width="29" height="30" fill="white"/>
</clipPath>
</defs>
</svg>