<?xml version="1.0" encoding="utf-8"?>
<svg xmlns="http://www.w3.org/2000/svg" width="101" height="10" viewBox="0 0 101 10" fill="none">
<path d="M59.5791 2.9391C59.0891 3.03327 58.6251 3.11607 58.1631 3.21335C57.9829 3.25164 57.9653 3.1171 57.9187 3.01568C57.5893 2.28916 57.0507 1.80274 56.2676 1.61852C54.8797 1.29252 53.5611 1.96626 53.037 3.29097C52.5926 4.41387 52.5989 5.55333 53.1116 6.64933C53.5984 7.69254 54.4477 8.23174 55.6172 8.24416C56.3029 8.2514 56.9564 8.13652 57.5437 7.76809C58.2533 7.3241 58.5826 6.67727 58.5412 5.8131H54.4498C54.4498 5.36705 54.4436 4.94686 54.4581 4.52772C54.4602 4.47907 54.5762 4.39628 54.6435 4.39317C54.9273 4.37765 55.2122 4.38593 55.497 4.38593C56.886 4.38593 58.275 4.38593 59.663 4.38593H59.981V9.67236H58.5857C58.5806 9.60923 58.5702 9.53575 58.5702 9.46227C58.5681 9.07417 58.5733 8.68711 58.5661 8.29901C58.565 8.23588 58.5143 8.17378 58.4873 8.11168C58.4293 8.15101 58.3475 8.17688 58.3154 8.23174C57.84 9.04623 57.0963 9.48193 56.2076 9.67961C54.195 10.1257 52.3026 9.16007 51.5662 7.24027C50.8629 5.40637 50.8743 3.56316 51.9795 1.87415C52.9448 0.400408 54.4167 -0.134651 56.1257 0.0599159C57.7478 0.244134 58.8281 1.20145 59.4858 2.66484C59.5231 2.74867 59.5449 2.83871 59.5791 2.94117V2.9391Z" fill="white"/>
<path d="M71.2014 0.223555C72.0943 0.223555 72.955 0.21838 73.8168 0.232869C73.8903 0.233904 73.9918 0.348781 74.0291 0.433646C74.7894 2.13507 75.5414 3.83857 76.2954 5.54207C76.6186 6.2717 76.9521 6.99822 77.2608 7.73405C77.3478 7.94208 77.4628 7.98244 77.6741 7.92862V0.241148H79.2723V9.43755C78.8777 9.43755 78.4924 9.43755 78.107 9.43755C77.6762 9.43755 77.2442 9.4272 76.8133 9.44169C76.6051 9.44894 76.4954 9.38684 76.4073 9.18813C75.3498 6.80158 74.2829 4.41917 73.214 2.03675C73.1446 1.88152 73.1249 1.62899 72.809 1.75111V9.41789H71.2025V0.223555H71.2014Z" fill="white"/>
<path d="M65.5817 0C67.9723 0.0165589 69.7011 1.50376 70.074 3.87582C70.2532 5.01424 70.1713 6.1268 69.7042 7.1876C69.0951 8.5713 68.0376 9.41581 66.5471 9.68696C65.1944 9.93327 63.9183 9.74078 62.7892 8.90973C61.7907 8.17493 61.276 7.14103 61.0823 5.94568C60.8989 4.8145 60.96 3.6916 61.4324 2.62976C62.1025 1.1229 63.2719 0.268047 64.9137 0.0631308C65.1353 0.0351877 65.359 0.0206986 65.5817 0ZM68.569 4.88591C68.5161 4.52058 68.4913 4.14904 68.4053 3.79199C68.1122 2.56767 67.2369 1.74903 66.0665 1.57413C64.8463 1.39095 63.7028 1.86909 63.1331 2.87297C62.4371 4.1004 62.4195 5.38889 62.9974 6.66186C63.4387 7.63366 64.2394 8.15837 65.3073 8.23495C66.4984 8.32085 67.4524 7.9017 68.0707 6.84711C68.424 6.24478 68.5348 5.57828 68.569 4.88591Z" fill="white"/>
<path d="M33.7524 0.229763C35.3382 0.229763 36.9085 0.19354 38.4757 0.242182C39.4928 0.274265 40.3805 0.665469 40.9067 1.60829C41.2619 2.24477 41.3334 2.92783 41.1076 3.62848C40.9015 4.26393 40.4323 4.57958 39.7911 4.66651C39.5612 4.69756 39.3281 4.70481 39.0795 4.72447V5.08359C39.2515 5.08359 39.4296 5.09498 39.6067 5.08152C40.4178 5.02253 40.8663 5.52654 40.9025 6.21167C40.9595 7.27454 40.917 8.34259 40.917 9.4241H39.4182V9.15605C39.4182 8.40676 39.4193 7.65643 39.4182 6.90714C39.4162 6.30585 39.1748 6.01607 38.573 6.00054C37.53 5.97467 36.4859 5.99123 35.4429 5.99123C35.419 5.99123 35.3942 6.00675 35.3424 6.02435C35.3424 6.58321 35.3424 7.14932 35.3424 7.71542C35.3424 8.28153 35.3424 8.84867 35.3424 9.43341H33.7545V0.229763H33.7524ZM35.3517 4.45642C36.3647 4.45642 37.356 4.48851 38.3431 4.44607C39.0681 4.41503 39.5777 3.81994 39.613 3.09031C39.643 2.46729 39.2349 1.95189 38.5772 1.80182C38.4197 1.7656 38.253 1.76353 38.0893 1.7625C37.2617 1.75836 36.4351 1.76043 35.6075 1.7625C35.5247 1.7625 35.4429 1.77285 35.3507 1.77906V4.45849L35.3517 4.45642Z" fill="white"/>
<path d="M24.6272 0.195312C26.1063 0.222221 27.5678 0.176684 29.0148 0.296736C30.3334 0.407474 31.3888 1.1133 31.9886 2.30761C32.869 4.06182 32.868 5.84397 31.8239 7.54229C31.1693 8.60827 30.1459 9.24165 28.9206 9.34721C27.5171 9.4683 26.098 9.41552 24.6862 9.43725C24.6717 9.43725 24.6572 9.4238 24.6282 9.40931V0.195312H24.6272ZM26.241 1.70631V7.9128C27.0157 7.9128 27.776 7.95523 28.529 7.90245C29.599 7.8269 30.3292 7.23492 30.7228 6.24345C30.9818 5.59041 31.0253 4.91046 30.9352 4.21602C30.7871 3.0776 30.0195 2.1058 28.8926 1.8926C28.0329 1.73012 27.1369 1.7622 26.241 1.70631Z" fill="white"/>
<path d="M51.0208 9.44747C50.4718 9.44747 49.955 9.45471 49.4392 9.43816C49.376 9.43609 49.2879 9.3181 49.26 9.23738C49.0269 8.56467 48.8001 7.88886 48.5815 7.21098C48.5297 7.0485 48.4593 6.98433 48.276 6.9864C47.1376 6.99675 45.9983 6.99468 44.8599 6.98744C44.6932 6.98744 44.6217 7.03815 44.5699 7.19856C44.3493 7.88576 44.1152 8.56778 43.8759 9.24876C43.8479 9.32742 43.7547 9.43712 43.6895 9.43919C43.1571 9.45471 42.6236 9.44747 42.054 9.44747C42.0788 9.34812 42.0902 9.27671 42.114 9.20944C43.1374 6.28472 44.1628 3.36104 45.1831 0.435285C45.2401 0.271766 45.3177 0.21381 45.4969 0.216915C46.2209 0.229334 46.946 0.223124 47.6711 0.220019C47.7995 0.220019 47.8855 0.228299 47.9383 0.382504C48.9472 3.35793 49.9633 6.33129 50.9773 9.30465C50.9877 9.33673 50.997 9.36882 51.0198 9.44644L51.0208 9.44747ZM47.9859 5.5406C47.9631 5.44953 47.9486 5.38329 47.93 5.31809C47.5654 4.09273 47.1987 2.86841 46.8393 1.64202C46.8 1.50851 46.7782 1.4133 46.599 1.40916C46.4146 1.40502 46.368 1.49713 46.3245 1.64098C46.0262 2.64383 45.7238 3.64564 45.4224 4.64746C45.3343 4.93931 45.2463 5.23116 45.1541 5.5406H47.9859Z" fill="white"/>
<path d="M82.0866 1.75836V3.82305H86.5146V5.26057H82.0835V9.421H80.4915V0.242188H87.0294C87.0294 0.703767 87.0356 1.17363 87.019 1.64245C87.018 1.68385 86.8688 1.75319 86.787 1.75319C86.0102 1.76147 85.2343 1.75836 84.4575 1.75836C83.7677 1.75836 83.0768 1.75836 82.387 1.75836C82.2937 1.75836 82.2015 1.75836 82.0845 1.75836H82.0866Z" fill="white"/>
<path d="M100.8 0.224125C100.468 0.810931 100.162 1.35531 99.8534 1.89657C99.3387 2.80007 98.8125 3.69632 98.3132 4.6081C98.191 4.83164 98.0584 4.92789 97.814 4.89063C97.7239 4.87718 97.6306 4.88856 97.5105 4.88856V9.41742H95.9071V4.92478C95.8522 4.90719 95.8253 4.88856 95.8045 4.8927C95.354 4.99412 95.1623 4.72504 94.9687 4.37524C94.2405 3.0588 93.4875 1.75686 92.7438 0.44974C92.7075 0.385574 92.6785 0.315199 92.635 0.22309C93.2223 0.22309 93.7806 0.215845 94.3379 0.231369C94.4104 0.233439 94.5057 0.334863 94.5481 0.412482C95.1737 1.5685 95.7942 2.72762 96.4115 3.88778C96.4788 4.01404 96.5327 4.10822 96.7119 4.10926C96.8973 4.11029 96.946 3.99956 97.0102 3.8795C97.6296 2.72038 98.25 1.56126 98.8663 0.401098C98.9326 0.274837 99.0082 0.214811 99.1626 0.21895C99.6877 0.230334 100.214 0.22309 100.799 0.22309L100.8 0.224125Z" fill="white"/>
<path d="M94.1261 9.42731H87.9465V0.257812H89.5955C89.5955 0.361306 89.5955 0.461694 89.5955 0.561047C89.5955 2.9476 89.5986 5.33519 89.5903 7.72174C89.5903 7.96184 89.6577 8.02497 89.8938 8.0229C91.1969 8.01152 92.4988 8.01773 93.8019 8.01773C93.9044 8.01773 94.0059 8.01773 94.1261 8.01773V9.42731Z" fill="white"/>
<path d="M0.807778 1.42969C1.11334 1.53525 1.39611 1.62943 1.67577 1.72982C3.40555 2.34871 5.13532 2.9707 6.86716 3.58649C7.01942 3.6403 7.07639 3.71068 7.07329 3.87834C7.06189 4.53241 7.06603 5.18752 7.07018 5.8416C7.07018 5.96683 7.04843 6.03824 6.91067 6.08688C4.90123 6.79374 2.8949 7.50888 0.88857 8.22091C0.874069 8.22608 0.855425 8.22091 0.823315 8.22091V6.4429C2.35939 5.9306 3.91308 5.4121 5.46677 4.8936L5.46159 4.81081C5.37873 4.77769 5.2969 4.74147 5.21197 4.71249C3.82918 4.24574 2.4464 3.77691 1.06051 3.31844C0.867854 3.25531 0.793277 3.17251 0.800528 2.95932C0.820208 2.46151 0.806742 1.96164 0.806742 1.42969H0.807778Z" fill="white"/>
<path d="M13.7299 4.87795C13.8169 4.91314 13.9018 4.9535 13.9909 4.98351C15.3768 5.44716 16.7627 5.91081 18.1506 6.36721C18.3112 6.42 18.3889 6.48209 18.3837 6.66734C18.3702 7.18171 18.3785 7.69814 18.3785 8.24458C17.7529 8.02518 17.1625 7.81922 16.5742 7.61017C15.1738 7.1134 13.7744 6.61042 12.3709 6.12194C12.1824 6.05673 12.1213 5.97187 12.1254 5.77627C12.1379 5.13875 12.1348 4.50123 12.1265 3.86371C12.1244 3.70951 12.1772 3.63603 12.3202 3.58532C14.2716 2.89295 16.222 2.1954 18.1724 1.49993C18.2263 1.48027 18.2853 1.47199 18.3764 1.44922C18.3764 2.02154 18.3837 2.57108 18.3671 3.1196C18.3651 3.18273 18.2418 3.26966 18.1589 3.29761C16.858 3.74159 15.5539 4.1773 14.2509 4.61611C14.0769 4.67407 13.906 4.7403 13.734 4.8024C13.732 4.82724 13.7309 4.85207 13.7288 4.87691L13.7299 4.87795Z" fill="white"/>
<path d="M8.76978 0.230469H10.4654V9.42377H8.76978V0.230469Z" fill="white"/>
</svg>