<?xml version="1.0" encoding="utf-8"?>
<svg xmlns="http://www.w3.org/2000/svg" width="190" height="74" viewBox="0 0 190 74" fill="none">
<g clip-path="url(#clip0_1099_5667)">
<path d="M129.862 47.153C125.176 61.0938 111.207 71.208 95.0622 71.208C78.9162 71.208 64.9928 61.0938 60.3206 47.153H59.999C64.3497 62.4515 78.396 73.6594 95.0622 73.6594C111.727 73.6594 125.778 62.4515 130.125 47.153H129.862ZM95.0622 2.00461C111.373 2.00461 125.432 12.3462 129.978 26.5077H130.097C125.744 11.2132 111.727 -9.15527e-05 95.0622 -9.15527e-05C78.396 -9.15527e-05 64.3497 11.2078 59.999 26.5077H60.172C64.6956 12.3381 78.7446 2.00461 95.0622 2.00461Z" fill="white"/>
<path d="M77.0725 32.1177C77.0725 31.935 77.0117 31.7888 76.4982 31.7482V31.5018H80.7219V31.7482C80.2098 31.7888 80.1463 31.935 80.1463 32.1177V37.6188C80.1463 41.2302 77.6278 42.4254 74.4904 42.4254C71.3585 42.4254 68.836 41.2302 68.836 37.6188V32.1177C68.836 31.935 68.7751 31.7888 68.2617 31.7482V31.5018H72.4854V31.7482C71.9706 31.7888 71.9098 31.935 71.9098 32.1177V37.6188C71.9098 39.2011 72.8515 39.8373 74.4904 39.8373C76.1307 39.8373 77.0725 39.2011 77.0725 37.6188V32.1177Z" fill="white"/>
<path d="M96.0206 41.5119C96.0206 41.8544 96.3111 41.9275 96.7016 41.9505V42.2442H92.1929V41.9505C92.4361 41.9505 92.8982 41.9275 92.8982 41.6324C92.8982 41.072 89.7784 38.289 87.0235 35.062L86.9748 35.1107V41.5119C86.9748 41.8544 87.268 41.9275 87.6085 41.9505V42.2442H83.4389V41.9505C83.7564 41.9275 84.0496 41.8544 84.0496 41.5119V32.2288C84.0496 31.8891 83.7564 31.8119 83.3916 31.7889V31.4979H89.192V31.7889C88.9731 31.8119 88.6813 31.8891 88.6813 32.2288C88.6813 32.4021 91.0458 34.821 93.0941 37.0409V32.2288C93.0941 31.8891 92.8022 31.8119 92.4118 31.7889V31.4979H96.7016V31.7889C96.3111 31.8119 96.0206 31.8891 96.0206 32.2288V41.5119Z" fill="white"/>
<path d="M105.135 31.4979V31.7889C104.646 31.8119 104.357 31.8891 104.357 32.2288V41.5119C104.357 41.8544 104.646 41.9275 105.135 41.9505V42.2429H100.311V41.9505C100.797 41.9275 101.087 41.8544 101.087 41.5119V32.2288C101.087 31.8891 100.797 31.8119 100.311 31.7889V31.4979H105.135Z" fill="white"/>
<path d="M107.819 31.4979H112.424V31.7889C112.229 31.7889 111.816 31.7889 111.816 32.0353C111.816 32.3046 113.843 37.5309 114.013 38.2646H114.058C114.91 36.1882 116.594 32.2519 116.594 32.0353C116.594 31.7889 116.181 31.7889 116.037 31.7889V31.4979H120.105V31.7889C119.836 31.8119 119.666 31.8891 119.597 32.1314C119.277 33.1588 115.815 41.3671 115.815 41.5593C115.815 41.826 116.106 41.9762 116.327 41.9505V42.2429H111.184V41.9505C111.404 41.9762 111.693 41.826 111.693 41.5593C111.693 41.4605 108.572 32.1314 108.234 31.9148C108.036 31.7889 107.938 31.7889 107.819 31.7889V31.4979Z" fill="white"/>
<path d="M132.683 40.041C132.973 40.041 133.221 39.8705 133.319 39.4278H133.614V42.7009H133.365C133.198 42.2596 133.073 42.1879 132.683 42.1879H121.808V41.8982C122.151 41.8725 122.493 41.7994 122.493 41.4569V32.1765C122.493 31.8341 122.151 31.761 121.808 31.7353V31.4415H132.879C133.073 31.4415 133.319 31.3481 133.319 30.9041H133.614V34.1785H133.319C133.319 33.6912 133.073 33.5924 132.879 33.5924H125.758V35.57H130.344C130.537 35.57 130.785 35.4753 130.785 35.0083H131.076V38.1866H130.785C130.785 37.7182 130.537 37.6235 130.344 37.6235H125.758V40.041H132.683Z" fill="white"/>
<path d="M136.751 32.1378C136.751 31.7967 136.461 31.7236 136.215 31.6992V31.4041H144.042C146.435 31.4041 148.043 32.5777 148.043 34.8017C148.043 36.5587 146.847 37.5143 145.334 38.1005L147.504 41.3694C147.678 41.6402 148.013 41.8608 148.357 41.8608V42.1505H143.434V41.8608C143.651 41.8608 144.02 41.785 144.02 41.544C144.02 41.2232 142.36 38.5648 142.165 38.1519H139.824V41.4222C139.824 41.7633 140.118 41.8351 140.46 41.8608V42.1505H136.268V41.8608C136.461 41.8351 136.751 41.7633 136.751 41.4222V32.1378ZM139.824 36.0958H143.292C144.311 36.0958 144.97 35.6599 144.97 34.776C144.97 34.0193 144.553 33.4603 143.115 33.4603H139.824V36.0958Z" fill="white"/>
<path d="M151.335 38.5446L151.652 38.6908C151.652 38.7653 151.628 38.8329 151.628 38.9548C151.628 39.5896 154.433 40.2272 156.411 40.2272C157.013 40.2272 158.625 40.1297 158.625 39.1781C158.625 37.2695 150.65 39.1253 150.65 35.0266C150.65 33.5092 152.093 31.3827 156.062 31.3827C158.381 31.3827 160.378 32.0216 160.914 32.0216C161.188 32.0216 161.328 31.8253 161.452 31.7265L161.722 31.8253L160.258 34.9034L159.943 34.7572C159.943 34.6841 159.966 34.5867 159.966 34.4851C159.966 34.2442 158.238 33.5863 156.597 33.5863C155.992 33.5863 153.826 33.5863 153.826 34.6584C153.826 36.391 161.792 34.607 161.792 38.86C161.792 40.7673 160.164 42.4268 156.43 42.4268C154.092 42.4268 151.362 41.5496 151.166 41.5496C150.947 41.5496 150.775 41.7148 150.604 41.8921L150.339 41.8136L151.335 38.5446Z" fill="white"/>
<path d="M172.924 42.2429V41.9505C173.019 41.9505 173.238 41.9505 173.238 41.7312C173.238 41.4591 172.704 40.5102 172.531 40.0676H166.872C166.731 40.5102 166.167 41.4591 166.167 41.7312C166.167 41.9505 166.385 41.9505 166.485 41.9505V42.2429H162.827V41.9505C163.023 41.9505 163.242 41.8774 163.316 41.7068C165.266 37.1397 167.53 32.375 167.53 32.0353C167.53 31.862 167.459 31.8119 167.218 31.7889V31.4979H172.309V31.7889C172.069 31.8119 171.995 31.862 171.995 32.0353C171.995 32.3277 175.409 39.1878 176.479 41.7068C176.556 41.8774 176.774 41.9505 176.965 41.9505V42.2429H172.924ZM171.703 38.3106L169.654 34.0386L167.657 38.3106H171.703Z" fill="white"/>
<path d="M179.325 32.1663C179.325 31.8293 179.033 31.7521 178.667 31.7291V31.4354H183.23V31.7291C182.883 31.7521 182.591 31.8293 182.591 32.1663V39.6924H189.271C189.472 39.6924 189.708 39.5963 189.708 39.0792H190V42.7935H189.708C189.708 42.2792 189.472 42.1804 189.271 42.1804H178.667V41.8907C179.033 41.869 179.325 41.7932 179.325 41.4521V32.1663Z" fill="white"/>
<path d="M0.57018 32.1019C0.57018 31.9219 0.509379 31.7757 0 31.7351V31.4901H4.91001V31.7351C4.44117 31.7554 4.33984 31.8772 4.33984 31.9977C4.33984 32.2264 7.86494 35.9773 9.28903 37.5502V32.1019C9.28903 31.8583 9.1242 31.7554 8.85938 31.7351V31.4901H12.5898V31.7351C12.0805 31.7757 12.0197 31.9219 12.0197 32.1019V41.6124C12.0197 41.7965 12.0805 41.94 12.5898 41.9792V42.2242H8.71885V41.9792C9.08636 41.9792 9.18905 41.8993 9.18905 41.7572C9.18905 41.4879 8.67832 41.2212 3.30081 35.2044V41.6124C3.30081 41.7965 3.36162 41.94 3.86964 41.9792V42.2242H0V41.9792C0.509379 41.94 0.57018 41.7965 0.57018 41.6124V32.1019Z" fill="white"/>
<path d="M15.7756 32.1019C15.7756 31.9219 15.7135 31.7757 15.2041 31.7351V31.4901H22.965C25.1633 31.4901 26.7738 32.305 26.7738 34.3272C26.7738 35.5496 25.9591 36.3035 24.8174 36.5526V36.5905C26.1834 36.9614 27.1805 37.6923 27.1805 39.2043C27.1805 40.8354 25.9591 42.2242 23.0663 42.2242H15.2041V41.9792C15.7135 41.94 15.7756 41.7965 15.7756 41.6124V32.1019ZM18.8305 35.5293H21.6017C23.3487 35.5293 23.8014 35.4101 23.8014 34.5858C23.8014 33.7723 23.3487 33.6518 21.6017 33.6518H18.8305V35.5293ZM18.8305 40.0584H22.2935C23.7189 40.0584 24.2891 39.7349 24.2891 38.8361C24.2891 37.9427 23.7189 37.6098 22.2935 37.6098H18.8305V40.0584Z" fill="white"/>
<path d="M39.2091 35.4476L39.0023 35.3082C39.0226 35.2242 39.0469 35.1457 39.0469 34.9995C39.0469 34.5867 37.4756 34.0615 35.7461 34.0615C34.095 34.0615 31.9562 34.7775 31.9562 36.854C31.9562 38.9399 34.095 39.6546 35.7461 39.6546C36.4582 39.6546 39.1658 39.0983 39.1658 38.5108C39.1658 38.3863 39.0848 38.305 39.0469 38.2035L39.2672 38.0587L41.3668 41.2654L41.1209 41.4075C41.0601 41.2654 40.9818 41.2451 40.8385 41.2451C40.4291 41.2451 38.5335 42.3496 35.5016 42.3496C32.2386 42.3496 28.7783 40.5114 28.7783 36.854C28.7783 33.2019 32.2386 31.3651 35.5016 31.3651C37.1283 31.3651 38.2916 31.5708 39.105 31.7969C39.9008 32.0216 40.3075 32.1854 40.5116 32.1854C40.6332 32.1854 40.7372 32.1218 40.8196 32.0216L41.0412 32.0838L39.2091 35.4476Z" fill="white"/>
<path d="M62.6468 37.2137C63.829 37.4357 64.7235 38.4753 64.7235 39.7233C64.7235 41.0728 63.6764 42.1774 62.3496 42.2681L47.7979 42.2776C46.3913 42.2776 45.251 41.1365 45.251 39.726C45.251 38.4577 46.1738 37.4073 47.3844 37.211C46.9264 36.7467 46.644 36.1119 46.644 35.4107C46.644 34.0016 47.7844 32.8591 49.1949 32.8591C49.5881 32.8591 49.961 32.9498 50.2961 33.1109C50.2853 33.0202 50.2812 32.9268 50.2812 32.8348C50.2812 31.4243 51.4203 30.2818 52.8281 30.2818C53.7537 30.2818 54.5616 30.7773 55.0116 31.5163C55.4534 30.7746 56.2641 30.2791 57.1909 30.2791C58.5975 30.2791 59.7392 31.4229 59.7392 32.8321C59.7392 32.9322 59.7338 33.031 59.7202 33.1298C60.0567 32.9661 60.4336 32.874 60.8322 32.874C62.2401 32.874 63.3791 34.0165 63.3791 35.4256C63.3791 36.1213 63.0981 36.7548 62.6468 37.2137Z" fill="white"/>
<path fill-rule="evenodd" clip-rule="evenodd" d="M56.2613 32.955C56.1532 33.0958 55.483 33.3273 55.4465 33.6819C55.4114 34.2491 56.2613 39.5552 56.2613 39.5552C56.2613 39.5552 57.5557 36.6463 58.1569 35.3672C58.8838 33.8051 59.2365 33.2731 59.0433 32.4759C58.8473 31.3388 57.857 30.8258 56.9693 30.9138C55.9789 31.0722 55.2871 31.8356 55.2871 32.8481H56.0492C56.0492 32.8481 56.2437 32.8671 56.2613 32.955Z" fill="#5F53AE"/>
<path fill-rule="evenodd" clip-rule="evenodd" d="M61.9828 33.9125C61.3099 33.4171 59.698 33.1504 59.0076 34.7829L56.2607 40.8701L61.8234 37.0908C63.3636 35.9348 62.6746 34.4458 61.9828 33.9125Z" fill="#3E87CF"/>
<path fill-rule="evenodd" clip-rule="evenodd" d="M54.7207 33.0442C54.9518 31.6067 53.5507 30.8256 52.5927 30.915C51.7793 31.072 50.5039 31.9437 50.9984 33.4692L53.7088 39.6106L54.7207 33.0442Z" fill="#CB1847"/>
<path fill-rule="evenodd" clip-rule="evenodd" d="M48.0778 41.6836H53.9052L48.8033 38.1181C47.5454 37.3182 46.2186 38.2048 45.97 39.1279C45.6498 40.1797 46.0551 41.6118 48.0778 41.6836Z" fill="#F9B10C"/>
<path fill-rule="evenodd" clip-rule="evenodd" d="M48.0241 36.9489L53.7097 40.869C53.7097 40.869 51.3547 35.5628 50.8939 34.5354C50.2913 33.2738 48.7497 33.328 48.0241 33.8762C47.1743 34.5165 46.873 36.0081 48.0241 36.9489Z" fill="#F35D1B"/>
<path fill-rule="evenodd" clip-rule="evenodd" d="M56.0488 41.6849C56.0488 41.6849 61.4871 41.7011 62.2478 41.6686C63.753 41.5969 64.1799 40.181 64.0908 39.5029C63.8597 38.4024 62.7626 37.2139 61.1142 38.1899L56.0488 41.6849Z" fill="#34B43F"/>
</g>
<defs>
<clipPath id="clip0_1099_5667">
<rect width="190" height="73.6594" fill="white"/>
</clipPath>
</defs>
</svg>