<?xml version="1.0" encoding="utf-8"?>
<svg xmlns="http://www.w3.org/2000/svg" width="81" height="23" viewBox="0 0 81 23" fill="none">
<path d="M3.56189 0.701172C3.32894 0.701172 3.13166 0.869331 3.09599 1.09986L0.405352 18.1513C0.367455 18.3896 0.531302 18.6123 0.769825 18.6502C0.792117 18.6535 0.814409 18.6558 0.837816 18.6558H4.02891C4.26074 18.6558 4.45914 18.4865 4.49481 18.2571L5.28506 13.25C5.32073 13.0206 5.51912 12.8513 5.75096 12.8513H8.65226C12.0429 12.8513 14.9196 10.3801 15.4457 7.03128C15.9752 3.65351 13.3347 0.708968 9.59298 0.701172H3.56301H3.56189ZM6.66382 4.50769H8.98552C10.8971 4.50769 11.519 5.63474 11.3228 6.88093C11.1256 8.12936 10.1592 9.04925 8.31119 9.04925H5.94825L6.66493 4.50769H6.66382ZM21.936 5.66703C21.1302 5.67037 20.2028 5.8352 19.1618 6.26842C16.7743 7.26292 15.6274 9.31764 15.1403 10.8166C15.1403 10.8166 13.5899 15.3883 17.092 17.8996C17.092 17.8996 20.3399 20.3174 23.9958 17.7504L23.9323 18.1513C23.8944 18.3896 24.0582 18.6123 24.2968 18.6502C24.319 18.6535 24.3413 18.6558 24.3636 18.6558H27.3931C27.6261 18.6558 27.8233 18.4865 27.859 18.2571L29.7014 6.58025C29.7393 6.34192 29.5766 6.11806 29.3381 6.0802C29.3158 6.07686 29.2935 6.07464 29.2701 6.07464H26.2406C26.0077 6.07464 25.8104 6.24391 25.7747 6.47333L25.6755 7.10144C25.6755 7.10144 24.3525 5.65701 21.9349 5.66591L21.936 5.66703ZM22.0352 9.35551C22.383 9.35551 22.7018 9.4034 22.9871 9.49472C24.2945 9.91346 25.0357 11.1686 24.8206 12.5284C24.5565 14.2033 23.1822 15.4362 21.4189 15.4362C21.0711 15.4362 20.7534 15.3883 20.467 15.2969C19.1607 14.8782 18.4139 13.6231 18.629 12.2633C18.8932 10.5883 20.2719 9.35439 22.0352 9.35439V9.35551Z" fill="white"/>
<path d="M47.1898 0.701172C46.9569 0.701172 46.7596 0.869331 46.7239 1.09986L44.0333 18.1513C43.9954 18.3896 44.1592 18.6123 44.3978 18.6502C44.42 18.6535 44.4423 18.6558 44.4657 18.6558H47.6568C47.8887 18.6558 48.0871 18.4865 48.1227 18.2571L48.913 13.25C48.9487 13.0206 49.1471 12.8513 49.3789 12.8513H52.2802C55.6708 12.8513 58.5476 10.3801 59.0725 7.03128C59.6031 3.65351 56.9626 0.708968 53.2198 0.701172H47.1898ZM50.2917 4.50769H52.6135C54.525 4.50769 55.1469 5.63474 54.9508 6.88093C54.7535 8.12936 53.7882 9.04925 51.9391 9.04925H49.5762L50.2929 4.50769H50.2917ZM65.564 5.66703C64.7581 5.67037 63.8308 5.8352 62.7897 6.26842C60.4023 7.26292 59.2553 9.31764 58.7683 10.8166C58.7683 10.8166 57.219 15.3883 60.721 17.8996C60.721 17.8996 63.9679 20.3174 67.6249 17.7504L67.5613 18.1513C67.5234 18.3896 67.6873 18.6123 67.9258 18.6502C67.9481 18.6535 67.9704 18.6558 67.9938 18.6558H71.0233C71.2562 18.6558 71.4535 18.4865 71.4892 18.2571L73.3327 6.58025C73.3706 6.34192 73.2079 6.11806 72.9693 6.0802C72.9471 6.07686 72.9236 6.07464 72.9014 6.07464H69.8719C69.6389 6.07464 69.4416 6.24391 69.406 6.47333L69.3068 7.10144C69.3068 7.10144 67.9837 5.65701 65.5662 5.66591L65.564 5.66703ZM65.6632 9.35551C66.0109 9.35551 66.3297 9.4034 66.615 9.49472C67.9224 9.91346 68.6637 11.1686 68.4485 12.5284C68.1844 14.2033 66.8101 15.4362 65.0468 15.4362C64.699 15.4362 64.3814 15.3883 64.0949 15.2969C62.7886 14.8782 62.0418 13.6231 62.2569 12.2633C62.5211 10.5883 63.8999 9.35439 65.6632 9.35439V9.35551Z" fill="white"/>
<path d="M31.1406 6.07422C30.9009 6.07422 30.7293 6.30809 30.8028 6.5364L34.1244 16.8345L31.1216 21.6879C30.9756 21.924 31.145 22.228 31.4226 22.228H34.9726C35.1788 22.228 35.3705 22.12 35.4775 21.9429L44.7532 6.611C44.8958 6.3749 44.7253 6.07422 44.45 6.07422H40.9011C40.6927 6.07422 40.4998 6.18447 40.394 6.36377L36.7425 12.5235L34.889 6.40944C34.8288 6.21009 34.6449 6.07422 34.4376 6.07422H31.1428H31.1406Z" fill="white"/>
<path d="M76.773 0.701172C76.5412 0.701172 76.3428 0.870445 76.3071 1.09986L73.6153 18.1502C73.5774 18.3885 73.7402 18.6123 73.9787 18.6502C74.001 18.6535 74.0244 18.6558 74.0467 18.6558H77.2378C77.4696 18.6558 77.668 18.4865 77.7037 18.2571L80.3943 1.20567C80.4322 0.967343 80.2684 0.744597 80.0298 0.706732C80.0076 0.703391 79.9853 0.701172 79.963 0.701172H76.7719H76.773Z" fill="white"/>
</svg>