<?xml version="1.0" encoding="utf-8"?>
<svg xmlns="http://www.w3.org/2000/svg" width="321" height="31" viewBox="0 0 321 31" fill="none">
<path d="M0 22.2543V21.9361L8.59998 8.12466H13.9591L22.6014 21.9361V22.2543H18.4074L16.8822 19.7721H5.63447L4.10935 22.2543H0ZM7.54087 16.6746H14.9758L11.862 11.604H10.6758L7.54087 16.6746Z" fill="white"/>
<path d="M25.6178 22.2543V8.12466H37.3315C41.2714 8.12466 43.665 9.97042 43.665 13.0467C43.665 16.1442 41.2714 17.9475 37.3315 17.9475H29.4941V22.2543H25.6178ZM29.4941 14.8076H37.4374C38.9626 14.8076 39.8946 14.1711 39.8946 13.0467C39.8946 11.9435 38.9626 11.2646 37.4374 11.2646H29.4941V14.8076Z" fill="white"/>
<path d="M52.7231 22.2543V11.3494H45.2669V8.12466H64.0344V11.3494H56.5782V22.2543H52.7231Z" fill="white"/>
<path d="M77.0426 22.5513C69.5864 22.5513 65.2864 19.5175 65.2864 15.1895C65.2864 10.8615 69.6076 7.82764 77.0426 7.82764C84.4563 7.82764 88.7563 10.8615 88.7563 15.1895C88.7563 19.5175 84.4775 22.5513 77.0426 22.5513ZM69.0992 15.1895C69.0992 17.8414 72.213 19.3478 77.0426 19.3478C81.8509 19.3478 84.9435 17.8414 84.9435 15.1895C84.9435 12.5375 81.8509 11.0312 77.0426 11.0312C72.213 11.0312 69.0992 12.5375 69.0992 15.1895Z" fill="white"/>
<path d="M101.425 22.5513C95.1342 22.5513 91.9357 20.8965 91.5544 17.7142H95.7061C96.0874 18.9871 97.909 19.5811 101.446 19.5811C104.92 19.5811 106.615 19.1144 106.615 18.1597C106.615 17.4383 105.852 17.1625 103.247 16.908L98.8199 16.5261C94.181 16.1018 92.1263 14.7227 92.1263 12.2405C92.1263 9.44003 95.0706 7.82764 100.324 7.82764C106.107 7.82764 109.496 9.52489 109.919 12.3466H105.768C105.408 11.307 103.586 10.7978 100.493 10.7978C97.2736 10.7978 95.9391 11.1373 95.9391 11.9435C95.9391 12.6224 96.8076 13.0043 99.18 13.2376L104.2 13.6832C108.606 14.0863 110.428 15.4441 110.428 17.9051C110.428 20.9814 107.568 22.5513 101.425 22.5513Z" fill="white"/>
<path d="M187.014 10.1734H184.329C184.03 10.1734 183.732 10.0379 183.515 9.82122L182.43 8.60219C182.105 8.25002 181.589 8.22293 181.209 8.52092L181.128 8.60219L180.206 9.65868C179.907 10.0108 179.446 10.2005 178.985 10.2005H164.311C163.904 11.3924 163.633 12.6656 163.524 13.9388H177.412C177.656 13.9388 177.9 13.8305 178.063 13.6679L179.365 12.3135C179.528 12.1509 179.745 12.0426 179.989 12.0426H180.043C180.287 12.0426 180.531 12.1509 180.694 12.3406L181.779 13.5596C181.996 13.8034 182.294 13.9388 182.593 13.9388H193.904C193.795 12.6656 193.524 11.3924 193.117 10.2005H187.014V10.1734ZM178.117 17.6501L177.032 16.4311C176.707 16.0789 176.191 16.0518 175.812 16.3498L175.73 16.4311L174.781 17.4876C174.483 17.8397 174.049 18.0294 173.588 18.0294H163.741C163.986 19.3297 164.42 20.6029 164.989 21.8219H171.906C172.15 21.8219 172.367 21.7136 172.557 21.551L173.859 20.1965C174.022 20.034 174.238 19.9256 174.483 19.9256H174.537C174.781 19.9256 175.025 20.034 175.188 20.2236L176.273 21.4427C176.49 21.6865 176.788 21.8219 177.087 21.8219H192.439C193.008 20.63 193.442 19.3568 193.687 18.0294H178.931C178.606 18.0294 178.307 17.8939 178.117 17.6501ZM183.434 5.83905L184.736 4.48457C184.898 4.32203 185.115 4.21367 185.359 4.21367H185.414C185.658 4.21367 185.902 4.32203 186.065 4.48457L187.15 5.7036C187.367 5.94741 187.665 6.05576 187.963 6.05576H190.893C185.793 -0.66246 176.219 -1.98985 169.465 3.07591C168.353 3.91568 167.349 4.918 166.481 6.05576H182.783C183.054 6.10994 183.271 6.00158 183.434 5.83905ZM172.937 25.5603C172.611 25.5603 172.313 25.4248 172.123 25.2081L171.038 23.9891C170.712 23.6369 170.17 23.6098 169.817 23.9349L169.763 23.9891L168.814 25.0456C168.515 25.3978 168.081 25.5874 167.62 25.5874H167.566C173.289 31.7096 182.973 32.0076 189.13 26.2375C189.374 26.0208 189.591 25.777 189.835 25.5332H172.937V25.5603Z" fill="white"/>
<path d="M248.536 18.1895V10.1495H249.904L255.328 17.2895H255.604V10.1495H256.336V18.1895H255.028L249.544 10.9175H249.268V18.1895H248.536ZM259.411 18.1895V10.1495H266.191V10.7975H260.143V13.8095H265.351V14.4575H260.143V17.5415H266.167V18.1895H259.411ZM271.098 18.1895V10.7975H267.438V10.1495H275.502V10.7975H271.842V18.1895H271.098ZM279.148 18.1895L276.652 10.2695V10.1495H277.384L279.652 17.4335H279.952L282.424 10.1495H283.636L286.108 17.4335H286.42L288.676 10.1495H289.396V10.2695L286.912 18.1895H285.628L283.168 10.9895H282.88L280.432 18.1895H279.148ZM295.602 18.3095C292.782 18.3095 290.742 16.6295 290.742 14.1695C290.742 11.7095 292.782 10.0295 295.602 10.0295C298.422 10.0295 300.474 11.7095 300.474 14.1695C300.474 16.6295 298.422 18.3095 295.602 18.3095ZM291.498 14.1695C291.498 16.2455 293.202 17.6615 295.602 17.6615C298.014 17.6615 299.718 16.2455 299.718 14.1695C299.718 12.0935 298.014 10.6775 295.602 10.6775C293.202 10.6775 291.498 12.0935 291.498 14.1695ZM302.829 18.1895V10.1495H307.113C309.237 10.1495 310.197 11.1095 310.197 12.5615C310.197 13.8335 309.369 14.6735 308.001 14.9015V15.0695L310.305 18.0695V18.1895H309.477L307.005 14.9735H303.561V18.1895H302.829ZM303.561 14.3255H307.029C308.841 14.3255 309.465 13.5575 309.465 12.5615C309.465 11.5895 308.853 10.7975 307.065 10.7975H303.561V14.3255ZM312.462 18.1895V10.1495H313.194V14.6135H313.422L319.182 10.1495H320.166V10.2695L315.93 13.5455V13.6535L320.274 18.0695V18.1895H319.338L315.378 14.1575H315.15L313.194 15.6455V18.1895H312.462Z" fill="white"/>
</svg>