<?xml version="1.0" encoding="utf-8"?>
<svg xmlns="http://www.w3.org/2000/svg" width="30" height="30" viewBox="0 0 30 30" fill="none">
<g clip-path="url(#clip0_1843_727)">
<path fill-rule="evenodd" clip-rule="evenodd" d="M23.7947 0.924805H6.20469C3.28969 0.924805 0.929688 3.2898 0.929688 6.2048V23.7948C0.929688 26.7098 3.28969 29.0748 6.20469 29.0748H23.7947C26.7097 29.0748 29.0747 26.7098 29.0747 23.7948V6.2048C29.0747 3.2898 26.7097 0.924805 23.7947 0.924805ZM5.25969 24.8198L5.22969 11.7248H9.60469L9.62969 24.8198H5.25969ZM7.33469 10.0148H7.30969C5.87969 10.0148 4.95969 9.0298 4.95969 7.8048C4.95969 6.5798 5.90969 5.5948 7.36469 5.5948C8.81969 5.5948 9.70969 6.5448 9.73969 7.8048C9.73969 9.0298 8.81469 10.0148 7.33469 10.0148ZM24.7847 24.8198H20.3797V17.7048C20.3797 15.9848 19.9247 14.8148 18.3847 14.8148C17.2097 14.8148 16.5747 15.6048 16.2697 16.3698C16.1547 16.6448 16.1247 17.0198 16.1247 17.4048V24.8198H11.6947L11.6697 11.7248H16.0997L16.1247 13.5748C16.6897 12.6998 17.6347 11.4598 19.8947 11.4598C22.6947 11.4598 24.7847 13.2848 24.7847 17.2148V24.8198Z" fill="#878787"/>
</g>
<defs>
<clipPath id="clip0_1843_727">
<rect width="30" height="30" fill="white"/>
</clipPath>
</defs>
</svg>