<?xml version="1.0" encoding="utf-8"?>
<svg xmlns="http://www.w3.org/2000/svg" width="29" height="30" viewBox="0 0 29 30" fill="none">
<path fill-rule="evenodd" clip-rule="evenodd" d="M23.2947 0.924805H5.70469C2.78969 0.924805 0.429688 3.2898 0.429688 6.2048V23.7948C0.429688 26.7098 2.78969 29.0748 5.70469 29.0748H23.2947C26.2047 29.0748 28.5697 26.7098 28.5697 23.7948V6.2048C28.5697 3.2898 26.2047 0.924805 23.2947 0.924805ZM18.2097 26.3998C17.6097 26.5148 17.4047 26.1548 17.4047 25.8348C17.4047 25.4498 17.4197 24.1898 17.4197 22.6248C17.4197 21.5298 17.0347 20.8148 16.6197 20.4548C19.2297 20.1598 21.9647 19.1748 21.9647 14.6748C21.9647 13.3948 21.5147 12.3548 20.7647 11.5348C20.8897 11.2398 21.2897 10.0498 20.6497 8.4398C20.6497 8.4398 19.6647 8.1198 17.4297 9.6398C16.4997 9.3798 15.4897 9.2448 14.4997 9.2448C13.4997 9.2498 12.4997 9.3798 11.5697 9.6398C9.33469 8.1198 8.34969 8.4398 8.34969 8.4398C7.70969 10.0498 8.10969 11.2398 8.23469 11.5348C7.47969 12.3548 7.02469 13.3948 7.02469 14.6748C7.02469 19.1598 9.75469 20.1648 12.3597 20.4598C12.0297 20.7548 11.7247 21.2748 11.6197 22.0298C10.9497 22.3298 9.25469 22.8448 8.20969 21.0598C8.20969 21.0598 7.58469 19.9348 6.41469 19.8498C6.41469 19.8498 5.26969 19.8348 6.33469 20.5598C6.33469 20.5598 7.10469 20.9198 7.63469 22.2698C7.63469 22.2698 8.32469 24.5448 11.5797 23.8398C11.5897 24.8148 11.5947 25.5498 11.5947 25.8298C11.5947 26.1448 11.3797 26.5048 10.7997 26.3998C6.14969 24.8448 2.79469 20.4598 2.79469 15.2848C2.79469 8.8198 8.02969 3.5798 14.4997 3.5798C20.9697 3.5798 26.2047 8.8198 26.2047 15.2948C26.2047 20.4598 22.8597 24.8448 18.2097 26.3998Z" fill="#878787"/>
</svg>