<?xml version="1.0" encoding="utf-8"?>
<svg xmlns="http://www.w3.org/2000/svg" width="29" height="30" viewBox="0 0 29 30" fill="none">
<g clip-path="url(#clip0_1843_724)">
<path fill-rule="evenodd" clip-rule="evenodd" d="M18.3002 18.6447L21.5952 23.3547H20.3352C19.3452 23.3647 19.0752 23.3597 19.0502 23.3397C19.0402 23.3247 18.2552 22.2047 17.3102 20.8597C14.3602 16.6347 9.77516 10.0647 8.60016 8.39469C7.98516 7.51469 7.46516 6.76469 7.44516 6.73469L7.41016 6.67969H8.67516L9.94516 6.68969L12.4802 10.3097C13.8702 12.3097 16.4952 16.0547 18.3002 18.6447Z" fill="#878787"/>
<path fill-rule="evenodd" clip-rule="evenodd" d="M23.2947 0.924805H5.70469C2.78969 0.924805 0.429688 3.2898 0.429688 6.2048V23.7948C0.429688 26.7098 2.78969 29.0748 5.70469 29.0748H23.2947C26.2097 29.0748 28.5747 26.7098 28.5747 23.7948V6.2048C28.5747 3.2898 26.2097 0.924805 23.2947 0.924805ZM21.0747 24.5648H18.2947L18.2397 24.4848C18.2097 24.4448 17.0647 22.7748 15.6947 20.7798C14.3247 18.7848 13.1947 17.1498 13.1897 17.1498C13.1797 17.1498 12.9897 17.3598 12.7747 17.6198C12.5547 17.8748 12.3647 18.0948 12.3547 18.1048C12.3447 18.1198 12.0347 18.4698 11.6747 18.8848C11.3197 19.3048 10.9947 19.6848 10.9547 19.7348C10.9097 19.7798 10.8347 19.8698 10.7797 19.9298C10.6447 20.0948 8.97969 22.0298 8.75969 22.2798C8.66469 22.3998 8.17969 22.9548 7.68469 23.5298L6.79969 24.5648H5.98469C5.46969 24.5648 5.17969 24.5598 5.17969 24.5498C5.17969 24.5348 5.23969 24.4498 5.31969 24.3598C5.39969 24.2698 5.83969 23.7648 6.29969 23.2298C7.14969 22.2298 7.31469 22.0398 8.43969 20.7348C8.80469 20.3048 9.34969 19.6748 9.65969 19.3198C9.95969 18.9648 10.4247 18.4248 10.6897 18.1198C10.9547 17.8098 11.3747 17.3198 11.6247 17.0298C11.8697 16.7398 12.1597 16.4148 12.2647 16.2948C12.3647 16.1748 12.4497 16.0698 12.4497 16.0648C12.4497 16.0548 12.2647 15.7798 12.0397 15.4548C11.8147 15.1298 10.2297 12.8148 8.50969 10.3098C6.78969 7.8098 5.32969 5.6898 5.26969 5.5998L5.15469 5.4348H10.7347L13.1097 8.8998C14.4247 10.8098 15.5097 12.3948 15.5247 12.4148C15.5547 12.4548 15.5797 12.4348 15.9447 12.0048C16.7897 11.0298 16.9747 10.8098 17.1597 10.5948C17.2597 10.4748 17.3497 10.3698 17.3547 10.3648C17.3647 10.3548 17.7147 9.9548 18.1347 9.4598C18.5547 8.9648 18.9697 8.4848 19.0497 8.3948C19.1347 8.2998 19.2497 8.1698 19.3097 8.0998C19.3647 8.0298 19.4997 7.8648 19.6147 7.7398C19.8647 7.4498 20.7447 6.42981 21.2297 5.85981L21.5997 5.4348H22.4197C23.1947 5.4348 23.2397 5.4348 23.2147 5.4698C23.1947 5.4898 22.8947 5.8448 22.5447 6.2498C22.1847 6.6648 21.6247 7.3148 21.2997 7.6948C20.9747 8.0848 20.6547 8.4548 20.5947 8.5198C20.5297 8.5898 20.2747 8.8948 20.0147 9.1998C19.7547 9.4998 19.2347 10.0998 18.8597 10.5398C16.6497 13.1048 16.3147 13.4948 16.3097 13.5198C16.3097 13.5598 16.6697 14.0798 19.0847 17.5998C22.5047 22.5748 23.8347 24.5148 23.8447 24.5348C23.8447 24.5598 23.3497 24.5648 21.0747 24.5648Z" fill="#878787"/>
</g>
<defs>
<clipPath id="clip0_1843_724">
<rect width="29" height="30" fill="white"/>
</clipPath>
</defs>
</svg>