<?xml version="1.0" encoding="utf-8"?>
<svg xmlns="http://www.w3.org/2000/svg" width="160" height="45" viewBox="0 0 160 45" fill="none">
<g clip-path="url(#clip0_1099_5660)">
<path d="M160 21.2038V18.3899H156.506V14.0155L156.388 14.0517L153.106 15.0559L153.041 15.0755V18.3901H147.861V16.5436C147.861 15.6838 148.053 15.0259 148.432 14.5871C148.809 14.1535 149.347 13.9331 150.033 13.9331C150.527 13.9331 151.038 14.0494 151.552 14.2786L151.681 14.3362V11.3728L151.62 11.3505C151.14 11.1781 150.488 11.0913 149.679 11.0913C148.66 11.0913 147.734 11.3131 146.926 11.7526C146.118 12.1928 145.483 12.8212 145.037 13.6202C144.594 14.4182 144.368 15.3399 144.368 16.3599V18.3899H141.935V21.2038H144.368V33.058H147.861V21.2038H153.041V28.7369C153.041 31.8394 154.505 33.4117 157.391 33.4117C157.865 33.4117 158.364 33.3561 158.874 33.2473C159.393 33.1355 159.746 33.0239 159.954 32.9048L160 32.8775V30.0377L159.858 30.1316C159.669 30.2579 159.432 30.3612 159.156 30.4379C158.878 30.5161 158.646 30.5552 158.466 30.5552C157.79 30.5552 157.289 30.3731 156.979 30.0135C156.665 29.6507 156.506 29.0163 156.506 28.1288V21.2038H160ZM134.135 30.5557C132.867 30.5557 131.868 30.1353 131.163 29.3073C130.455 28.475 130.096 27.2885 130.096 25.781C130.096 24.2256 130.455 23.0083 131.164 22.1614C131.869 21.32 132.859 20.893 134.107 20.893C135.318 20.893 136.282 21.3008 136.972 22.1058C137.667 22.915 138.019 24.1226 138.019 25.696C138.019 27.2888 137.688 28.5123 137.034 29.3308C136.386 30.1431 135.41 30.5557 134.135 30.5557ZM134.29 18.0366C131.872 18.0366 129.951 18.7453 128.581 20.1431C127.212 21.541 126.518 23.4756 126.518 25.8935C126.518 28.1901 127.195 30.0374 128.532 31.3831C129.868 32.7294 131.687 33.4113 133.937 33.4113C136.281 33.4113 138.164 32.6927 139.533 31.2756C140.902 29.86 141.596 27.9437 141.596 25.5823C141.596 23.2498 140.945 21.3887 139.661 20.0519C138.376 18.7145 136.569 18.0366 134.29 18.0366ZM120.886 18.0366C119.241 18.0366 117.88 18.4574 116.841 19.2872C115.795 20.1219 115.264 21.2166 115.264 22.5414C115.264 23.23 115.378 23.8416 115.604 24.3605C115.831 24.881 116.181 25.3393 116.648 25.7239C117.11 26.1054 117.824 26.505 118.771 26.9116C119.566 27.239 120.16 27.5159 120.536 27.7341C120.905 27.948 121.166 28.163 121.314 28.3724C121.457 28.5774 121.53 28.8578 121.53 29.2039C121.53 30.1894 120.792 30.6689 119.274 30.6689C118.71 30.6689 118.068 30.5512 117.364 30.3194C116.665 30.091 116.006 29.7566 115.409 29.3279L115.264 29.2239V32.5867L115.317 32.6115C115.811 32.8396 116.434 33.032 117.169 33.1834C117.902 33.3349 118.568 33.412 119.146 33.412C120.932 33.412 122.369 32.9891 123.418 32.1544C124.474 31.314 125.009 30.1934 125.009 28.8228C125.009 27.8341 124.721 26.9862 124.153 26.3024C123.59 25.6242 122.611 25.0015 121.246 24.4512C120.158 24.0147 119.462 23.6524 119.174 23.3742C118.897 23.1055 118.757 22.7255 118.757 22.2443C118.757 21.8178 118.93 21.476 119.287 21.1993C119.646 20.9212 120.146 20.7797 120.773 20.7797C121.355 20.7797 121.951 20.8716 122.543 21.0518C123.135 21.232 123.654 21.4732 124.088 21.7684L124.231 21.8659V18.676L124.176 18.6524C123.776 18.4808 123.248 18.3339 122.607 18.2147C121.969 18.0963 121.39 18.0366 120.886 18.0366ZM106.158 30.5557C104.891 30.5557 103.891 30.1353 103.187 29.3073C102.478 28.475 102.119 27.2888 102.119 25.781C102.119 24.2256 102.478 23.0083 103.187 22.1614C103.892 21.32 104.882 20.893 106.13 20.893C107.341 20.893 108.305 21.3008 108.996 22.1058C109.69 22.915 110.042 24.1226 110.042 25.696C110.042 27.2888 109.711 28.5123 109.058 29.3308C108.409 30.1431 107.434 30.5557 106.158 30.5557ZM106.314 18.0366C103.895 18.0366 101.973 18.7453 100.604 20.1431C99.2356 21.541 98.5411 23.4756 98.5411 25.8935C98.5411 28.191 99.219 30.0374 100.555 31.3831C101.892 32.7294 103.71 33.4113 105.96 33.4113C108.304 33.4113 110.188 32.6927 111.557 31.2756C112.926 29.86 113.619 27.9437 113.619 25.5823C113.619 23.2498 112.968 21.3887 111.684 20.0519C110.399 18.7145 108.592 18.0366 106.314 18.0366ZM93.239 20.9301V18.3899H89.7888V33.0577H93.239V25.5546C93.239 24.2787 93.5283 23.2306 94.0991 22.4389C94.6627 21.6567 95.4137 21.2603 96.3306 21.2603C96.6413 21.2603 96.9902 21.3115 97.368 21.4129C97.742 21.5136 98.0128 21.6231 98.1726 21.7382L98.3176 21.8433V18.3649L98.2617 18.3409C97.9404 18.2044 97.4858 18.1355 96.9107 18.1355C96.0436 18.1355 95.2677 18.4141 94.6031 18.9626C94.0197 19.4447 93.5981 20.1058 93.2757 20.9301H93.239ZM83.6099 18.0366C82.027 18.0366 80.6151 18.376 79.4142 19.0451C78.2108 19.7158 77.2801 20.6732 76.647 21.8907C76.0165 23.1052 75.6965 24.5239 75.6965 26.106C75.6965 27.4919 76.0068 28.7637 76.6202 29.8846C77.2339 31.0074 78.1025 31.8857 79.202 32.4949C80.3 33.1033 81.569 33.4118 82.9741 33.4118C84.6138 33.4118 86.0137 33.084 87.1362 32.4375L87.1815 32.4115V29.2505L87.0365 29.3563C86.5281 29.7267 85.9599 30.0224 85.3485 30.2353C84.7387 30.4481 84.1827 30.5557 83.6952 30.5557C82.3414 30.5557 81.2545 30.1321 80.4656 29.2969C79.675 28.4607 79.2741 27.2864 79.2741 25.8087C79.2741 24.3218 79.6922 23.1173 80.5161 22.2286C81.3375 21.3425 82.4263 20.893 83.7521 20.893C84.8862 20.893 85.9913 21.277 87.0368 22.0354L87.1815 22.1405V18.8098L87.1348 18.7835C86.7413 18.5633 86.2047 18.3814 85.5386 18.2435C84.8752 18.1059 84.2264 18.0366 83.6099 18.0366ZM73.3202 18.3901H69.8699V33.0577H73.3202V18.3901ZM71.6303 12.1416C71.0624 12.1416 70.5672 12.3349 70.1603 12.718C69.7516 13.1021 69.5444 13.5858 69.5444 14.1566C69.5444 14.7185 69.7492 15.1933 70.1539 15.5673C70.556 15.9401 71.0529 16.1291 71.6305 16.1291C72.208 16.1291 72.7066 15.9401 73.1136 15.5679C73.5231 15.1933 73.7308 14.7186 73.7308 14.1566C73.7308 13.6058 73.5287 13.1271 73.1304 12.7335C72.7325 12.3406 72.2276 12.1416 71.6303 12.1416ZM63.0216 17.3079V33.0577H66.5428V12.5906H61.6693L55.4749 27.7929L49.4635 12.5906H44.3916V33.0575H47.7006V17.3063H47.8142L54.162 33.0577H56.6592L62.908 17.3079H63.0216Z" fill="white"/>
<path d="M16.2311 21.9827H0V5.75159H16.2311V21.9827Z" fill="#F1511B"/>
<path d="M34.1517 21.9827H17.9209V5.75159H34.1517V21.9827Z" fill="#80CC28"/>
<path d="M16.2307 39.9084H0V23.6774H16.2307V39.9084Z" fill="#00ADEF"/>
<path d="M34.1517 39.9084H17.9209V23.6774H34.1517V39.9084Z" fill="#FBBC09"/>
</g>
<defs>
<clipPath id="clip0_1099_5660">
<rect width="160" height="44" fill="white" transform="translate(0 0.829712)"/>
</clipPath>
</defs>
</svg>