<?xml version="1.0" encoding="utf-8"?>
<svg xmlns="http://www.w3.org/2000/svg" width="30" height="30" viewBox="0 0 30 30" fill="none">
<g clip-path="url(#clip0_1843_721)">
<path fill-rule="evenodd" clip-rule="evenodd" d="M13.3255 15.83C13.3255 17.055 12.4455 18.055 11.3405 18.055C10.2355 18.055 9.35547 17.055 9.35547 15.83C9.35547 14.605 10.2355 13.605 11.3405 13.605C12.4455 13.605 13.3405 14.61 13.3255 15.83ZM20.6605 15.83C20.6605 17.055 19.7905 18.055 18.6805 18.055C17.5705 18.055 16.6955 17.055 16.6955 15.83C16.6955 14.605 17.5705 13.605 18.6805 13.605C19.7905 13.605 20.6805 14.61 20.6605 15.83Z" fill="#878787"/>
<path fill-rule="evenodd" clip-rule="evenodd" d="M23.7947 0.945312H6.20469C3.28969 0.945312 0.929688 3.31031 0.929688 6.22531V23.8153C0.929688 26.7303 3.28969 29.0953 6.20469 29.0953H23.7947C26.7097 29.0953 29.0747 26.7303 29.0747 23.8153V6.22531C29.0747 3.31031 26.7097 0.945312 23.7947 0.945312ZM25.9497 20.5653C25.9497 20.5653 25.9347 20.6053 25.9197 20.6153C24.0297 22.0053 22.1997 22.8453 20.3947 23.4053C20.3697 23.4153 20.3347 23.4053 20.3197 23.3803C19.8997 22.7953 19.5247 22.1803 19.1897 21.5453V21.5353C19.1747 21.5003 19.1947 21.4603 19.2297 21.4453C19.8247 21.2203 20.4047 20.9453 20.9547 20.6253C20.9597 20.6203 20.9697 20.6153 20.9747 20.6053C20.9947 20.5753 20.9897 20.5303 20.9597 20.5103C20.8447 20.4203 20.7247 20.3303 20.6147 20.2403C20.5947 20.2203 20.5697 20.2203 20.5447 20.2303C16.9697 21.8803 13.0597 21.8803 9.44469 20.2303C9.43318 20.2256 9.42063 20.2241 9.40833 20.2258C9.39603 20.2276 9.38442 20.2326 9.37469 20.2403L9.02969 20.5103C9.02469 20.5153 9.01969 20.5203 9.01469 20.5303C8.99469 20.5603 9.00469 20.6053 9.03969 20.6253C9.58969 20.9453 10.1647 21.2203 10.7597 21.4453C10.7647 21.4453 10.7647 21.4503 10.7697 21.4503C10.8047 21.4653 10.8147 21.5103 10.7997 21.5453C10.4747 22.1853 10.0947 22.8003 9.66969 23.3803C9.65469 23.4003 9.61969 23.4153 9.59469 23.4053C7.79969 22.8453 5.96969 22.0053 4.07969 20.6153C4.06469 20.6053 4.04969 20.5853 4.04969 20.5653C3.66469 16.4453 4.44969 12.2703 7.31469 7.99531C7.31969 7.98531 7.32969 7.97531 7.34469 7.97031C8.77509 7.3095 10.2865 6.84045 11.8397 6.57531C11.8647 6.57031 11.8947 6.58531 11.9097 6.61031C12.1047 6.95531 12.3297 7.39531 12.4797 7.76031C14.1397 7.50531 15.8297 7.50531 17.5247 7.76031C17.6947 7.36531 17.8797 6.98031 18.0847 6.61031C18.0997 6.58531 18.1297 6.57031 18.1597 6.57531C19.7097 6.84531 21.2247 7.31031 22.6547 7.97031C22.6647 7.97531 22.6797 7.98531 22.6847 7.99531C25.1797 11.6653 26.4097 15.8003 25.9497 20.5653Z" fill="#878787"/>
</g>
<defs>
<clipPath id="clip0_1843_721">
<rect width="30" height="30" fill="white"/>
</clipPath>
</defs>
</svg>