<svg width="205" height="204" viewBox="0 0 205 204" fill="none" xmlns="http://www.w3.org/2000/svg">
<path d="M202.54 122.23C201.514 121.202 200.227 120.472 198.818 120.12C197.408 119.767 195.93 119.805 194.54 120.23C179.286 124.842 163.066 125.228 147.61 121.349C132.153 117.469 118.038 109.469 106.77 98.2004C95.5011 86.9319 87.5009 72.8173 83.6214 57.3606C79.742 41.9039 80.1286 25.6842 84.7402 10.4299C85.1682 9.03995 85.2092 7.55959 84.8587 6.14806C84.5083 4.73653 83.7797 3.44723 82.7513 2.41883C81.7229 1.39043 80.4336 0.661827 79.0221 0.311389C77.6105 -0.0390484 76.1302 0.0019356 74.7402 0.429933C53.6505 6.89038 35.1356 19.8379 21.8302 37.4299C10.1943 52.8785 3.09674 71.2657 1.33484 90.5257C-0.427053 109.786 3.21654 129.155 11.8563 146.459C20.496 163.762 33.7896 178.314 50.2435 188.478C66.6974 198.643 85.6598 204.018 105 204C127.564 204.069 149.526 196.734 167.52 183.12C185.112 169.815 198.06 151.3 204.52 130.21C204.943 128.825 204.983 127.351 204.634 125.946C204.285 124.541 203.562 123.256 202.54 122.23ZM157.9 170.34C140.956 183.103 119.971 189.315 98.8097 187.833C77.6482 186.351 57.7342 177.275 42.7336 162.276C27.7329 147.276 18.6554 127.363 17.1719 106.202C15.6884 85.0405 21.899 64.0555 34.6602 47.1099C42.9742 36.1305 53.7229 27.2304 66.0602 21.1099C65.3574 26.0422 65.0032 31.0179 65.0002 35.9999C65.0293 63.5735 75.9958 90.0094 95.4933 109.507C114.991 129.004 141.427 139.971 169 140C173.992 139.998 178.978 139.644 183.92 138.94C177.794 151.279 168.887 162.028 157.9 170.34Z" fill="white"/>
</svg>
